<?xml version="1.0" standalone="no"?>
<!DOCTYPE svg PUBLIC "-//W3C//DTD SVG 1.1//EN" "http://www.w3.org/Graphics/SVG/1.1/DTD/svg11.dtd" >
<svg xmlns="http://www.w3.org/2000/svg" xmlns:xlink="http://www.w3.org/1999/xlink" version="1.1">
<metadata>
Created by FontForge 20170731 at Mon Jul 19 08:48:56 2021
 By Aleksey,,,
Copyright (c) 2021 by www.fontiran.com (Moslem Ebrahimi). All rights reserved.
</metadata>
<defs>
<font id="IRANSansX-DemiBold" horiz-adv-x="0" >
  <font-face 
    font-family="IRANSansX DemiBold"
    font-weight="600"
    font-stretch="normal"
    units-per-em="1000"
    panose-1="0 0 0 0 0 0 0 0 0 0"
    ascent="800"
    descent="-200"
    x-height="528"
    cap-height="711"
    bbox="-81 -508 2295 1052"
    underline-thickness="28"
    underline-position="-255"
    unicode-range="U+000D-FEFF"
  />
<missing-glyph horiz-adv-x="255" 
d="M38 429h179v-433h-179v433zM208 4v417h-161v-417h161z" />
    <glyph glyph-name="uni06AA" unicode="&#x6a9;&#x621;&#x621;" horiz-adv-x="1232" 
d="M423 118h9q495 0 666 27q3 37 -22 57t-95 28.5t-211 8.5q-169 0 -258 10.5t-129 38.5q-5 28 -5 50q0 81 49.5 150.5t133.5 116t184 61.5l24 -115q-79 -13 -142.5 -41.5t-104.5 -63.5t-55 -67q41 -12 124 -17t277 -5q160 0 237.5 -44t77.5 -136q0 -54 -19 -85.5
t-56.5 -47.5t-99.5 -26q-93 -15 -224 -22t-352 -7h-9v129zM156 41q-101 53 -110 150q-1 8 -1 24q0 43 11 91t28 86l87 -43q-30 -91 -26 -135q8 -43 82 -69.5t207 -26.5q2 -42 2 -64q0 -21 -2 -65q-177 -1 -278 52z" />
    <glyph glyph-name="uni06BE" unicode="&#x647;&#x621;&#x621;" horiz-adv-x="727" 
d="M316 157.5q76 28.5 76 91.5q0 37 -24 65.5t-59 28.5q-22 0 -43 -13.5t-34.5 -35t-13.5 -44.5q0 -35 43.5 -65t107.5 -48t120 -18q45 0 72 12.5t27 39.5q0 98 -439 224l46 120q190 -57 297.5 -110.5t150.5 -106t43 -111.5q0 -35 -15 -83q-16 -51 -68.5 -76.5t-125.5 -25.5
q-81 0 -164 29.5t-137.5 82t-54.5 117.5q0 17 2 26q10 57 38.5 104.5t68.5 75.5t84 28q45 0 83.5 -30t61 -78.5t22.5 -101.5q0 -17 -3 -34q-13 -83 -61.5 -131t-139 -69t-237.5 -21l30 129q170 0 246 28.5z" />
    <glyph glyph-name="uni06C0" unicode="&#x647;&#x654;" horiz-adv-x="462" 
d="M91.5 45q-49.5 49 -49.5 125q0 30 7 58q16 61 52 112.5t89 103.5l61 -80q-114 -96 -114 -167q0 -35 26 -54.5t76 -19.5q42 0 69 17t30 45q-5 52 -60 106.5t-170 124.5l65 99q129 -76 194.5 -155t65.5 -167q0 -57 -26.5 -102t-73 -70t-102.5 -25q-90 0 -139.5 49z
M196 631.5q33 14.5 45 34.5q-8 7 -57 20q-31 10 -45 16t-23 18t-9 32q0 38 19.5 70t50.5 51t63 19q37 0 62 -17l-27 -52q-2 0 -11 3t-23 3q-29 0 -54 -19.5t-30 -47.5q3 -3 51 -18q44 -12 63.5 -24.5t19.5 -39.5q0 -33 -22 -62.5t-66 -47t-106 -15.5l8 61q58 1 91 15.5z" />
    <glyph glyph-name="uni06D2" unicode="&#x649;&#x621;&#x621;" horiz-adv-x="966" 
d="M53 103q0 73 45 145.5t110 118.5t119 46q48 0 84.5 -36t55.5 -69l-77 -66q-7 13 -28 28t-43 15q-37 0 -73.5 -25.5t-63 -59t-31.5 -50.5q17 -10 93.5 -22t198.5 -13h48q237 0 454 17l-45 -128q-81 -8 -169.5 -13t-239.5 -5h-48q-175 1 -258 18.5t-127 52.5q-5 19 -5 46z
" />
    <glyph glyph-name="uni06D3" unicode="&#x626;&#x621;&#x621;" horiz-adv-x="966" 
d="M53 103q0 73 45 145.5t110 118.5t119 46q48 0 84.5 -36t55.5 -69l-77 -66q-7 13 -28 28t-43 15q-37 0 -73.5 -25.5t-63 -59t-31.5 -50.5q17 -10 93.5 -22t198.5 -13h48q237 0 454 17l-45 -128q-81 -8 -169.5 -13t-239.5 -5h-48q-175 1 -258 18.5t-127 52.5q-5 19 -5 46z
M215.5 524q-30.5 28 -30.5 68q0 33 21 62t52 36q14 3 26 3q26 0 69 -13l-15 -61q-31 11 -52 11q-25 0 -39.5 -14.5t-10.5 -31.5q3 -12 16.5 -22.5t35.5 -10.5q8 0 13 1l-11 -61q-44 5 -74.5 33zM154 509l217 67v-62l-217 -67v62z" />
    <glyph glyph-name="uni06C0.fina" unicode="&#xfeea;&#x654;" horiz-adv-x="507" arabic-form="final" 
d="M239 49q-87 0 -142 41.5t-55 113.5q0 88 71 147.5t191 102.5l23 -116q-71 -16 -127.5 -48.5t-59.5 -62.5q-2 -24 24 -40t70 -16q49 0 104 21l25 -122q-64 -21 -124 -21zM364.5 53.5q-45.5 53.5 -60.5 177.5l-34 273l105 21q3 -22 4.5 -42t3.5 -38l22 -197q6 -51 15 -75.5
t26 -34t50 -9.5h17l7 -64l-7 -65h-17q-86 0 -131.5 53.5zM167 551.5q33 14.5 45 34.5q-8 7 -57 20q-31 10 -45 16t-23 18t-9 32q0 38 19.5 70t50.5 51t63 19q37 0 62 -17l-27 -52q-2 0 -11 3t-23 3q-29 0 -54 -19.5t-30 -47.5q3 -3 51 -18q44 -12 63.5 -24.5t19.5 -39.5
q0 -33 -22 -62.5t-66 -47t-106 -15.5l8 61q58 1 91 15.5z" />
    <glyph glyph-name="uni06C1.fina" unicode="&#xfeea;&#x621;&#x621;" horiz-adv-x="565" arabic-form="final" 
d="M570 129l7 -64l-7 -65h-7q-99 0 -171 56.5t-117 141.5q-45 -19 -90 -77.5t-64 -127.5l-77 49q11 57 41.5 112.5t71 97.5t81.5 62q28 14 49 14q39 0 71 -46q29 -48 51.5 -77.5t61 -52.5t91.5 -23h8z" />
    <glyph glyph-name="uni06C1.medi" unicode="&#xfeec;&#xfe8c;&#xfe8c;&#xfe8c;&#xfe8c;" horiz-adv-x="506" arabic-form="medial" 
d="M223 -184q-46 52 -75 119.5t-32 138.5l33 -5q-21 -34 -58 -51.5t-83 -17.5h-13v129h22q52 0 73.5 17t27.5 53l92 19q-1 -13 -1 -39q0 -129 39 -219.5t117 -133.5l-54 -42q-33 53 -33 114q0 59 29 112.5t77 86t102 32.5h25l7 -64l-7 -65h-25q-56 0 -85.5 -36t-29.5 -87
q0 -39 19 -74l-67 -65q-54 26 -100 78z" />
    <glyph glyph-name="uni06BE.fina" unicode="&#xfeea;&#x621;&#x621;&#x621;&#x621;" horiz-adv-x="582" arabic-form="final" 
d="M391 -239q-59 0 -115 37t-89.5 111t-27.5 180q8 133 43.5 225.5t67.5 140.5l78 26q67 -38 109 -106t42 -139q0 -114 -91 -174.5t-262 -60.5h-67l-37 109l157 11q65 4 113 22t73 43.5t25 52.5q0 29 -23.5 63t-58.5 54q-29 -42 -51 -122t-22 -159q0 -58 21 -102.5t54 -68.5
t67 -24q23 0 40 10q6 6 6 19q0 31 -28 70t-83 64l23 113q53 -16 103.5 -21.5t128.5 -5.5l7 -64l-7 -65q-76 0 -130 10t-125 33l23 89q52 -18 95 -55t67.5 -83.5t24.5 -91.5q0 -63 -48 -105q-42 -36 -103 -36z" />
    <glyph glyph-name="uni06BE.medi" unicode="&#xfeec;&#xfe8c;&#xfe8c;&#xfe8c;" horiz-adv-x="672" arabic-form="medial" 
d="M677 129l7 -64l-7 -65q-65 0 -113 2t-90 11l94 117q29 -1 109 -1zM-3 129h14q161 0 237 25.5t85 80.5l1 12q0 38 -24.5 67.5t-60.5 29.5q-21 0 -42.5 -13.5t-35 -35t-13.5 -45.5q0 -36 44 -67.5t108 -50.5t120 -19q45 0 72.5 13.5t27.5 41.5q0 51 -112.5 109.5
t-327.5 117.5l46 120q191 -60 298.5 -114t150 -104.5t42.5 -108.5q0 -36 -15 -84q-17 -51 -69 -76.5t-125 -25.5q-81 0 -164.5 29.5t-138 82.5t-54.5 118q0 9 2 25q10 57 39 104.5t69 75.5t84 28q45 0 83 -30t60.5 -78.5t22.5 -101.5q0 -17 -3 -34q-13 -82 -59.5 -130.5
t-131 -69.5t-216.5 -21h-14v129z" />
    <glyph glyph-name="uni06D2.fina" unicode="&#xfbfd;&#x621;&#x621;" horiz-adv-x="437" arabic-form="final" 
d="M54 -138q0 72 43 133.5t119 97.5t168 36h57l7 -64l-7 -65h-57q-67 0 -119 -18.5t-81.5 -42.5t-32.5 -37q28 -11 88.5 -18.5t147.5 -7.5q170 0 327 6l-45 -129q-110 -6 -282 -6q-133 0 -210 15t-117 47q-6 27 -6 53z" />
    <glyph glyph-name="uni06D3.fina" unicode="&#xfe8a;&#x621;&#x621;" horiz-adv-x="437" arabic-form="final" 
d="M54 -138q0 72 43 133.5t119 97.5t168 36h57l7 -64l-7 -65h-57q-67 0 -119 -18.5t-81.5 -42.5t-32.5 -37q28 -11 88.5 -18.5t147.5 -7.5q170 0 327 6l-45 -129q-110 -6 -282 -6q-133 0 -210 15t-117 47q-6 27 -6 53zM161.5 233q-30.5 28 -30.5 68q0 33 21 62t52 36
q14 3 26 3q26 0 69 -13l-15 -61q-31 11 -52 11q-25 0 -39.5 -14.5t-10.5 -31.5q3 -12 16.5 -22.5t35.5 -10.5q8 0 13 1l-11 -61q-44 5 -74.5 33zM100 218l217 67v-62l-217 -67v62z" />
    <glyph glyph-name="uni06440622" unicode="&#xfedf;&#xfe82;" horiz-adv-x="574" arabic-form="isolated" 
d="M522 518q8 -95 8 -189v-40q-2 -101 -61 -170.5t-155.5 -106t-213.5 -42.5l-32 122q160 13 257 56.5t97 139.5q0 101 -8 194t-24 219l110 25q14 -113 22 -208zM231 401q32 -112 32 -197q0 -53 -14 -95l-95 -17q13 29 13 73q0 135 -121 410l93 63q60 -125 92 -237z
M51 746.5q26 24.5 56 26.5q19 2 34.5 -2t37.5 -14q30 -15 51 -15q18 0 36 10.5t29 28.5l41 -36q-21 -32 -49 -49.5t-57 -17.5q-17 0 -30.5 4t-34.5 13q-12 5 -24.5 9.5t-23.5 4.5q-20 0 -37 -14t-27 -39l-45 25q17 41 43 65.5z" />
    <glyph glyph-name="uni06440622.fina" unicode="&#xfee0;&#xfe82;" horiz-adv-x="644" arabic-form="final" 
d="M452 248q-1 29 7 51t21 34.5t25 12.5q11 0 18 -9.5t7 -28.5q1 -67 10 -105.5t32 -56t66 -17.5h11v-129h-12q-178 0 -185 248zM522 518q8 -95 8 -189v-40q-2 -101 -61 -170.5t-155.5 -106t-213.5 -42.5l-32 122q160 13 257 56.5t97 139.5q0 101 -8 194t-24 219l110 25
q14 -113 22 -208zM231 401q32 -112 32 -197q0 -53 -14 -95l-95 -17q13 29 13 73q0 135 -121 410l93 63q60 -125 92 -237zM51 746.5q26 24.5 56 26.5q19 2 34.5 -2t37.5 -14q30 -15 51 -15q18 0 36 10.5t29 28.5l41 -36q-21 -32 -49 -49.5t-57 -17.5q-17 0 -30.5 4t-34.5 13
q-12 5 -24.5 9.5t-23.5 4.5q-20 0 -37 -14t-27 -39l-45 25q17 41 43 65.5z" />
    <glyph glyph-name="uni06440623" unicode="&#xfedf;&#xfe84;" horiz-adv-x="575" arabic-form="isolated" 
d="M522 518q8 -95 8 -189v-40q-2 -101 -61 -170.5t-155.5 -106t-213.5 -42.5l-32 122q160 13 257 56.5t97 139.5q0 101 -8 194t-24 219l110 25q14 -113 22 -208zM231 401q32 -112 32 -197q0 -53 -14 -95l-95 -17q13 29 13 73q0 135 -121 410l93 63q60 -125 92 -237z
M75.5 718q-30.5 28 -30.5 68q0 33 21 62t52 36q14 3 26 3q26 0 69 -13l-15 -61q-31 11 -52 11q-25 0 -39.5 -14.5t-10.5 -31.5q3 -12 16.5 -22.5t35.5 -10.5q8 0 13 1l-11 -61q-44 5 -74.5 33zM14 703l217 67v-62l-217 -67v62z" />
    <glyph glyph-name="uni06440623.fina" unicode="&#xfee0;&#xfe84;" horiz-adv-x="644" arabic-form="final" 
d="M452 248q-1 29 7 51t21 34.5t25 12.5q11 0 18 -9.5t7 -28.5q1 -67 10 -105.5t32 -56t66 -17.5h11v-129h-12q-178 0 -185 248zM522 518q8 -95 8 -189v-40q-2 -101 -61 -170.5t-155.5 -106t-213.5 -42.5l-32 122q160 13 257 56.5t97 139.5q0 101 -8 194t-24 219l110 25
q14 -113 22 -208zM231 401q32 -112 32 -197q0 -53 -14 -95l-95 -17q13 29 13 73q0 135 -121 410l93 63q60 -125 92 -237zM75.5 718q-30.5 28 -30.5 68q0 33 21 62t52 36q14 3 26 3q26 0 69 -13l-15 -61q-31 11 -52 11q-25 0 -39.5 -14.5t-10.5 -31.5q3 -12 16.5 -22.5
t35.5 -10.5q8 0 13 1l-11 -61q-44 5 -74.5 33zM14 703l217 67v-62l-217 -67v62z" />
    <glyph glyph-name="uni06440625" unicode="&#xfedf;&#xfe88;" horiz-adv-x="574" arabic-form="isolated" 
d="M522 518q8 -95 8 -189v-40q-2 -101 -61 -170.5t-155.5 -106t-213.5 -42.5l-32 122q160 13 257 56.5t97 139.5q0 101 -8 194t-24 219l110 25q14 -113 22 -208zM231 401q32 -112 32 -197q0 -53 -14 -95l-95 -17q13 29 13 73q0 135 -121 410l93 63q60 -125 92 -237z
M109.5 -244q-30.5 28 -30.5 68q0 33 21 62t52 36q14 3 26 3q26 0 69 -13l-15 -61q-31 11 -52 11q-25 0 -39.5 -14.5t-10.5 -31.5q3 -12 16.5 -22.5t35.5 -10.5q8 0 13 1l-11 -61q-44 5 -74.5 33zM48 -259l217 67v-62l-217 -67v62z" />
    <glyph glyph-name="uni06440625.fina" unicode="&#xfee0;&#xfe88;" horiz-adv-x="644" arabic-form="final" 
d="M452 248q-1 29 7 51t21 34.5t25 12.5q11 0 18 -9.5t7 -28.5q1 -67 10 -105.5t32 -56t66 -17.5h11v-129h-12q-178 0 -185 248zM522 518q8 -95 8 -189v-40q-2 -101 -61 -170.5t-155.5 -106t-213.5 -42.5l-32 122q160 13 257 56.5t97 139.5q0 101 -8 194t-24 219l110 25
q14 -113 22 -208zM231 401q32 -112 32 -197q0 -53 -14 -95l-95 -17q13 29 13 73q0 135 -121 410l93 63q60 -125 92 -237zM109.5 -242q-30.5 28 -30.5 68q0 33 21 62t52 36q14 3 26 3q26 0 69 -13l-15 -61q-31 11 -52 11q-25 0 -39.5 -14.5t-10.5 -31.5q3 -12 16.5 -22.5
t35.5 -10.5q8 0 13 1l-11 -61q-44 5 -74.5 33zM48 -257l217 67v-62l-217 -67v62z" />
    <glyph glyph-name="uni06440627" unicode="&#xfedf;&#xfe8e;" horiz-adv-x="574" arabic-form="isolated" 
d="M522 518q8 -95 8 -189v-40q-2 -101 -61 -170.5t-155.5 -106t-213.5 -42.5l-32 122q160 13 257 56.5t97 139.5q0 101 -8 194t-24 219l110 25q14 -113 22 -208zM231 401q32 -112 32 -197q0 -53 -14 -95l-95 -17q13 29 13 73q0 135 -121 410l93 63q60 -125 92 -237z" />
    <glyph glyph-name="uni06440627.fina" unicode="&#xfee0;&#xfe8e;" horiz-adv-x="644" arabic-form="final" 
d="M452 248q-1 29 7 51t21 34.5t25 12.5q11 0 18 -9.5t7 -28.5q1 -67 10 -105.5t32 -56t66 -17.5h11v-129h-12q-178 0 -185 248zM522 518q8 -95 8 -189v-40q-2 -101 -61 -170.5t-155.5 -106t-213.5 -42.5l-32 122q160 13 257 56.5t97 139.5q0 101 -8 194t-24 219l110 25
q14 -113 22 -208zM231 401q32 -112 32 -197q0 -53 -14 -95l-95 -17q13 29 13 73q0 135 -121 410l93 63q60 -125 92 -237z" />
    <glyph glyph-name="uni06AA.001" unicode="&#x6af;&#x621;&#x621;" horiz-adv-x="1232" 
d="M423 118h9q495 0 666 27q3 37 -22 57t-95 28.5t-211 8.5q-169 0 -258 10.5t-129 38.5q-5 28 -5 50q0 81 49.5 150.5t133.5 116t184 61.5l24 -115q-79 -13 -142.5 -41.5t-104.5 -63.5t-55 -67q41 -12 124 -17t277 -5q160 0 237.5 -44t77.5 -136q0 -54 -19 -85.5
t-56.5 -47.5t-99.5 -26q-93 -15 -224 -22t-352 -7h-9v129zM156 41q-101 53 -110 150q-1 8 -1 24q0 43 11 91t28 86l87 -43q-30 -91 -26 -135q8 -43 82 -69.5t207 -26.5q2 -42 2 -64q0 -21 -2 -65q-177 -1 -278 52zM480.5 684q75.5 50 153.5 68l10 -56q-70 -17 -139 -62
t-109 -102l-24 49q33 53 108.5 103z" />
    <glyph glyph-name="uni06AA.fina" unicode="&#xfb8f;&#x621;&#x621;" horiz-adv-x="1246" 
d="M1173 21.5q-30 21.5 -46.5 56.5t-16.5 72q0 4 15.5 12.5t31.5 15t16 4.5q4 -30 19.5 -41.5t49.5 -11.5h11v-129h-11q-39 0 -69 21.5zM423 118h9q495 0 666 27q3 37 -22 57t-95 28.5t-211 8.5q-169 0 -258 10.5t-129 38.5q-5 28 -5 50q0 81 49.5 150.5t133.5 116t184 61.5
l24 -115q-79 -13 -142.5 -41.5t-104.5 -63.5t-55 -67q41 -12 124 -17t277 -5q160 0 237.5 -44t77.5 -136q0 -54 -19 -85.5t-56.5 -47.5t-99.5 -26q-93 -15 -224 -22t-352 -7h-9v129zM156 41q-101 53 -110 150q-1 8 -1 24q0 43 11 91t28 86l87 -43q-30 -91 -26 -135
q8 -43 82 -69.5t207 -26.5q2 -42 2 -64q0 -21 -2 -65q-177 -1 -278 52z" />
    <glyph glyph-name="uni06AA.fina.001" unicode="&#xfb93;&#x621;&#x621;" horiz-adv-x="1247" 
d="M1173 21.5q-30 21.5 -46.5 56.5t-16.5 72q0 4 15.5 12.5t31.5 15t16 4.5q4 -30 19.5 -41.5t49.5 -11.5h11v-129h-11q-39 0 -69 21.5zM423 118h9q495 0 666 27q3 37 -22 57t-95 28.5t-211 8.5q-169 0 -258 10.5t-129 38.5q-5 28 -5 50q0 81 49.5 150.5t133.5 116t184 61.5
l24 -115q-79 -13 -142.5 -41.5t-104.5 -63.5t-55 -67q41 -12 124 -17t277 -5q160 0 237.5 -44t77.5 -136q0 -54 -19 -85.5t-56.5 -47.5t-99.5 -26q-93 -15 -224 -22t-352 -7h-9v129zM156 41q-101 53 -110 150q-1 8 -1 24q0 43 11 91t28 86l87 -43q-30 -91 -26 -135
q8 -43 82 -69.5t207 -26.5q2 -42 2 -64q0 -21 -2 -65q-177 -1 -278 52zM480.5 677.5q75.5 50.5 153.5 68.5l10 -56q-71 -17 -139.5 -62.5t-108.5 -102.5l-24 50q33 52 108.5 102.5z" />
    <glyph glyph-name="uni06AA.medi" unicode="&#xfb91;&#xfe8c;&#xfe8c;" horiz-adv-x="917" 
d="M844.5 22q-30.5 22 -47.5 56.5t-16 71.5q0 4 15 12.5t31 14.5t16 4q4 -29 19.5 -40.5t49.5 -11.5h10v-129h-10q-37 0 -67.5 22zM-5 129h28q221 0 437.5 4.5t311.5 12.5q3 37 -22 57t-95 28.5t-211 8.5q-169 0 -257.5 10.5t-129.5 38.5q-5 28 -5 50q0 81 49.5 151
t133.5 116.5t184 60.5l24 -115q-79 -13 -142.5 -41.5t-104 -63.5t-55.5 -67q41 -12 123 -16.5t278 -4.5q160 0 237.5 -44t77.5 -137q0 -80 -42.5 -117t-132.5 -42q-112 -7 -290.5 -13t-368.5 -6h-28v129z" />
    <glyph glyph-name="uni06AA.medi.001" unicode="&#xfb95;&#xfe8c;&#xfe8c;" horiz-adv-x="917" 
d="M844.5 22q-30.5 22 -47.5 56.5t-16 71.5q0 4 15 12.5t31 14.5t16 4q4 -29 19.5 -40.5t49.5 -11.5h10v-129h-10q-37 0 -67.5 22zM-5 129h28q221 0 437.5 4.5t311.5 12.5q3 37 -22 57t-95 28.5t-211 8.5q-169 0 -257.5 10.5t-129.5 38.5q-5 28 -5 50q0 81 49.5 151
t133.5 116.5t184 60.5l24 -115q-79 -13 -142.5 -41.5t-104 -63.5t-55.5 -67q41 -12 123 -16.5t278 -4.5q160 0 237.5 -44t77.5 -137q0 -80 -42.5 -117t-132.5 -42q-112 -7 -290.5 -13t-368.5 -6h-28v129zM149.5 677q75.5 50 153.5 68l11 -56q-71 -17 -139.5 -62t-108.5 -102
l-24 49q32 53 107.5 103z" />
    <glyph glyph-name="uni06AA.init" unicode="&#xfb90;&#xfe8c;&#xfe8c;" horiz-adv-x="907" 
d="M-5 129h28q221 0 437.5 4.5t311.5 12.5q3 37 -22 57t-95 28.5t-211 8.5q-169 0 -257.5 10.5t-129.5 38.5q-5 28 -5 50q0 81 49.5 151t133.5 116.5t184 60.5l24 -115q-79 -13 -142.5 -41.5t-104 -63.5t-55.5 -67q41 -12 123 -16.5t278 -4.5q160 0 237.5 -44t77.5 -137
q0 -80 -42.5 -117t-132.5 -42q-112 -7 -290.5 -13t-368.5 -6h-28v129z" />
    <glyph glyph-name="uni06AA.init.001" unicode="&#xfb94;&#xfe8c;&#xfe8c;" horiz-adv-x="907" 
d="M-5 129h28q221 0 437.5 4.5t311.5 12.5q3 37 -22 57t-95 28.5t-211 8.5q-169 0 -257.5 10.5t-129.5 38.5q-5 28 -5 50q0 81 49.5 151t133.5 116.5t184 60.5l24 -115q-79 -13 -142.5 -41.5t-104 -63.5t-55.5 -67q41 -12 123 -16.5t278 -4.5q160 0 237.5 -44t77.5 -137
q0 -80 -42.5 -117t-132.5 -42q-112 -7 -290.5 -13t-368.5 -6h-28v129zM149.5 677q75.5 50 153.5 68l11 -56q-71 -17 -139.5 -62t-108.5 -102l-24 49q32 53 107.5 103z" />
    <glyph glyph-name="uni0647.fina.alt" unicode="&#xfeea;&#x621;&#x621;&#x621;" horiz-adv-x="662" 
d="M434.5 21q-84.5 21 -131 69.5t-59.5 130.5q-2 11 -2 34q0 53 22.5 101.5t60.5 78.5t82 30t84 -28t69 -75.5t39 -104.5q2 -16 2 -25q0 -65 -54.5 -118t-137.5 -83t-165 -30q-73 0 -125 25.5t-69 77.5q-15 48 -15 84q0 58 42.5 108.5t150 104.5t298.5 114l46 -120
q-215 -59 -327.5 -117.5t-112.5 -109.5q0 -7 3 -15q6 -20 32 -30t64 -10q56 0 120.5 19t108.5 50.5t44 67.5q0 24 -13.5 45.5t-35 35t-42.5 13.5q-26 0 -46.5 -16t-30.5 -41.5t-7 -51.5q9 -55 85 -80.5t237 -25.5h14v-129h-14q-132 0 -216.5 21z" />
    <glyph glyph-name="uni0647.medi.alt" unicode="&#xfeec;&#xfe8c;&#xfe8c;" horiz-adv-x="474" 
d="M189 -220.5q-61 37.5 -99.5 110t-38.5 176.5q0 77 18.5 158t45.5 143t51 88l74 20q68 -38 109.5 -102.5t41.5 -136.5q0 -115 -98.5 -175.5t-268.5 -60.5h-28v129h28q87 0 148.5 14.5t92.5 40t31 57.5q0 27 -20.5 57t-56.5 53q-29 -43 -50.5 -121t-21.5 -156
q0 -72 31.5 -123.5t79.5 -73.5q-6 25 -6 50q0 56 27.5 102t74 73t102.5 27h23l7 -64l-7 -65h-23q-45 0 -73 -25.5t-28 -63.5q0 -35 23 -69l-58 -105q-70 5 -131 42.5z" />
    <glyph glyph-name="uni0647.init.alt" unicode="&#xfeeb;&#xfe8c;&#xfe8c;" horiz-adv-x="464" 
d="M218.5 158.5q71.5 29.5 71.5 82.5q0 31 -25 63t-58 51q-25 -55 -44.5 -136t-19.5 -158q0 -59 16 -104.5t44 -70.5t63 -25q26 0 41.5 13.5t11.5 36.5q-6 40 -49 71.5t-116 40.5l9 97q107 -18 180 -74.5t73 -148.5q0 -43 -20 -77.5t-54.5 -54.5t-75.5 -20q-60 0 -110 38
t-79 109t-29 166q0 20 1 31q5 104 34.5 196t62.5 151l94 41q62 -39 102.5 -100t40.5 -132q0 -76 -45 -131t-130.5 -84.5t-205.5 -29.5h-7v129h6q146 0 217.5 29.5z" />
    <glyph glyph-name="uni06D2.fina.alt2" unicode="&#xfbfd;&#x621;&#x621;&#x621;&#x621;&#x621;" horiz-adv-x="397" 
d="M51 -138q0 72 43 133.5t119 97.5t168 36h22l7 -64l-7 -65h-22q-67 0 -119 -18.5t-81.5 -42.5t-32.5 -37q10 -7 58.5 -16.5t129.5 -9.5q110 0 242 2l-46 -129q-85 -2 -196 -2q-126 0 -188 15.5t-91 46.5q-6 27 -6 53z" />
    <glyph glyph-name="uni06D2.fina.alt3" unicode="&#xfbfd;&#x621;&#x621;&#x621;&#x621;" horiz-adv-x="437" 
d="M54 -138q0 72 43 133.5t119 97.5t168 36h57l7 -64l-7 -65h-57q-67 0 -119 -18.5t-81.5 -42.5t-32.5 -37q28 -11 88.5 -18.5t147.5 -7.5q170 0 327 6l-45 -129q-110 -6 -282 -6q-133 0 -210 15t-117 47q-6 27 -6 53z" />
    <glyph glyph-name="uni06D2.fina.alt4" unicode="&#xfbfd;&#x621;&#x621;&#x621;" horiz-adv-x="414" 
d="M40 -137q0 72 43 133t118.5 97t167.5 36h52l7 -64l-7 -65h-52q-67 0 -118.5 -18.5t-81 -42t-33.5 -37.5q39 -11 112 -18.5t171 -7.5q170 0 381 8l-45 -129q-164 -8 -336 -8q-161 0 -247 15t-126 47q-6 27 -6 54z" />
    <glyph glyph-name="uni06440671" unicode="&#xfedf;&#xfb51;" horiz-adv-x="574" 
d="M522 518q8 -95 8 -189v-40q-2 -101 -61 -170.5t-155.5 -106t-213.5 -42.5l-32 122q160 13 257 56.5t97 139.5q0 101 -8 194t-24 219l110 25q14 -113 22 -208zM231 401q32 -112 32 -197q0 -53 -14 -95l-95 -17q13 29 13 73q0 135 -121 410l93 63q60 -125 92 -237zM46 727
q22 17 48 17q19 0 58 -14q44 -14 67 -14q7 0 19 2q28 4 44 16t16 25q0 10 -12 17t-28 7q-28 0 -56 -23t-48 -64l-41 24q26 56 66 89.5t83 33.5q34 0 57.5 -24t23.5 -59q0 -36 -27 -64t-69 -36q-16 -3 -31 -3q-32 0 -79 15q-21 7 -30 8.5t-19 0.5q-14 -1 -24.5 -10t-14.5 -16
l-41 27q16 28 38 45z" />
    <glyph glyph-name="uni06440671.fina" unicode="&#xfee0;&#xfb51;" horiz-adv-x="644" 
d="M452 248q-1 29 7 51t21 34.5t25 12.5q11 0 18 -9.5t7 -28.5q1 -67 10 -105.5t32 -56t66 -17.5h11v-129h-12q-178 0 -185 248zM522 518q8 -95 8 -189v-40q-2 -101 -61 -170.5t-155.5 -106t-213.5 -42.5l-32 122q160 13 257 56.5t97 139.5q0 101 -8 194t-24 219l110 25
q14 -113 22 -208zM231 401q32 -112 32 -197q0 -53 -14 -95l-95 -17q13 29 13 73q0 135 -121 410l93 63q60 -125 92 -237zM41 727q22 17 48 17q19 0 58 -14q44 -14 67 -14q7 0 19 2q28 4 44 16t16 25q0 10 -12 17t-28 7q-28 0 -56 -23t-48 -64l-41 24q26 56 66 89.5t83 33.5
q34 0 57.5 -24t23.5 -59q0 -36 -27 -64t-69 -36q-16 -3 -31 -3q-32 0 -79 15q-21 7 -30 8.5t-19 0.5q-14 -1 -24.5 -10t-14.5 -16l-41 27q16 28 38 45z" />
    <glyph glyph-name="uni06A90644" unicode="&#xfb90;&#xfede;" horiz-adv-x="1129" 
d="M613.5 66.5q-49.5 66.5 -51.5 176.5l63 14q5 -66 36 -97t98 -31q71 0 108.5 14.5t53.5 42.5q-1 53 -55 132.5t-154 166.5l12 115l369 157l36 -104l-297 -127q34 -30 78.5 -86.5t77.5 -124t33 -125.5q0 -18 -5 -40q-21 -75 -90 -112.5t-167 -37.5q-96 0 -145.5 66.5z
M182.5 -225q-65.5 32 -104 91t-38.5 138q0 57 20 126t48 126l87 -41q-26 -58 -40 -102.5t-14 -88.5q0 -68 51 -110t135 -42q214 0 207 221q-6 191 -17 357t-22 251l109 25q16 -134 30 -628q4 -167 -77 -261t-230 -94q-79 0 -144.5 32z" />
    <glyph glyph-name="uni06A90644.fina" unicode="&#xfb91;&#xfede;" horiz-adv-x="1200" 
d="M613.5 66.5q-49.5 66.5 -51.5 176.5l63 14q5 -66 36 -97t98 -31q71 0 108.5 14.5t53.5 42.5q-1 53 -55 132.5t-154 166.5l12 115l369 157l36 -104l-297 -127q34 -29 79 -85.5t78 -123.5t33 -124q0 -22 -6 -43q-22 -75 -90.5 -112.5t-166.5 -37.5q-96 0 -145.5 66.5z
M1101.5 28.5q-41.5 28.5 -83.5 85t-103 158.5l57 78q71 -121 119.5 -171t100.5 -50h16l7 -64l-7 -65h-16q-49 0 -90.5 28.5zM182.5 -225q-65.5 32 -104 91t-38.5 138q0 57 20 126t48 126l87 -41q-26 -58 -40 -102.5t-14 -88.5q0 -68 51 -110t135 -42q214 0 207 221
q-6 191 -17 357t-22 251l109 25q16 -134 30 -628q4 -167 -77 -261t-230 -94q-79 0 -144.5 32z" />
    <glyph glyph-name="uni06AF0644" unicode="&#xfb94;&#xfede;" horiz-adv-x="1129" 
d="M614 66q-49 66 -52 177l64 14q5 -67 35.5 -97.5t97.5 -30.5q132 0 162 57q-4 51 -55.5 122.5t-153.5 154.5l12 114l369 158l36 -104l-297 -128q36 -30 80 -81t77 -113t33 -117q0 -21 -6 -42q-22 -75 -90.5 -112.5t-166.5 -37.5q-96 0 -145 66zM182.5 -225
q-65.5 32 -104 91t-38.5 138q0 57 20 126t48 126l87 -41q-26 -58 -40 -102.5t-14 -88.5q0 -68 51 -110t135 -42q214 0 207 221q-6 191 -17 357t-22 251l109 25q16 -134 30 -628q4 -167 -77 -261t-230 -94q-79 0 -144.5 32zM731 691l322 134l16 -44l-344 -145z" />
    <glyph glyph-name="uni06AF0644.fina" unicode="&#xfb95;&#xfede;" horiz-adv-x="1201" 
d="M613.5 66.5q-49.5 66.5 -51.5 176.5l63 14q5 -66 36 -97t98 -31q132 0 162 57q-4 51 -55.5 122.5t-153.5 154.5l12 114l369 158l36 -104l-297 -128q36 -30 80 -81t77 -113t33 -117q0 -21 -6 -42q-22 -75 -90.5 -112.5t-166.5 -37.5q-96 0 -145.5 66.5zM182.5 -225
q-65.5 32 -104 91t-38.5 138q0 57 20 126t48 126l87 -41q-26 -58 -40 -102.5t-14 -88.5q0 -68 51 -110t135 -42q214 0 207 221q-6 191 -17 357t-22 251l109 25q16 -134 30 -628q4 -167 -77 -261t-230 -94q-79 0 -144.5 32zM1100.5 28.5q-42.5 28.5 -86 86t-103.5 157.5
l59 70q55 -87 90.5 -131.5t65.5 -63t67 -18.5h15l7 -64l-7 -65h-15q-50 0 -92.5 28.5zM731 691l322 134l16 -44l-344 -145z" />
    <glyph glyph-name="uni064406440647" unicode="&#xfedf;&#xfee0;&#x651;&#x670;&#xfeea;" horiz-adv-x="977" 
d="M623.5 53q-49.5 55 -59.5 136q-7 174 -19 314l105 23q12 -162 21 -344q4 -20 25 -37.5t57 -17.5q39 0 60 21.5t21 62.5q0 32 -13 171.5t-24 224.5l105 23q11 -88 22.5 -225.5t11.5 -184.5q0 -104 -49.5 -163t-129.5 -59q-84 0 -133.5 55zM231 47q-85 0 -139 40t-54 110
q0 85 72.5 145.5t193.5 97.5l18 -104q-76 -20 -133.5 -54.5t-57.5 -66.5q0 -22 27 -36t69 -14q52 0 104 21l25 -118q-66 -21 -125 -21zM302 183q-24 184 -38 305l104 22q3 -43 28 -271q6 -60 22.5 -86.5t61.5 -26.5q39 0 61.5 19.5t22.5 46.5l91 -69q-23 -61 -67.5 -94
t-104.5 -33q-154 0 -181 187zM504 669q0 -12 7.5 -19t19.5 -7q20 0 31.5 17.5t8.5 55.5l43 8q8 -73 45 -73q14 0 21.5 8t7.5 20q0 9 -10 31.5t-19 35.5l43 27q18 -31 27 -51t9 -43q0 -38 -20.5 -63t-57.5 -25q-31 0 -55 22.5t-27 71.5l33 2q2 -45 -21.5 -74t-57.5 -29
q-36 0 -56 22t-20 54q0 17 4.5 34.5t10.5 30.5l43 -16q-10 -23 -10 -40zM624 844q0 -26 -2 -72l-51 2q2 22 2 70q0 50 -3 87l50 4q4 -33 4 -91z" />
    <glyph glyph-name="uniFDF2" unicode="&#x627;&#xfedf;&#xfee0;&#xfeea;" horiz-adv-x="1176" 
d="M623.5 53q-49.5 55 -59.5 136q-7 174 -19 314l105 23q12 -162 21 -344q4 -20 25 -37.5t57 -17.5q39 0 60 21.5t21 62.5q0 32 -13 171.5t-24 224.5l105 23q11 -88 22.5 -225.5t11.5 -184.5q0 -104 -49.5 -163t-129.5 -59q-84 0 -133.5 55zM231 47q-85 0 -139 40t-54 110
q0 85 72.5 145.5t193.5 97.5l18 -104q-76 -20 -133.5 -54.5t-57.5 -66.5q0 -22 27 -36t69 -14q52 0 104 21l25 -118q-66 -21 -125 -21zM302 183q-24 184 -38 305l104 22q3 -43 28 -271q6 -60 22.5 -86.5t61.5 -26.5q39 0 61.5 19.5t22.5 46.5l91 -69q-23 -61 -67.5 -94
t-104.5 -33q-154 0 -181 187zM504 669q0 -12 7.5 -19t19.5 -7q20 0 31.5 17.5t8.5 55.5l43 8q8 -73 45 -73q14 0 21.5 8t7.5 20q0 9 -10 31.5t-19 35.5l43 27q18 -31 27 -51t9 -43q0 -38 -20.5 -63t-57.5 -25q-31 0 -55 22.5t-27 71.5l33 2q2 -45 -21.5 -74t-57.5 -29
q-36 0 -56 22t-20 54q0 17 4.5 34.5t10.5 30.5l43 -16q-10 -23 -10 -40zM624 844q0 -26 -2 -72l-51 2q2 22 2 70q0 50 -3 87l50 4q4 -33 4 -91zM1020 211q0 137 -7.5 287t-16.5 205l110 25q8 -54 15 -199.5t7 -284.5q0 -165 -11 -248l-105 12q8 60 8 203z" />
    <glyph glyph-name="uniFDFC.001" unicode="&#x631;&#xfbfe;&#xfe8e;&#x644;&#x621;" horiz-adv-x="1443" 
d="M1171 -40q56 29 89.5 62t37.5 62q1 5 1 21q0 57 -22 229l104 23q18 -91 18 -194q0 -53 -6 -94q-13 -96 -96.5 -166t-213.5 -101l-35 113q67 16 123 45zM738 -240q-62 0 -120 8l21 100q16 -1 50 -1q69 0 146 8t130 21l31 -110q-125 -26 -258 -26zM726 711q31 0 48.5 -21.5
t18.5 -61.5q4 -81 7 -153.5t5 -126.5q1 -36 2 -61t2 -41q2 -58 9 -84.5t27.5 -38.5t65.5 -12q84 0 124 16.5t46 48.5q-1 39 -20 95.5t-34 89.5l94 52q19 -42 39 -112.5t20 -121.5q0 -99 -66.5 -148t-209.5 -49q-76 0 -118 27t-59.5 80t-20.5 142q-7 263 -12 368l-105 -25
l2 -43q4 -91 16 -419q4 -171 -67.5 -260.5t-212.5 -89.5q-77 0 -140 31.5t-100 90t-37 136.5q0 102 67 247l87 -41q-26 -54 -40 -100.5t-14 -90.5q0 -68 47 -106t131 -38q97 0 141 51t40 164q-11 286 -28 451l70 117l147 33q13 4 28 4z" />
    <glyph glyph-name="uniFDFC.002" unicode="&#x631;&#xfbfe;&#xfe8e;&#x644;&#x621;&#x621;" horiz-adv-x="1337" 
d="M1133.5 139q56.5 40 56.5 92q0 36 -15.5 114t-32.5 141l101 39q19 -66 31 -142t12 -133q0 -117 -71 -187t-212 -109l-34 113q108 32 164.5 72zM645 -91q-62 0 -119 6l22 101q15 -1 48 -1q71 0 148.5 9t128.5 21l26 -111q-112 -25 -254 -25zM631 804q32 0 51.5 -22
t21.5 -63l16 -333q2 -58 8.5 -84.5t27 -38t65.5 -11.5q76 0 112.5 16t40.5 48q-4 34 -15 74t-20 63l94 44q12 -28 24.5 -78t15.5 -100q4 -97 -61.5 -146.5t-197.5 -49.5q-76 0 -118 27t-59.5 80t-19.5 141l-2 69q-4 168 -10 254l-106 -26l2 -36q12 -172 21 -391
q4 -136 -43.5 -208t-158.5 -72q-142 0 -206 49t-64 148q0 51 20.5 123t39.5 111l91 -50q-15 -32 -32.5 -89.5t-19.5 -97.5q6 -31 46.5 -47.5t124.5 -16.5q60 0 82.5 22t22.5 80q0 21 -1 33q-13 215 -31 425l70 117l142 33q14 3 26 3z" />
    <glyph glyph-name="tomaan" unicode="&#xfe97;&#xfeee;&#xfee3;&#xfe8e;&#x646;&#x621;" horiz-adv-x="2345" 
d="M163 301q-15 -46 -15 -93q0 -87 54.5 -132t154.5 -45q73 0 126 26.5t81 68t28 84.5q0 69 -79 309l68 133l184 59q24 8 40 8q31 0 49 -21.5t20 -56.5q3 -55 7 -213l6 -164q2 -56 9.5 -83.5t28 -39.5t62.5 -12l-1 -129q-76 0 -119 27t-61.5 80.5t-20.5 141.5l-1 77
q-1 70 -3 144t-7 129l-163 -50q29 -91 51.5 -178.5t22.5 -157.5q0 -84 -42.5 -155.5t-117.5 -113.5t-168 -42q-98 0 -169.5 39.5t-107 110t-30.5 160.5q3 57 23 119t45 114l87 -40q-27 -58 -42 -104zM1298 137.5q51 -24.5 77 -24.5q10 0 14 3q13 7 19.5 23t6.5 36
q0 27 -11 55t-30.5 46t-45.5 18q-30 0 -60.5 -39t-67.5 -125q-28 -65 -79 -97.5t-117 -32.5h-18v129h21q81 0 131 93q51 94 94.5 141t98.5 47q51 0 90 -34t59.5 -87.5t20.5 -111.5q0 -55 -20 -101t-59 -69q-21 -12 -50 -12q-85 0 -236 102l50 108q61 -43 112 -67.5z
M1784 -78q87 45 87 130q0 60 -15 117.5t-43 94.5t-65 37q-21 0 -40 -17t-30 -42.5t-11 -47.5q0 -14 6 -25q16 -25 71 -33t146 -8l112 1v-129l-121 -1q-118 0 -190.5 18.5t-101.5 76.5q-17 37 -17 80q0 57 25.5 114t68 94t91.5 37q60 0 107 -52t73 -133.5t26 -168.5
q0 -138 -102.5 -219t-291.5 -88l-39 113q167 6 254 51zM2143.5 145q46.5 16 52.5 49q-1 39 -20 95.5t-34 89.5l94 51q19 -42 39 -112.5t20 -121.5q0 -98 -71 -147t-222 -49v129q95 0 141.5 16zM2020 637q84 9 161 9q22 0 62 -2l-22 -109q-36 2 -58 2q-67 0 -141.5 -7.5
t-126.5 -18.5l-20 102q61 15 145 24zM423 568l4 -118l-116 -11l-19 115z" />
    <glyph glyph-name="tomaan.001" unicode="&#xfe97;&#xfeee;&#xfee3;&#xfe8e;&#x646;&#x621;&#x621;" horiz-adv-x="1924" 
d="M164 301q-15 -46 -15 -93q0 -87 54.5 -132t154.5 -45q73 0 126 26.5t81 68t28 84.5q0 69 -79 309l68 133l207 58q18 5 31 5q31 0 49 -21.5t20 -59.5q5 -114 13 -370q2 -56 9.5 -83.5t28 -39.5t62.5 -12l-1 -129q-76 0 -119 27t-61 80.5t-20 141.5l-2 102q-2 157 -9 248
l-178 -50q29 -89 51.5 -175.5t22.5 -157.5q0 -85 -42 -157t-117 -114.5t-169 -42.5q-98 0 -169.5 39.5t-107 110t-30.5 160.5q3 57 23 119t45 114l87 -40q-27 -58 -42 -104zM1439 0q-37 0 -55 1q-69 3 -119.5 21t-84.5 54q-30 -38 -72 -57t-92 -19h-18v129h21q81 0 131 93
q37 67 61.5 105t55 62.5t66.5 24.5q59 0 103.5 -43t70 -108.5t33.5 -133.5h43v-129h-46q-22 -109 -121.5 -172t-265.5 -70l-39 113q276 12 328 129zM1377 130h59q2 34 -9.5 73.5t-34.5 66.5t-56 27q-28 0 -51 -29.5t-48 -85.5q46 -49 140 -52zM1721.5 144.5
q48.5 15.5 58.5 46.5q-3 40 -24 104.5t-32 85.5l89 49q19 -41 39.5 -111.5t20.5 -122.5q0 -98 -71.5 -147t-222.5 -49v129q94 0 142.5 15.5zM1618.5 661q89.5 11 171.5 11q29 0 43 -1l-21 -105q-75 2 -169.5 -6.5t-155.5 -24.5l-21 98q63 17 152.5 28zM419 578l4 -117
l-116 -12l-19 115z" />
    <glyph glyph-name="tomaan.002" unicode="&#xfe97;&#xfeee;&#xfee3;&#xfe8e;&#x646;&#x621;&#x621;&#x621;" horiz-adv-x="1733" 
d="M1185.5 12.5q82.5 29.5 111.5 74.5q-33 0 -47 1q-124 3 -190 61q-56 -64 -145 -64q-84 1 -121.5 49.5t-42.5 160.5l-3 57q-3 90 -10 207l-162 -44q66 -164 66 -290q0 -81 -38 -150.5t-107.5 -111t-159.5 -41.5t-155 36t-98.5 98.5t-33.5 141.5q0 96 54 213l87 -44
q-20 -45 -30 -80.5t-10 -78.5q0 -73 45 -115t141 -42q64 0 112 25t73 63.5t25 78.5q0 90 -71 260l67 136l199 54q18 4 26 4q31 0 50 -22.5t21 -60.5q5 -83 9 -201l3 -81q2 -52 15.5 -72t50.5 -21q41 0 65 15.5t47 62.5q33 68 55 105t51 60.5t67 23.5q57 0 99 -40t66.5 -102
t32.5 -129q98 1 138 15t46 43q-2 56 -49 173l92 49q20 -46 38 -108.5t18 -110.5q0 -92 -67 -136.5t-220 -46.5q-25 -101 -123 -159.5t-243 -63.5l-44 114q117 4 199.5 33.5zM1272 315.5q-27 44.5 -66 44.5q-26 -1 -49.5 -30.5t-41.5 -74.5q48 -39 132 -41h58
q-6 57 -33 101.5zM260 538l127 13l4 -114l-113 -11zM1429 703.5q77 9.5 148 9.5q21 0 55 -2l-15 -106q-13 1 -42 1q-63 0 -134.5 -8t-122.5 -20l-23 101q57 15 134 24.5z" />
    <glyph glyph-name="tomaan.003" unicode="&#xfe97;&#xfeee;&#xfee3;&#xfee6;&#x621;" horiz-adv-x="1475" 
d="M928.5 10.5q80.5 30.5 110.5 75.5l-47 1q-123 3 -190 62q-54 -61 -145 -61l-81 1l36 123l47 -1q40 0 64.5 17t47.5 64q33 68 55 105t51 60.5t67 23.5q57 0 99 -40t66.5 -102t32.5 -129q98 1 138 15t46 43q-2 56 -49 173l92 49q20 -46 38 -108.5t18 -110.5
q0 -92 -67 -136.5t-220 -46.5q-25 -102 -121.5 -161.5t-240.5 -64.5l-44 114q116 4 196.5 34.5zM1014 315.5q-27 44.5 -66 44.5q-27 -1 -50.5 -31t-40.5 -75q47 -38 132 -40h58q-6 57 -33 101.5zM182 -42q-65 36 -98.5 98.5t-33.5 141.5q0 96 54 213l87 -44
q-20 -45 -30 -80.5t-10 -78.5q0 -73 45 -115t141 -42q65 0 114 24t74 62t22 77q-6 66 -45 210l94 38q42 -141 46 -248q3 -79 -35 -146t-109 -106.5t-161 -39.5t-155 36zM268 560l127 13l5 -115l-114 -11zM1164 694.5q77 9.5 147 9.5q21 0 55 -2l-15 -106q-14 1 -44 1
q-64 0 -135 -7.5t-120 -19.5l-22 101q57 14 134 23.5z" />
    <glyph glyph-name="uni0621" unicode="&#x621;" horiz-adv-x="425" arabic-form="isolated" 
d="M246 23q-44 0 -81.5 19.5t-59.5 54t-22 76.5q0 40 21 75.5t56.5 56.5t76.5 21q44 0 106 -24l-28 -83q-18 7 -40 12t-37 5q-31 0 -55 -19t-24 -44q0 -24 24.5 -44t60.5 -20q16 0 31 4l16 -84q-22 -6 -45 -6zM40 38l333 105l12 -89l-334 -106z" />
    <glyph glyph-name="uni0622" unicode="&#x622;" horiz-adv-x="268" arabic-form="isolated" 
d="M75 177q0 118 -7 247.5t-15 186.5l110 25q7 -56 13 -181.5t6 -246.5q0 -138 -8 -214l-106 12q7 59 7 171zM-17 765.5q26 24.5 56 26.5q19 2 34.5 -2t37.5 -14q30 -15 51 -15q18 0 36 10.5t29 28.5l41 -36q-21 -32 -49 -49.5t-57 -17.5q-17 0 -30.5 4t-34.5 13
q-12 5 -24.5 9.5t-23.5 4.5q-20 0 -37 -14t-27 -39l-45 25q17 41 43 65.5z" />
    <glyph glyph-name="uni0623" unicode="&#x623;" horiz-adv-x="246" arabic-form="isolated" 
d="M75 177q0 118 -7 247.5t-15 186.5l110 25q7 -56 13 -181.5t6 -246.5q0 -138 -8 -214l-106 12q7 59 7 171zM71.5 733q-30.5 28 -30.5 68q0 33 21 62t52 36q14 3 26 3q26 0 69 -13l-15 -61q-31 11 -52 11q-25 0 -39.5 -14.5t-10.5 -31.5q3 -12 16.5 -22.5t35.5 -10.5
q8 0 13 1l-11 -61q-44 5 -74.5 33zM10 718l217 67v-62l-217 -67v62z" />
    <glyph glyph-name="uni0624" unicode="&#x624;" horiz-adv-x="485" arabic-form="isolated" 
d="M276 -87q77 54 77 139q-1 60 -16.5 117.5t-44.5 94.5t-66 37q-21 0 -39.5 -16.5t-29.5 -41.5t-11 -47q0 -16 8 -29q15 -21 54.5 -32t89.5 -11q45 0 81 7v-121q-52 -13 -102 -13q-70 0 -126 24t-79 73q-17 35 -17 82q0 57 24 113.5t65.5 93t90.5 36.5q60 0 108 -52
t74.5 -134t26.5 -168q0 -135 -99 -228.5t-274 -126.5l-39 113q167 36 244 90zM154.5 542q-30.5 28 -30.5 68q0 33 21 62t52 36q14 3 26 3q26 0 69 -13l-15 -61q-31 11 -52 11q-25 0 -39.5 -14.5t-10.5 -31.5q3 -12 16.5 -22.5t35.5 -10.5q8 0 13 1l-11 -61q-44 5 -74.5 33z
M93 527l217 67v-62l-217 -67v62z" />
    <glyph glyph-name="uni0625" unicode="&#x625;" horiz-adv-x="244" arabic-form="isolated" 
d="M78 209q0 137 -7.5 287t-16.5 205l110 25q8 -54 15 -199.5t7 -284.5q0 -165 -11 -248l-105 12q8 60 8 203zM76.5 -222q-30.5 28 -30.5 68q0 33 21 62t52 36q14 3 26 3q26 0 69 -13l-15 -61q-31 11 -52 11q-25 0 -39.5 -14.5t-10.5 -31.5q3 -12 16.5 -22.5t35.5 -10.5
q8 0 13 1l-11 -61q-44 5 -74.5 33zM15 -237l217 67v-62l-217 -67v62z" />
    <glyph glyph-name="uni0626" unicode="&#x626;" horiz-adv-x="758" arabic-form="isolated" 
d="M190 -203q-70 34 -110 98.5t-40 154.5q0 61 21 132.5t48 123.5l87 -40q-26 -56 -40.5 -104t-14.5 -96q0 -86 53.5 -129.5t153.5 -43.5q88 0 153 33.5t89 80.5q1 3 -32 13.5t-84 25.5q-79 23 -111.5 52.5t-32.5 87.5q0 78 40 149t106 114.5t139 43.5q29 0 57.5 -8
t41.5 -19l-37 -113q-11 4 -30 7t-35 3q-42 0 -80.5 -19.5t-65 -51t-34.5 -65.5q-1 -4 -1 -11q0 -17 23 -30.5t88 -30.5q63 -16 96 -34t45 -38.5t12 -48.5q0 -68 -45.5 -130.5t-125 -101.5t-176.5 -39q-88 0 -158 34zM185.5 434q-30.5 28 -30.5 68q0 33 21 62t52 36
q14 3 26 3q26 0 69 -13l-15 -61q-31 11 -52 11q-25 0 -39.5 -14.5t-10.5 -31.5q3 -12 16.5 -22.5t35.5 -10.5q8 0 13 1l-11 -61q-44 5 -74.5 33zM124 419l217 67v-62l-217 -67v62z" />
    <glyph glyph-name="uni0627" unicode="&#x627;" horiz-adv-x="244" arabic-form="isolated" 
d="M78 209q0 137 -7.5 287t-16.5 205l110 25q8 -54 15 -199.5t7 -284.5q0 -165 -11 -248l-105 12q8 60 8 203z" />
    <glyph glyph-name="uni0628" unicode="&#x628;" horiz-adv-x="846" arabic-form="isolated" 
d="M418 54q0 43 1 64q92 0 157.5 11t99.5 26t36 26q-6 45 -26.5 106t-33.5 92l94 51q24 -54 43 -126.5t17 -121.5q-4 -94 -110.5 -143.5t-276.5 -49.5q-1 22 -1 65zM151 41q-101 53 -110 150q-1 8 -1 24q0 42 11 89.5t28 87.5l87 -43q-30 -91 -26 -135q8 -43 82 -69.5
t207 -26.5q2 -21 2 -64t-2 -65q-177 -1 -278 52zM422 -89l57 -57l28 -28l-85 -86l-85 86z" />
    <glyph glyph-name="uni0629" unicode="&#x629;" horiz-adv-x="462" arabic-form="isolated" 
d="M91.5 45q-49.5 49 -49.5 125q0 30 7 58q16 61 52 112.5t89 103.5l61 -80q-114 -96 -114 -167q0 -35 26 -54.5t76 -19.5q42 0 69 17t30 45q-5 52 -60 106.5t-170 124.5l65 99q129 -76 194.5 -155t65.5 -167q0 -57 -26.5 -102t-73 -70t-102.5 -25q-90 0 -139.5 49zM154 726
l80 -80l-53 -53l-27 -27l-27 27l-53 53zM331 726l80 -80l-53 -53l-27 -27l-27 27l-53 53z" />
    <glyph glyph-name="uni062A" unicode="&#x62a;" horiz-adv-x="846" arabic-form="isolated" 
d="M418 54q0 43 1 64q92 0 157.5 11t99.5 26t36 26q-6 45 -26.5 106t-33.5 92l94 51q24 -54 43 -126.5t17 -121.5q-4 -94 -110.5 -143.5t-276.5 -49.5q-1 22 -1 65zM151 41q-101 53 -110 150q-1 8 -1 24q0 42 11 89.5t28 87.5l87 -43q-30 -91 -26 -135q8 -43 82 -69.5
t207 -26.5q2 -21 2 -64t-2 -65q-177 -1 -278 52zM333 467l80 -80l-53 -53l-27 -27l-27 27l-53 53zM510 467l80 -80l-53 -53l-27 -27l-27 27l-53 53z" />
    <glyph glyph-name="uni062B" unicode="&#x62b;" horiz-adv-x="846" arabic-form="isolated" 
d="M418 54q0 43 1 64q92 0 157.5 11t99.5 26t36 26q-6 45 -26.5 106t-33.5 92l94 51q24 -54 43 -126.5t17 -121.5q-4 -94 -110.5 -143.5t-276.5 -49.5q-1 22 -1 65zM151 41q-101 53 -110 150q-1 8 -1 24q0 42 11 89.5t28 87.5l87 -43q-30 -91 -26 -135q8 -43 82 -69.5
t207 -26.5q2 -21 2 -64t-2 -65q-177 -1 -278 52zM306 452l25 25l76 -75l-51 -51l-25 -25l-19 19q-47 47 -56 57zM518 477l75 -75l-75 -76l-50 50l-26 26zM379 539l45 45l67 -67l-67 -68l-67 68z" />
    <glyph glyph-name="uni062C" unicode="&#x62c;" horiz-adv-x="711" arabic-form="isolated" 
d="M210 -345q-78 34 -123.5 97t-45.5 148q0 118 74.5 205t212.5 135t326 51l-20 -90q-69 31 -146 85q-69 49 -114.5 70.5t-88.5 22.5q-40 -1 -70.5 -23t-48.5 -51l-73 53q35 70 84 107t110 37q57 0 111.5 -26.5t142.5 -89.5q50 -37 77 -54t58 -28l-14 -124
q-154 1 -270 -35.5t-180.5 -97t-72.5 -130.5q-3 -47 30.5 -85t94 -59.5t137.5 -21.5q73 0 136 15t100 30l46 -100q-2 -1 -37.5 -20.5t-110 -37t-152.5 -17.5q-95 0 -173 34zM395 35l57 -57l28 -28l-85 -86l-85 86z" />
    <glyph glyph-name="uni062D" unicode="&#x62d;" horiz-adv-x="711" arabic-form="isolated" 
d="M210 -345q-78 34 -123.5 97t-45.5 148q0 118 74.5 205t212.5 135t326 51l-20 -90q-69 31 -146 85q-69 49 -114.5 70.5t-88.5 22.5q-40 -1 -70.5 -23t-48.5 -51l-73 53q35 70 84 107t110 37q57 0 111.5 -26.5t142.5 -89.5q50 -37 77 -54t58 -28l-14 -124
q-154 1 -270 -35.5t-180.5 -97t-72.5 -130.5q-3 -47 30.5 -85t94 -59.5t137.5 -21.5q73 0 136 15t100 30l46 -100q-2 -1 -37.5 -20.5t-110 -37t-152.5 -17.5q-95 0 -173 34z" />
    <glyph glyph-name="uni062E" unicode="&#x62e;" horiz-adv-x="711" arabic-form="isolated" 
d="M278 746l57 -57l28 -28l-85 -86l-85 86zM210 -345q-78 34 -123.5 97t-45.5 148q0 118 74.5 205t212.5 135t326 51l-20 -90q-69 31 -146 85q-69 49 -114.5 70.5t-88.5 22.5q-40 -1 -70.5 -23t-48.5 -51l-73 53q35 70 84 107t110 37q57 0 111.5 -26.5t142.5 -89.5
q50 -37 77 -54t58 -28l-14 -124q-154 1 -270 -35.5t-180.5 -97t-72.5 -130.5q-3 -47 30.5 -85t94 -59.5t137.5 -21.5q73 0 136 15t100 30l46 -100q-2 -1 -37.5 -20.5t-110 -37t-152.5 -17.5q-95 0 -173 34z" />
    <glyph glyph-name="uni062F" unicode="&#x62f;" horiz-adv-x="519" arabic-form="isolated" 
d="M116 20.5q-58 24.5 -90 51.5l49 92q35 -18 74.5 -31.5t96.5 -13.5q54 0 88.5 13t45.5 29q2 8 2 14q0 39 -49 104t-159 142l62 112q114 -83 180.5 -177.5t66.5 -179.5q0 -37 -15 -72q-22 -52 -80.5 -80t-129.5 -28q-84 0 -142 24.5z" />
    <glyph glyph-name="uni0630" unicode="&#x630;" horiz-adv-x="519" arabic-form="isolated" 
d="M116 20.5q-58 24.5 -90 51.5l49 92q35 -18 74.5 -31.5t96.5 -13.5q54 0 88.5 13t45.5 29q2 8 2 14q0 39 -49 104t-159 142l62 112q114 -83 180.5 -177.5t66.5 -179.5q0 -37 -15 -72q-22 -52 -80.5 -80t-129.5 -28q-84 0 -142 24.5zM218 766l57 -57l28 -28l-85 -86l-85 86
z" />
    <glyph glyph-name="uni0631" unicode="&#x631;" horiz-adv-x="372" arabic-form="isolated" 
d="M119 -120q54 36 85 73t31 66q0 22 -12 73.5t-32 129.5q-8 28 -11 42l100 39q23 -70 37.5 -148.5t14.5 -135.5q0 -95 -77.5 -177t-202.5 -132l-52 109q65 25 119 61z" />
    <glyph glyph-name="uni0632" unicode="&#x632;" horiz-adv-x="372" arabic-form="isolated" 
d="M119 -120q54 36 85 73t31 66q0 22 -12 73.5t-32 129.5q-8 28 -11 42l100 39q23 -70 37.5 -148.5t14.5 -135.5q0 -95 -77.5 -177t-202.5 -132l-52 109q65 25 119 61zM213 567l57 -57l28 -28l-85 -86l-85 86z" />
    <glyph glyph-name="uni0633" unicode="&#x633;" horiz-adv-x="1210" arabic-form="isolated" 
d="M1007 129h2q32 0 49.5 18.5t17.5 49.5q0 30 -19 86.5t-35 94.5l92 51q20 -43 40.5 -112.5t20.5 -122.5q0 -54 -21 -98t-59 -70t-86 -26h-2v129zM737 129h4q53 0 85 60q20 39 34 121l94 -4q-12 -60 -12 -97q0 -80 66 -80h3l6 -64l-6 -65h-3q-55 0 -91 31t-49 87l23 1
q-27 -55 -65.5 -87t-85.5 -32h-3v129zM636.5 52q-40.5 52 -58.5 132l68 42q12 -37 22.5 -56.5t29 -30t49.5 -10.5l-6 -129q-64 0 -104.5 52zM186 -254q-70 37 -107.5 102.5t-37.5 149.5q0 61 21 129.5t48 124.5l87 -40q-26 -57 -40 -104.5t-14 -95.5q0 -86 53 -129.5
t153 -43.5q74 0 127.5 25.5t80.5 67t27 87.5q0 61 -61 244l95 49q62 -175 62 -293q0 -82 -40.5 -153t-116 -114t-174.5 -43q-93 0 -163 37z" />
    <glyph glyph-name="uni0634" unicode="&#x634;" horiz-adv-x="1210" arabic-form="isolated" 
d="M1007 129h2q32 0 49.5 18.5t17.5 49.5q0 30 -19 86.5t-35 94.5l92 51q20 -43 40.5 -112.5t20.5 -122.5q0 -54 -21 -98t-59 -70t-86 -26h-2v129zM737 129h4q53 0 85 60q20 39 34 121l94 -4q-12 -60 -12 -97q0 -80 66 -80h3l6 -64l-6 -65h-3q-55 0 -91 31t-49 87l23 1
q-27 -55 -65.5 -87t-85.5 -32h-3v129zM636.5 52q-40.5 52 -58.5 132l68 42q12 -37 22.5 -56.5t29 -30t49.5 -10.5l-6 -129q-64 0 -104.5 52zM186 -254q-70 37 -107.5 102.5t-37.5 149.5q0 61 21 129.5t48 124.5l87 -40q-26 -57 -40 -104.5t-14 -95.5q0 -86 53 -129.5
t153 -43.5q74 0 127.5 25.5t80.5 67t27 87.5q0 61 -61 244l95 49q62 -175 62 -293q0 -82 -40.5 -153t-116 -114t-174.5 -43q-93 0 -163 37zM773 557l25 25l76 -75l-51 -51l-25 -25l-19 19q-47 47 -56 57zM985 582l75 -75l-75 -76l-50 50l-26 26zM846 644l45 45l67 -67
l-67 -68l-67 68z" />
    <glyph glyph-name="uni0635" unicode="&#x635;" horiz-adv-x="1282" arabic-form="isolated" 
d="M186 -254q-70 37 -107.5 102.5t-37.5 149.5q0 61 21 129.5t48 124.5l87 -40q-26 -57 -40 -104.5t-14 -95.5q0 -86 53 -129.5t153 -43.5q74 0 127.5 25.5t80.5 67t27 87.5q0 40 -19.5 106.5t-39.5 116.5l95 49q60 -140 60 -272q0 -82 -40.5 -153t-116 -114t-174.5 -43
q-93 0 -163 37zM681 30q-81 52 -131 175l83 54q26 -65 53.5 -97.5t70.5 -45t118 -12.5q81 0 144 21t97.5 53.5t34.5 65.5q0 26 -24.5 45t-66.5 19q-87 0 -170.5 -76t-141.5 -182l-74 53q41 86 100.5 161t131 121.5t144.5 46.5q56 0 100.5 -24t70 -66.5t25.5 -95.5
q0 -80 -48 -141t-133 -94t-193 -33q-110 0 -191 52z" />
    <glyph glyph-name="uni0636" unicode="&#x636;" horiz-adv-x="1282" arabic-form="isolated" 
d="M186 -254q-70 37 -107.5 102.5t-37.5 149.5q0 61 21 129.5t48 124.5l87 -40q-26 -57 -40 -104.5t-14 -95.5q0 -86 53 -129.5t153 -43.5q74 0 127.5 25.5t80.5 67t27 87.5q0 40 -19.5 106.5t-39.5 116.5l95 49q60 -140 60 -272q0 -82 -40.5 -153t-116 -114t-174.5 -43
q-93 0 -163 37zM681 30q-81 52 -131 175l83 54q26 -65 53.5 -97.5t70.5 -45t118 -12.5q81 0 144 21t97.5 53.5t34.5 65.5q0 26 -24.5 45t-66.5 19q-87 0 -170.5 -76t-141.5 -182l-74 53q41 86 100.5 161t131 121.5t144.5 46.5q56 0 100.5 -24t70 -66.5t25.5 -95.5
q0 -80 -48 -141t-133 -94t-193 -33q-110 0 -191 52zM1018 681l57 -57l28 -28l-85 -86l-85 86z" />
    <glyph glyph-name="uni0637" unicode="&#x637;" horiz-adv-x="781" arabic-form="isolated" 
d="M192.5 128.5q72.5 -15.5 154.5 -15.5q89 0 158 21t107 54t38 66q0 27 -24.5 45.5t-66.5 18.5q-81 0 -165 -71t-155 -201l-75 54q81 159 183 249.5t203 91.5q59 0 105 -27t70 -73.5t19 -103.5q-7 -76 -59 -133t-139 -87.5t-196 -30.5q-89 0 -172 17.5t-149 47.5l37 118
q54 -25 126.5 -40.5zM235 293q0 98 -10.5 225t-20.5 183l110 25q9 -51 16 -149t7 -198q0 -80 -6 -152l-100 -23q4 50 4 89z" />
    <glyph glyph-name="uni0638" unicode="&#x638;" horiz-adv-x="781" arabic-form="isolated" 
d="M192.5 128.5q72.5 -15.5 154.5 -15.5q89 0 158 21t107 54t38 66q0 27 -24.5 45.5t-66.5 18.5q-81 0 -165 -71t-155 -201l-75 54q81 159 183 249.5t203 91.5q59 0 105 -27t70 -73.5t19 -103.5q-7 -76 -59 -133t-139 -87.5t-196 -30.5q-89 0 -172 17.5t-149 47.5l37 118
q54 -25 126.5 -40.5zM235 293q0 98 -10.5 225t-20.5 183l110 25q9 -51 16 -149t7 -198q0 -80 -6 -152l-100 -23q4 50 4 89zM543 725l57 -57l28 -28l-85 -86l-85 86z" />
    <glyph glyph-name="uni0639" unicode="&#x639;" horiz-adv-x="701" arabic-form="isolated" 
d="M294 164q-59 0 -106.5 25t-74 71t-26.5 106q0 54 26 102.5t70.5 80.5t98.5 38q6 1 19 1q45 0 91.5 -19.5t87.5 -53.5l-43 -88q-67 32 -125 32q-37 0 -67 -13.5t-46.5 -35.5t-16.5 -46t18.5 -46.5t49 -36t65.5 -13.5q17 0 39 5l-7 -104q-30 -5 -53 -5zM575 -351.5
q-78 -27.5 -196 -27.5q-98 0 -177.5 37.5t-122.5 107t-36 160.5q9 123 87.5 204t168.5 120t194 69l25 -115q-175 -52 -270 -124t-107 -163q-3 -45 27 -82.5t87 -59.5t129 -24q59 -2 114 7.5t93 21t46 16.5l46 -100q-30 -20 -108 -47.5z" />
    <glyph glyph-name="uni063A" unicode="&#x63a;" horiz-adv-x="701" arabic-form="isolated" 
d="M294 164q-59 0 -106.5 25t-74 71t-26.5 106q0 54 26 102.5t70.5 80.5t98.5 38q6 1 19 1q45 0 91.5 -19.5t87.5 -53.5l-43 -88q-67 32 -125 32q-37 0 -67 -13.5t-46.5 -35.5t-16.5 -46t18.5 -46.5t49 -36t65.5 -13.5q17 0 39 5l-7 -104q-30 -5 -53 -5zM575 -351.5
q-78 -27.5 -196 -27.5q-98 0 -177.5 37.5t-122.5 107t-36 160.5q9 123 87.5 204t168.5 120t194 69l25 -115q-175 -52 -270 -124t-107 -163q-3 -45 27 -82.5t87 -59.5t129 -24q59 -2 114 7.5t93 21t46 16.5l46 -100q-30 -20 -108 -47.5zM287 839l57 -57l28 -28l-85 -86
l-85 86z" />
    <glyph glyph-name="uni0641" unicode="&#x641;" horiz-adv-x="886" arabic-form="isolated" 
d="M425 -11l-9 64l4 65h14q156 1 235 30.5t90 95.5q0 53 -15.5 107t-43 89.5t-62.5 35.5q-22 0 -40.5 -14.5t-29 -36t-10.5 -41.5q0 -17 8 -30q15 -21 55.5 -33.5t91.5 -12.5q35 0 69 6v-116q-52 -10 -94 -10q-70 0 -124 23.5t-79 70.5q-18 38 -18 84q0 54 23.5 106t65 85
t90.5 33q60 0 107 -49.5t71.5 -127.5t19.5 -160q-5 -122 -108.5 -192.5t-303.5 -71.5h-7zM151 41q-101 53 -110 150q-1 8 -1 24q0 42 11 89.5t28 87.5l87 -43q-30 -91 -26 -135q8 -43 82 -69.5t207 -26.5q2 -21 2 -64t-2 -65q-177 -1 -278 52zM634 826l57 -57l28 -28
l-85 -86l-85 86z" />
    <glyph glyph-name="uni0642" unicode="&#x642;" horiz-adv-x="725" arabic-form="isolated" 
d="M186 -211q-70 37 -107.5 102.5t-37.5 149.5q0 61 21 129.5t48 124.5l87 -40q-26 -58 -40 -104.5t-14 -95.5q0 -84 53.5 -128.5t152.5 -44.5q97 0 161.5 45t75.5 119q-33 -6 -68 -6q-70 0 -126.5 24t-80.5 73q-17 39 -17 82q0 57 24 113.5t65.5 93t90.5 36.5
q61 0 109 -52.5t74.5 -135t26.5 -168.5q0 -109 -43 -189t-119 -122.5t-173 -42.5q-93 0 -163 37zM543 288q-29 50 -70 54q-3 1 -10 1q-21 0 -38.5 -16t-28 -40t-10.5 -46q0 -20 8 -31q14 -21 53 -32t87 -11q26 0 50 3q-12 68 -41 118zM380 691l80 -80l-53 -53l-27 -27
l-27 27l-53 53zM557 691l80 -80l-53 -53l-27 -27l-27 27l-53 53z" />
    <glyph glyph-name="uni0643" unicode="&#x643;" horiz-adv-x="801" arabic-form="isolated" 
d="M419 118h6q120 0 174.5 28t55.5 85q1 10 1 39q0 85 -8 234.5t-15 196.5l108 25q9 -59 15.5 -238.5t6.5 -256.5q0 -121 -87.5 -181.5t-249.5 -60.5h-7v129zM151 41q-101 53 -110 150q-1 8 -1 24q0 42 11 89.5t28 87.5l87 -43q-30 -91 -26 -135q8 -43 82 -69.5t207 -26.5
q2 -21 2 -64t-2 -65q-177 -1 -278 52zM491 425l-69 -32q49 -44 49 -83q0 -35 -37.5 -53t-96.5 -14l7 57q69 0 83 14q-4 12 -28.5 29.5t-40.5 24.5l3 64l110 49z" />
    <glyph glyph-name="uni0644" unicode="&#x644;" horiz-adv-x="676" arabic-form="isolated" 
d="M183.5 -225q-65.5 32 -104 91t-38.5 138q0 57 20 126t48 126l87 -41q-26 -56 -40 -101t-14 -90q0 -68 51 -110t135 -42q214 0 207 221q-6 191 -17 357t-22 251l109 25q16 -134 30 -628q4 -167 -77 -261t-230 -94q-79 0 -144.5 32z" />
    <glyph glyph-name="uni0645" unicode="&#x645;" horiz-adv-x="589" arabic-form="isolated" 
d="M62 -357q-24 247 -24 408q0 39 1 57q2 53 35 86t80 33q13 0 28 -3q38 83 87 133t103 53q55 3 96 -29t63 -85.5t22 -112.5q0 -57 -21 -104.5t-63 -71.5q-21 -12 -49 -12q-38 0 -98.5 23.5t-155.5 76.5q-4 2 -8 2q-11 0 -11 -14q-2 -73 4 -163.5t18 -224.5q5 -45 5 -54
l-110 -22zM461 178q0 43 -22.5 79.5t-59.5 36.5q-47 0 -108 -115q105 -66 150 -66q7 0 15 4q25 16 25 61z" />
    <glyph glyph-name="uni0646" unicode="&#x646;" horiz-adv-x="717" arabic-form="isolated" 
d="M157 152.5q-14 -47.5 -14 -95.5q0 -86 53 -129.5t153 -43.5q74 0 127.5 25.5t80.5 67t27 87.5q0 61 -61 244l95 49q62 -174 62 -293q0 -82 -40.5 -153t-116 -114t-174.5 -43q-93 0 -163 37t-107.5 102.5t-37.5 149.5q0 61 21 129.5t48 124.5l87 -40q-26 -57 -40 -104.5z
M371 434l57 -57l28 -28l-85 -86l-85 86z" />
    <glyph glyph-name="uni0647" unicode="&#x647;" horiz-adv-x="462" arabic-form="isolated" 
d="M91.5 45q-49.5 49 -49.5 125q0 30 7 58q16 61 52 112.5t89 103.5l61 -80q-114 -96 -114 -167q0 -35 26 -54.5t76 -19.5q42 0 69 17t30 45q-5 52 -60 106.5t-170 124.5l65 99q129 -76 194.5 -155t65.5 -167q0 -57 -26.5 -102t-73 -70t-102.5 -25q-90 0 -139.5 49z" />
    <glyph glyph-name="uni0648" unicode="&#x648;" horiz-adv-x="485" arabic-form="isolated" 
d="M276 -87q77 54 77 139q-1 60 -16.5 117.5t-44.5 94.5t-66 37q-21 0 -39.5 -16.5t-29.5 -41.5t-11 -47q0 -16 8 -29q15 -21 54.5 -32t89.5 -11q45 0 81 7v-121q-52 -13 -102 -13q-70 0 -126 24t-79 73q-17 35 -17 82q0 57 24 113.5t65.5 93t90.5 36.5q60 0 108 -52
t74.5 -134t26.5 -168q0 -135 -99 -228.5t-274 -126.5l-39 113q167 36 244 90z" />
    <glyph glyph-name="uni0649" unicode="&#x649;" horiz-adv-x="758" arabic-form="isolated" 
d="M190 -203q-70 34 -110 98.5t-40 154.5q0 61 21 132.5t48 123.5l87 -40q-26 -56 -40.5 -104t-14.5 -96q0 -86 53.5 -129.5t153.5 -43.5q88 0 153 33.5t89 80.5q1 3 -32 13.5t-84 25.5q-79 23 -111.5 52.5t-32.5 87.5q0 78 40 149t106 114.5t139 43.5q29 0 57.5 -8
t41.5 -19l-37 -113q-11 4 -30 7t-35 3q-42 0 -80.5 -19.5t-65 -51t-34.5 -65.5q-1 -4 -1 -11q0 -17 23 -30.5t88 -30.5q63 -16 96 -34t45 -38.5t12 -48.5q0 -68 -45.5 -130.5t-125 -101.5t-176.5 -39q-88 0 -158 34z" />
    <glyph glyph-name="uni064A" unicode="&#x64a;" horiz-adv-x="758" arabic-form="isolated" 
d="M190 -203q-70 34 -110 98.5t-40 154.5q0 61 21 132.5t48 123.5l87 -40q-26 -56 -40.5 -104t-14.5 -96q0 -86 53.5 -129.5t153.5 -43.5q88 0 153 33.5t89 80.5q1 3 -32 13.5t-84 25.5q-79 23 -111.5 52.5t-32.5 87.5q0 78 40 149t106 114.5t139 43.5q29 0 57.5 -8
t41.5 -19l-37 -113q-11 4 -30 7t-35 3q-42 0 -80.5 -19.5t-65 -51t-34.5 -65.5q-1 -4 -1 -11q0 -17 23 -30.5t88 -30.5q63 -16 96 -34t45 -38.5t12 -48.5q0 -68 -45.5 -130.5t-125 -101.5t-176.5 -39q-88 0 -158 34zM441 -432l-80 80l53 53l27 27l27 -27l53 -53zM264 -432
l-80 80l53 53l27 27l27 -27l53 -53z" />
    <glyph glyph-name="uni066E.init" unicode="&#x66e;" horiz-adv-x="330" 
d="M-5 129h53q74 0 107 17.5t33 53.5q0 23 -21.5 89t-32.5 90l94 51q19 -40 39.5 -110t20.5 -122q0 -97 -62 -147.5t-178 -50.5h-53v129z" />
    <glyph glyph-name="uni066E.medi" unicode="&#x66e;" horiz-adv-x="336" 
d="M-5 129h7q88 1 122.5 23t34.5 73q0 23 -8 75l-4 27l94 18q13 -67 13 -163q5 -23 25 -38t55 -15h7l7 -64l-7 -65h-7q-48 0 -86 26.5t-58 68.5l24 -3q-23 -48 -76 -70t-136 -22h-7v129z" />
    <glyph glyph-name="uni066E.fina" unicode="&#x66e;" horiz-adv-x="947" 
d="M420 54q0 43 1 64q128 0 202 18t114.5 57t65.5 110l94 -11q-18 -57 -18 -92q0 -71 73 -71l7 -64l-8 -65q-42 0 -77 18.5t-55 52.5t-20 77l20 -3q-59 -86 -154.5 -121t-243.5 -35q-1 22 -1 65zM151 41q-101 53 -110 150q-1 8 -1 24q0 42 11 89.5t28 87.5l87 -43
q-30 -91 -26 -135q8 -43 82 -69.5t207 -26.5q2 -21 2 -64t-2 -65q-177 -1 -278 52z" />
    <glyph glyph-name="uni066F.fina" unicode="&#x66f;" horiz-adv-x="714" 
d="M186 -254q-70 37 -107.5 102.5t-37.5 149.5q0 61 21 129.5t48 124.5l87 -40q-26 -58 -40 -104.5t-14 -95.5q0 -84 53.5 -128.5t152.5 -44.5q96 0 160 43.5t77 117.5q-108 1 -177.5 20.5t-96.5 75.5q-17 35 -17 83q0 56 24 112t65.5 92t89.5 36q53 0 96.5 -41.5t71.5 -108
t37 -140.5h40l7 -64l-7 -65h-40q-11 -90 -56 -156t-115.5 -100.5t-158.5 -34.5q-93 0 -163 37zM540 250q-31 50 -77 50q-21 0 -38.5 -16t-28 -40t-10.5 -46q0 -18 7 -29q16 -23 64.5 -31t126.5 -9q-13 71 -44 121z" />
    <glyph glyph-name="uni0671" unicode="&#x671;" horiz-adv-x="259" arabic-form="isolated" 
d="M75 177q0 118 -7 247.5t-15 186.5l110 25q7 -56 13 -181.5t6 -246.5q0 -138 -8 -214l-106 12q7 59 7 171zM-17 743q22 17 48 17q19 0 58 -14q44 -14 67 -14q7 0 19 2q28 4 44 16t16 25q0 10 -12 17t-28 7q-28 0 -56 -23t-48 -64l-41 24q26 56 66 89.5t83 33.5
q34 0 57.5 -24t23.5 -59q0 -36 -27 -64t-69 -36q-16 -3 -31 -3q-32 0 -79 15q-21 7 -30 8.5t-19 0.5q-14 -1 -24.5 -10t-14.5 -16l-41 27q16 28 38 45z" />
    <glyph glyph-name="uni0679" unicode="&#x679;" horiz-adv-x="846" arabic-form="isolated" 
d="M418 54q0 43 1 64q92 0 157.5 11t99.5 26t36 26q-6 45 -26.5 106t-33.5 92l94 51q24 -54 43 -126.5t17 -121.5q-4 -94 -110.5 -143.5t-276.5 -49.5q-1 22 -1 65zM151 41q-101 53 -110 150q-1 8 -1 24q0 42 11 89.5t28 87.5l87 -43q-30 -91 -26 -135q8 -43 82 -69.5
t207 -26.5q2 -21 2 -64t-2 -65q-177 -1 -278 52zM364 399q24 -5 58 -5q49 0 71 11t23 26q2 11 -6 19.5t-25 8.5q-31 0 -64.5 -31t-56.5 -74l-39 30q31 57 72 96t84 39q38 0 59.5 -26t21.5 -59q0 -26 -16.5 -49.5t-51.5 -39t-87 -15.5t-84.5 13.5t-34.5 14.5l18 56
q34 -10 58 -15zM353.5 498.5q-4.5 53.5 -11.5 93.5l49 10q7 -40 12.5 -99.5t2.5 -86.5l-50 8q2 21 -2.5 74.5z" />
    <glyph glyph-name="uni067E" unicode="&#x67e;" horiz-adv-x="846" arabic-form="isolated" 
d="M418 54q0 43 1 64q92 0 157.5 11t99.5 26t36 26q-6 45 -26.5 106t-33.5 92l94 51q24 -54 43 -126.5t17 -121.5q-4 -94 -110.5 -143.5t-276.5 -49.5q-1 22 -1 65zM151 41q-101 53 -110 150q-1 8 -1 24q0 42 11 89.5t28 87.5l87 -43q-30 -91 -26 -135q8 -43 82 -69.5
t207 -26.5q2 -21 2 -64t-2 -65q-177 -1 -278 52zM539 -198q-12 -13 -25 -25l-76 75l51 51l25 25l19 -19l56 -57q-24 -26 -50 -50zM327 -223l-75 75l75 76l51 -50l25 -26zM466 -285l-45 -45l-67 67l67 68l67 -68z" />
    <glyph glyph-name="uni0686" unicode="&#x686;" horiz-adv-x="711" arabic-form="isolated" 
d="M210 -345q-78 34 -123.5 97t-45.5 148q0 118 74.5 205t212.5 135t326 51l-20 -90q-69 31 -146 85q-69 49 -114.5 70.5t-88.5 22.5q-40 -1 -70.5 -23t-48.5 -51l-73 53q35 70 84 107t110 37q57 0 111.5 -26.5t142.5 -89.5q50 -37 77 -54t58 -28l-14 -124
q-154 1 -270 -35.5t-180.5 -97t-72.5 -130.5q-3 -47 30.5 -85t94 -59.5t137.5 -21.5q73 0 136 15t100 30l46 -100q-2 -1 -37.5 -20.5t-110 -37t-152.5 -17.5q-95 0 -173 34zM529 -67l-25 -24l-74 73l50 49l24 25l19 -19l55 -55zM322 -91l-73 73l73 74l49 -49l25 -25
q-61 -61 -74 -73zM458 -152q-23 -21 -44 -44l-65 66l65 66q11 -12 65 -66z" />
    <glyph glyph-name="uni0695.fina" unicode="&#x695;" horiz-adv-x="396" 
d="M287.5 47.5q-39.5 47.5 -66.5 135.5l79 48q14 -56 35 -79t58 -23h8l7 -64l-7 -65h-8q-66 0 -105.5 47.5zM119 -120q54 36 85 73t31 66q0 22 -12 73.5t-32 129.5q-8 28 -11 42l100 39q23 -70 37.5 -148.5t14.5 -135.5q0 -95 -77.5 -177t-202.5 -132l-52 109q65 25 119 61z
M196 -416.5q-19 -38.5 -31 -71.5l-45 -16q-11 33 -32 74.5t-41 70.5l40 38q13 -17 28.5 -48.5t24.5 -57.5q9 28 24.5 62t28.5 53l41 -37q-19 -29 -38 -67.5z" />
    <glyph glyph-name="uni0698" unicode="&#x698;" horiz-adv-x="412" arabic-form="isolated" 
d="M119 -120q54 36 85 73t31 66q0 22 -12 73.5t-32 129.5q-8 28 -11 42l100 39q23 -70 37.5 -148.5t14.5 -135.5q0 -95 -77.5 -177t-202.5 -132l-52 109q65 25 119 61zM104 526l25 25l76 -75l-51 -51l-25 -25l-19 19q-47 47 -56 57zM316 551l75 -75l-75 -76l-50 50l-26 26z
M177 613l45 45l67 -67l-67 -68l-67 68z" />
    <glyph glyph-name="uni06A1.init" unicode="&#x6a1;" horiz-adv-x="461" 
d="M-6 129h14q160 0 238 25t89 90q0 53 -15.5 107t-43 89.5t-63.5 35.5q-21 0 -39.5 -14.5t-29.5 -36t-11 -41.5q0 -18 9 -30q15 -21 55.5 -33.5t91.5 -12.5q35 0 69 6v-116q-52 -10 -94 -10q-70 0 -124.5 23.5t-78.5 70.5q-18 35 -18 84q0 54 23.5 106t65 85t90.5 33
q60 0 107 -49.5t71.5 -127.5t19.5 -160q-5 -121 -108 -187t-304 -66h-14v129z" />
    <glyph glyph-name="uni06A1.medi" unicode="&#x6a1;" horiz-adv-x="472" 
d="M-7 129h24q102 0 164 11.5t94 34.5t46 60q3 23 -6 47.5t-27.5 40.5t-45.5 16q-32 0 -56 -27.5t-29 -63.5q1 -30 26.5 -57t74.5 -44.5t115 -17.5h106l7 -64l-7 -65h-60q-102 0 -184 31.5t-128 85t-46 116.5q0 9 2 25q9 57 36.5 103.5t67 73.5t83.5 27q49 0 87 -30.5
t59 -79t21 -99.5q0 -10 -2 -30q-16 -114 -114.5 -168.5t-283.5 -54.5h-24v129z" />
    <glyph glyph-name="uni06A1.fina" unicode="&#x6a1;" horiz-adv-x="892" 
d="M420 -11l-7 65l7 64h12q141 0 212.5 30t93.5 87q1 4 1 13q0 34 -22 62.5t-57 28.5q-32 0 -56 -27.5t-29 -63.5q0 -30 25.5 -57.5t74.5 -44.5t115 -17h107l7 -64l-7 -65h-61q-102 0 -183.5 31.5t-127.5 85t-46 116.5q0 9 2 25q8 56 35.5 103t67 74t83.5 27q49 0 87.5 -31
t59.5 -80t21 -100q0 -10 -2 -28q-16 -115 -119 -174.5t-282 -59.5h-12zM151 41q-101 53 -110 150q-1 8 -1 24q0 42 11 89.5t28 87.5l87 -43q-30 -91 -26 -135q8 -43 82 -69.5t207 -26.5q2 -21 2 -64t-2 -65q-177 -1 -278 52z" />
    <glyph glyph-name="uni06A4" unicode="&#x6a4;" horiz-adv-x="886" arabic-form="isolated" 
d="M425 -11l-9 64l4 65h14q156 1 235 30.5t90 95.5q0 53 -15.5 107t-43 89.5t-62.5 35.5q-22 0 -40.5 -14.5t-29 -36t-10.5 -41.5q0 -17 8 -30q15 -21 55.5 -33.5t91.5 -12.5q35 0 69 6v-116q-52 -10 -94 -10q-70 0 -124 23.5t-79 70.5q-18 38 -18 84q0 54 23.5 106t65 85
t90.5 33q60 0 107 -49.5t71.5 -127.5t19.5 -160q-5 -122 -108.5 -192.5t-303.5 -71.5h-7zM151 41q-101 53 -110 150q-1 8 -1 24q0 42 11 89.5t28 87.5l87 -43q-30 -91 -26 -135q8 -43 82 -69.5t207 -26.5q2 -21 2 -64t-2 -65q-177 -1 -278 52zM522 778l25 25l76 -75l-51 -51
l-25 -25l-19 19q-47 47 -56 57zM734 803l75 -75l-75 -76l-50 50l-26 26zM595 865l45 45l67 -67l-67 -68l-67 68z" />
    <glyph glyph-name="uni06A9" unicode="&#x6a9;" horiz-adv-x="880" arabic-form="isolated" 
d="M419 -12l-7 65l7 65h31q88 0 146 18.5t76 46.5q2 51 -50.5 122.5t-158.5 157.5l12 114l369 158l36 -104l-297 -128q36 -30 80 -81t77 -113t33 -117q0 -21 -6 -42q-21 -77 -106 -119t-211 -42zM151 41q-101 53 -110 150q-1 8 -1 24q0 42 11 89.5t28 87.5l87 -43
q-30 -91 -26 -135q8 -43 82 -69.5t207 -26.5q2 -21 2 -64t-2 -65q-177 -1 -278 52z" />
    <glyph glyph-name="uni06AF" unicode="&#x6af;" horiz-adv-x="879" arabic-form="isolated" 
d="M419 -12l-7 65l7 65h31q89 0 145.5 15.5t73.5 42.5q1 47 -49 110.5t-157 148.5l12 115l369 156l36 -103l-297 -128q186 -156 186 -281q0 -23 -7 -44q-22 -78 -105 -119.5t-207 -41.5zM483 668l322 134l16 -44l-344 -145zM151 41q-101 53 -110 150q-1 8 -1 24
q0 42 11 89.5t28 87.5l87 -43q-30 -91 -26 -135q8 -43 82 -69.5t207 -26.5q2 -21 2 -64t-2 -65q-177 -1 -278 52z" />
    <glyph glyph-name="uni06B5.init" unicode="&#x6b5;" horiz-adv-x="275" 
d="M-5 129h32q53 0 77 22.5t24 68.5q0 61 -10 242.5t-18 238.5l110 25q6 -55 15 -239.5t10 -255.5q0 -66 -25.5 -118.5t-72.5 -82.5t-108 -30h-34v129zM200 827.5q-19 -38.5 -31 -71.5l-45 -16q-11 33 -32 74.5t-41 70.5l40 38q13 -17 28.5 -48.5t24.5 -57.5q9 28 24.5 62
t28.5 53l41 -37q-19 -29 -38 -67.5z" />
    <glyph glyph-name="uni06B5.medi" unicode="&#x6b5;" horiz-adv-x="300" 
d="M206 29q-41 29 -65 80.5t-24 114.5q0 42 -9 227t-16 250l110 24q7 -69 17 -395l4 -110q6 -91 71 -91h11l7 -64l-7 -65h-11q-47 0 -88 29zM-5 129h24q53 0 76 21.5t22 70.5l80 -9q0 -94 -46.5 -153t-130.5 -59h-25v129zM199 829.5q-19 -38.5 -31 -71.5l-45 -16
q-11 33 -32 74.5t-41 70.5l40 38q13 -17 28.5 -48.5t24.5 -57.5q9 28 24.5 62t28.5 53l41 -37q-19 -29 -38 -67.5z" />
    <glyph glyph-name="uni06B5.fina" unicode="&#x6b5;" horiz-adv-x="743" 
d="M613 60q-42 60 -45 164l63 12q3 -45 12.5 -67t30.5 -31t62 -9h12l7 -64l-7 -65h-12q-81 0 -123 60zM183.5 -225q-65.5 32 -104 91t-38.5 138q0 57 20 126t48 126l87 -41q-26 -56 -40 -101t-14 -90q0 -68 51 -110t135 -42q214 0 207 221q-6 191 -17 357t-22 251l109 25
q16 -134 30 -628q4 -167 -77 -261t-230 -94q-79 0 -144.5 32zM602 843.5q-19 -38.5 -31 -71.5l-45 -16q-11 33 -32 74.5t-41 70.5l40 38q13 -17 28.5 -48.5t24.5 -57.5q9 28 24.5 62t28.5 53l41 -37q-19 -29 -38 -67.5z" />
    <glyph glyph-name="uni06C2.fina" unicode="&#x6c2;" horiz-adv-x="565" 
d="M191.5 425q-30.5 28 -30.5 68q0 33 21 62t52 36q14 3 26 3q26 0 69 -13l-15 -61q-31 11 -52 11q-25 0 -39.5 -14.5t-10.5 -31.5q3 -12 16.5 -22.5t35.5 -10.5q8 0 13 1l-11 -61q-44 5 -74.5 33zM130 410l217 67v-62l-217 -67v62zM570 129l7 -64l-7 -65h-7
q-99 0 -171 56.5t-117 141.5q-45 -19 -90 -77.5t-64 -127.5l-77 49q11 57 41.5 112.5t71 97.5t81.5 62q28 14 49 14q39 0 71 -46q29 -48 51.5 -77.5t61 -52.5t91.5 -23h8z" />
    <glyph glyph-name="uni06C3.fina" unicode="&#x6c3;" horiz-adv-x="565" 
d="M570 129l7 -64l-7 -65h-7q-99 0 -171 56.5t-117 141.5q-45 -19 -90 -77.5t-64 -127.5l-77 49q11 57 41.5 112.5t71 97.5t81.5 62q28 14 49 14q39 0 71 -46q29 -48 51.5 -77.5t61 -52.5t91.5 -23h8zM201 543l80 -80l-53 -53l-27 -27l-27 27l-53 53zM378 543l80 -80
l-53 -53l-27 -27l-27 27l-53 53z" />
    <glyph glyph-name="uni06C6" unicode="&#x6c6;" horiz-adv-x="485" arabic-form="isolated" 
d="M276 -87q77 54 77 139q-1 60 -16.5 117.5t-44.5 94.5t-66 37q-21 0 -39.5 -16.5t-29.5 -41.5t-11 -47q0 -16 8 -29q15 -21 54.5 -32t89.5 -11q45 0 81 7v-121q-52 -13 -102 -13q-70 0 -126 24t-79 73q-17 35 -17 82q0 57 24 113.5t65.5 93t90.5 36.5q60 0 108 -52
t74.5 -134t26.5 -168q0 -135 -99 -228.5t-274 -126.5l-39 113q167 36 244 90zM276 570.5q-19 -38.5 -31 -71.5l-45 -16q-11 33 -32 74.5t-41 70.5l40 38q13 -17 28.5 -48.5t24.5 -57.5q9 28 24.5 62t28.5 53l41 -37q-19 -29 -38 -67.5z" />
    <glyph glyph-name="uni06C7" unicode="&#x6c7;" horiz-adv-x="485" arabic-form="isolated" 
d="M276 -87q77 54 77 139q-1 60 -16.5 117.5t-44.5 94.5t-66 37q-21 0 -39.5 -16.5t-29.5 -41.5t-11 -47q0 -16 8 -29q15 -21 54.5 -32t89.5 -11q45 0 81 7v-121q-52 -13 -102 -13q-70 0 -126 24t-79 73q-17 35 -17 82q0 57 24 113.5t65.5 93t90.5 36.5q60 0 108 -52
t74.5 -134t26.5 -168q0 -135 -99 -228.5t-274 -126.5l-39 113q167 36 244 90zM209 544q40 12 61 43q15 23 15 49q0 22 -11 38.5t-29 16.5q-14 0 -24.5 -11t-10.5 -25q0 -21 22.5 -34.5t59.5 -10.5v-48q-18 -2 -25 -2q-42 0 -69.5 19.5t-33.5 55.5q-1 4 -1 13q0 38 28 66.5
t62 28.5q14 0 23 -4q27 -9 41 -35t14 -60q0 -47 -24 -85q-25 -41 -75 -62t-104 -22l-15 53q56 4 96 16z" />
    <glyph glyph-name="uni06CC" unicode="&#x6cc;" horiz-adv-x="758" arabic-form="isolated" 
d="M190 -203q-70 34 -110 98.5t-40 154.5q0 61 21 132.5t48 123.5l87 -40q-26 -56 -40.5 -104t-14.5 -96q0 -86 53.5 -129.5t153.5 -43.5q88 0 153 33.5t89 80.5q1 3 -32 13.5t-84 25.5q-79 23 -111.5 52.5t-32.5 87.5q0 78 40 149t106 114.5t139 43.5q29 0 57.5 -8
t41.5 -19l-37 -113q-11 4 -30 7t-35 3q-42 0 -80.5 -19.5t-65 -51t-34.5 -65.5q-1 -4 -1 -11q0 -17 23 -30.5t88 -30.5q63 -16 96 -34t45 -38.5t12 -48.5q0 -68 -45.5 -130.5t-125 -101.5t-176.5 -39q-88 0 -158 34z" />
    <glyph glyph-name="uni06CE.init" unicode="&#x6ce;" horiz-adv-x="367" 
d="M228 592.5q-19 -38.5 -31 -71.5l-45 -16q-11 33 -32 74.5t-41 70.5l40 38q13 -17 28.5 -48.5t24.5 -57.5q9 28 24.5 62t28.5 53l41 -37q-19 -29 -38 -67.5zM-5 129h45q102 0 144 18.5t42 57.5q-1 25 -21.5 86.5t-32.5 87.5l94 51q20 -45 40 -112t20 -118q-1 -98 -68 -149
t-199 -51h-64v129zM183 -247l-80 80l53 53l27 27l27 -27l53 -53zM6 -247l-80 80l53 53l27 27l27 -27l53 -53z" />
    <glyph glyph-name="uni06CE.medi" unicode="&#x6ce;" horiz-adv-x="390" 
d="M219 478.5q-19 -38.5 -31 -71.5l-45 -16q-11 33 -32 74.5t-41 70.5l40 38q13 -17 28.5 -48.5t24.5 -57.5q9 28 24.5 62t28.5 53l41 -37q-19 -29 -38 -67.5zM-5 129h8q78 0 121 7t61.5 21.5t24.5 39.5q3 14 3 30q0 25 -5 58.5t-6 41.5l93 18q8 -43 11 -89.5t3 -73.5
q4 -23 24 -38t56 -15h6l7 -64l-7 -65h-6q-48 0 -86.5 26.5t-58.5 68.5l24 -5q-25 -49 -84.5 -69.5t-180.5 -20.5h-8v129zM177 -246l-80 80l53 53l27 27l27 -27l53 -53zM0 -246l-80 80l53 53l27 27l27 -27l53 -53z" />
    <glyph glyph-name="uni06CE.fina" unicode="&#x6ce;" horiz-adv-x="749" 
d="M190 -251.5q-70 33.5 -110 98t-40 154.5q0 61 21 132t48 125l87 -41q-26 -56 -40.5 -104t-14.5 -95q0 -86 53.5 -130t153.5 -44q56 0 106.5 13t85.5 33t45 38q-15 17 -74 52t-123 60l28 122q165 -33 289 -33h49l7 -64l-7 -65h-49q-123 0 -316 40l28 79q8 -3 78 -33
t128 -76t58 -88q-1 -48 -46 -96.5t-121 -79.5t-166 -31q-88 0 -158 33.5zM341 353.5q-19 -38.5 -31 -71.5l-45 -16q-11 33 -32 74.5t-41 70.5l40 38q13 -17 28.5 -48.5t24.5 -57.5q9 28 24.5 62t28.5 53l41 -37q-19 -29 -38 -67.5z" />
    <glyph glyph-name="uni06D5.fina" unicode="&#x6d5;" horiz-adv-x="506" 
d="M239 49q-87 0 -142 41.5t-55 113.5q0 88 71 147.5t191 102.5l23 -116q-71 -16 -127.5 -48.5t-59.5 -62.5q-2 -24 24 -40t70 -16q49 0 104 21l25 -122q-64 -21 -124 -21zM364.5 53.5q-45.5 53.5 -60.5 177.5l-34 273l105 21q3 -22 4.5 -42t3.5 -38l22 -197q6 -51 15 -75.5
t26 -34t50 -9.5h17l7 -64l-7 -65h-17q-86 0 -131.5 53.5z" />
    <glyph glyph-name="uni0671.fina" unicode="&#x671;" horiz-adv-x="270" arabic-form="final" 
d="M115 60.5q-45 60.5 -45 188.5q-2 217 -18 362l109 24q15 -127 15 -336v-35q-1 -56 5 -83t26 -39.5t62 -12.5h5l7 -64l-7 -65h-4q-110 0 -155 60.5zM9 745q22 17 48 17q19 0 58 -14q44 -14 67 -14q7 0 19 2q28 4 44 16t16 25q0 10 -12 17t-28 7q-28 0 -56 -23t-48 -64
l-41 24q26 56 66 89.5t83 33.5q34 0 57.5 -24t23.5 -59q0 -36 -27 -64t-69 -36q-16 -3 -31 -3q-32 0 -79 15q-21 7 -30 8.5t-19 0.5q-14 -1 -24.5 -10t-14.5 -16l-41 27q16 28 38 45z" />
    <glyph glyph-name="uni067E.fina" unicode="&#x67e;" horiz-adv-x="947" arabic-form="final" 
d="M420 54q0 43 1 64q128 0 202 18t114.5 57t65.5 110l94 -11q-18 -57 -18 -92q0 -71 73 -71l7 -64l-8 -65q-42 0 -77 18.5t-55 52.5t-20 77l20 -3q-59 -86 -154.5 -121t-243.5 -35q-1 22 -1 65zM151 41q-101 53 -110 150q-1 8 -1 24q0 42 11 89.5t28 87.5l87 -43
q-30 -91 -26 -135q8 -43 82 -69.5t207 -26.5q2 -21 2 -64t-2 -65q-177 -1 -278 52zM560 -194q-12 -13 -25 -25l-76 75l51 51l25 25l19 -19l56 -57q-24 -26 -50 -50zM348 -219l-75 75l75 76l51 -50l25 -26zM487 -281l-45 -45l-67 67l67 68l67 -68z" />
    <glyph glyph-name="uni067E.init" unicode="&#x67e;" horiz-adv-x="367" arabic-form="initial" 
d="M-5 129h45q102 0 144 18.5t42 57.5q-1 25 -21.5 86.5t-32.5 87.5l94 51q20 -45 40 -112t20 -118q-1 -98 -68 -149t-199 -51h-64v129zM222 -194q-12 -13 -25 -25l-76 75l51 51l25 25l19 -19l56 -57q-24 -26 -50 -50zM10 -219l-75 75l75 76l51 -50l25 -26zM149 -281
l-45 -45l-67 67l67 68l67 -68z" />
    <glyph glyph-name="uni067E.medi" unicode="&#x67e;" horiz-adv-x="390" arabic-form="medial" 
d="M-5 129h8q78 0 121 7t61.5 21.5t24.5 39.5q3 14 3 30q0 25 -5 58.5t-6 41.5l93 18q8 -43 11 -89.5t3 -73.5q4 -23 24 -38t56 -15h6l7 -64l-7 -65h-6q-48 0 -86.5 26.5t-58.5 68.5l24 -5q-25 -49 -84.5 -69.5t-180.5 -20.5h-8v129zM206 -195q-12 -13 -25 -25l-76 75l51 51
l25 25l19 -19l56 -57q-24 -26 -50 -50zM-6 -220l-75 75l75 76l51 -50l25 -26zM133 -282l-45 -45l-67 67l67 68l67 -68z" />
    <glyph glyph-name="uni0679.fina" unicode="&#x679;" horiz-adv-x="947" arabic-form="final" 
d="M420 54q0 43 1 64q128 0 202 18t114.5 57t65.5 110l94 -11q-18 -57 -18 -92q0 -71 73 -71l7 -64l-8 -65q-42 0 -77 18.5t-55 52.5t-20 77l20 -3q-59 -86 -154.5 -121t-243.5 -35q-1 22 -1 65zM151 41q-101 53 -110 150q-1 8 -1 24q0 42 11 89.5t28 87.5l87 -43
q-30 -91 -26 -135q8 -43 82 -69.5t207 -26.5q2 -21 2 -64t-2 -65q-177 -1 -278 52zM397.5 379q22.5 -5 56.5 -5q49 0 71 11.5t23 26.5q1 11 -6.5 19.5t-24.5 8.5q-31 0 -64.5 -31t-56.5 -74l-39 30q31 57 72 96t84 39q38 0 59.5 -26t21.5 -59q0 -42 -39 -73t-116 -31
q-52 0 -84.5 13.5t-34.5 14.5l18 56q37 -11 59.5 -16zM385.5 479.5q-4.5 53.5 -11.5 93.5l49 10q7 -40 12.5 -99.5t2.5 -86.5l-50 8q2 21 -2.5 74.5z" />
    <glyph glyph-name="uni0679.init" unicode="&#x679;" horiz-adv-x="367" arabic-form="initial" 
d="M-5 129h45q102 0 144 18.5t42 57.5q-1 25 -21.5 86.5t-32.5 87.5l94 51q20 -45 40 -112t20 -118q-1 -98 -68 -149t-199 -51h-64v129zM80 555q24 -5 58 -5q52 0 73 12t21 28q0 11 -7.5 18t-22.5 7q-31 0 -65 -31t-57 -74l-39 30q31 57 72 96t84 39q38 0 59.5 -26t21.5 -59
q0 -42 -38.5 -73t-116.5 -31q-52 0 -84.5 13.5t-34.5 14.5l18 56q34 -10 58 -15zM69.5 654.5q-4.5 53.5 -11.5 93.5l49 10q7 -40 12.5 -99.5t2.5 -86.5l-50 8q2 21 -2.5 74.5z" />
    <glyph glyph-name="uni0679.medi" unicode="&#x679;" horiz-adv-x="390" arabic-form="medial" 
d="M-5 129h8q78 0 121 7t61.5 21.5t24.5 39.5q3 14 3 30q0 25 -5 58.5t-6 41.5l93 18q8 -43 11 -89.5t3 -73.5q4 -23 24 -38t56 -15h6l7 -64l-7 -65h-6q-48 0 -86.5 26.5t-58.5 68.5l24 -5q-25 -49 -84.5 -69.5t-180.5 -20.5h-8v129zM93 458q24 -5 58 -5q52 0 73 12t21 28
q0 11 -7.5 18t-22.5 7q-31 0 -65 -31t-57 -74l-39 30q31 57 72 96t84 39q38 0 59.5 -26t21.5 -59q0 -42 -38.5 -73t-116.5 -31q-52 0 -84.5 13.5t-34.5 14.5l18 56q34 -10 58 -15zM82.5 557.5q-4.5 53.5 -11.5 93.5l49 10q7 -40 12.5 -99.5t2.5 -86.5l-50 8q2 21 -2.5 74.5z
" />
    <glyph glyph-name="uni06A4.fina" unicode="&#x6a4;" horiz-adv-x="892" arabic-form="final" 
d="M420 -11l-7 65l7 64h12q141 0 212.5 30t93.5 87q1 4 1 13q0 34 -22 62.5t-57 28.5q-32 0 -56 -27.5t-29 -63.5q0 -30 25.5 -57.5t74.5 -44.5t115 -17h107l7 -64l-7 -65h-61q-102 0 -183.5 31.5t-127.5 85t-46 116.5q0 9 2 25q8 56 35.5 103t67 74t83.5 27q49 0 87.5 -31
t59.5 -80t21 -100q0 -10 -2 -28q-16 -115 -119 -174.5t-282 -59.5h-12zM151 41q-101 53 -110 150q-1 8 -1 24q0 42 11 89.5t28 87.5l87 -43q-30 -91 -26 -135q8 -43 82 -69.5t207 -26.5q2 -21 2 -64t-2 -65q-177 -1 -278 52zM551 668l25 25l76 -75l-51 -51l-25 -25l-19 19
q-47 47 -56 57zM763 693l75 -75l-75 -76l-50 50l-26 26zM624 755l45 45l67 -67l-67 -68l-67 68z" />
    <glyph glyph-name="uni06A4.init" unicode="&#x6a4;" horiz-adv-x="461" arabic-form="initial" 
d="M-6 129h14q160 0 238 25t89 90q0 53 -15.5 107t-43 89.5t-63.5 35.5q-21 0 -39.5 -14.5t-29.5 -36t-11 -41.5q0 -18 9 -30q15 -21 55.5 -33.5t91.5 -12.5q35 0 69 6v-116q-52 -10 -94 -10q-70 0 -124.5 23.5t-78.5 70.5q-18 35 -18 84q0 54 23.5 106t65 85t90.5 33
q60 0 107 -49.5t71.5 -127.5t19.5 -160q-5 -121 -108 -187t-304 -66h-14v129zM106 776l25 25l76 -75l-51 -51l-25 -25l-19 19q-47 47 -56 57zM318 801l75 -75l-75 -76l-50 50l-26 26zM179 863l45 45l67 -67l-67 -68l-67 68z" />
    <glyph glyph-name="uni06A4.medi" unicode="&#x6a4;" horiz-adv-x="472" arabic-form="medial" 
d="M-7 129h24q102 0 164 11.5t94 34.5t46 60q3 23 -6 47.5t-27.5 40.5t-45.5 16q-32 0 -56 -27.5t-29 -63.5q1 -30 26.5 -57t74.5 -44.5t115 -17.5h106l7 -64l-7 -65h-60q-102 0 -184 31.5t-128 85t-46 116.5q0 9 2 25q9 57 36.5 103.5t67 73.5t83.5 27q49 0 87 -30.5
t59 -79t21 -99.5q0 -10 -2 -30q-16 -114 -114.5 -168.5t-283.5 -54.5h-24v129zM126 662l25 25l76 -75l-51 -51l-25 -25l-19 19q-47 47 -56 57zM338 687l75 -75l-75 -76l-50 50l-26 26zM199 749l45 45l67 -67l-67 -68l-67 68z" />
    <glyph glyph-name="uni0686.fina" unicode="&#x686;" horiz-adv-x="736" arabic-form="final" 
d="M602 234q0 -105 123 -105h16l7 -64l-7 -65h-16q-97 0 -152 59t-55 157q0 31 6 65l82 -9q-4 -28 -4 -38zM210 -345q-78 34 -123.5 97t-45.5 148q0 118 74.5 205t212.5 135t326 51l-20 -90q-69 31 -146 85q-69 49 -114.5 70.5t-88.5 22.5q-40 -1 -70.5 -23t-48.5 -51
l-73 53q35 70 84 107t110 37q57 0 111.5 -26.5t142.5 -89.5q50 -37 77 -54t58 -28l-14 -124q-154 1 -270 -35.5t-180.5 -97t-72.5 -130.5q-3 -47 30.5 -85t94 -59.5t137.5 -21.5q73 0 136 15t100 30l46 -100q-2 -1 -37.5 -20.5t-110 -37t-152.5 -17.5q-95 0 -173 34z
M527 -67l-25 -24l-74 73l50 49l24 25l19 -19l55 -55zM320 -91l-73 73l73 74l49 -49l25 -25q-61 -61 -74 -73zM456 -152q-23 -21 -44 -44l-65 66l65 66q11 -12 65 -66z" />
    <glyph glyph-name="uni0686.init" unicode="&#x686;" horiz-adv-x="692" arabic-form="initial" 
d="M-6 129h80q121 0 226.5 27.5t219.5 88.5q32 18 66 33t54 20l4 -81q-54 4 -103.5 19t-112.5 46q-91 47 -157 47q-39 0 -70 -22t-47 -51l-73 53q35 71 84 107.5t110 36.5q43 0 82.5 -14.5t110.5 -51.5q62 -31 102 -47t88 -26l4 -115q-28 -8 -92 -44q-9 -4 -27 -14
q-95 -50 -167.5 -80t-150 -45.5t-171.5 -15.5h-60v129zM464 -194q-12 -13 -25 -25l-76 75l51 51l25 25l19 -19l56 -57q-24 -26 -50 -50zM252 -219l-75 75l75 76l51 -50l25 -26zM391 -281l-45 -45l-67 67l67 68l67 -68z" />
    <glyph glyph-name="uni0686.medi" unicode="&#x686;" horiz-adv-x="757" arabic-form="medial" 
d="M492 165l68 59q10 -38 54 -66t111 -29h36l7 -64l-7 -65h-10q-212 1 -259 165zM-6 129h80q121 0 226.5 27.5t219.5 88.5q32 18 66 33t54 20l4 -81q-54 4 -103.5 19t-112.5 46q-91 47 -157 47q-39 0 -70 -22t-47 -51l-73 53q35 71 84 107.5t110 36.5q43 0 82.5 -14.5
t110.5 -51.5q62 -31 102 -47t88 -26l4 -115q-28 -8 -92 -44q-9 -4 -27 -14q-95 -50 -167.5 -80t-150 -45.5t-171.5 -15.5h-60v129zM471 -193q-12 -13 -25 -25l-76 75l51 51l25 25l19 -19l56 -57q-24 -26 -50 -50zM259 -218l-75 75l75 76l51 -50l25 -26zM398 -280l-45 -45
l-67 67l67 68l67 -68z" />
    <glyph glyph-name="uni0688.fina" unicode="&#x688;" horiz-adv-x="580" arabic-form="final" 
d="M462.5 36q-45.5 36 -80.5 114l-142 329l93 49l137 -324q18 -43 40.5 -59t63.5 -16h11l7 -64l-7 -65h-11q-66 0 -111.5 36zM120.5 18.5q-52.5 23.5 -94.5 53.5l49 92q35 -19 72.5 -32.5t88.5 -13.5q64 0 106 20t67 44l57 -78q-25 -28 -47.5 -48.5t-67 -40.5t-104.5 -20
q-74 0 -126.5 23.5zM256 668q24 -5 58 -5q52 0 73 12t21 28q0 11 -7.5 18t-22.5 7q-31 0 -65 -31t-57 -74l-39 30q31 57 72 96t84 39q38 0 59.5 -26t21.5 -59q0 -42 -38.5 -73t-116.5 -31q-52 0 -84.5 13.5t-34.5 14.5l18 56q34 -10 58 -15zM245.5 767.5
q-4.5 53.5 -11.5 93.5l49 10q7 -40 12.5 -99.5t2.5 -86.5l-50 8q2 21 -2.5 74.5z" />
    <glyph glyph-name="uni0698.fina" unicode="&#x698;" horiz-adv-x="396" arabic-form="final" 
d="M287.5 47.5q-39.5 47.5 -66.5 135.5l79 48q14 -56 35 -79t58 -23h8l7 -64l-7 -65h-8q-66 0 -105.5 47.5zM119 -120q54 36 85 73t31 66q0 22 -12 73.5t-32 129.5q-8 28 -11 42l100 39q23 -70 37.5 -148.5t14.5 -135.5q0 -95 -77.5 -177t-202.5 -132l-52 109q65 25 119 61z
M104 526l25 25l76 -75l-51 -51l-25 -25l-19 19q-47 47 -56 57zM316 551l75 -75l-75 -76l-50 50l-26 26zM177 613l45 45l67 -67l-67 -68l-67 68z" />
    <glyph glyph-name="uni0691.fina" unicode="&#x691;" horiz-adv-x="396" arabic-form="final" 
d="M287.5 47.5q-39.5 47.5 -66.5 135.5l79 48q14 -56 35 -79t58 -23h8l7 -64l-7 -65h-8q-66 0 -105.5 47.5zM119 -120q54 36 85 73t31 66q0 22 -12 73.5t-32 129.5q-8 28 -11 42l100 39q23 -70 37.5 -148.5t14.5 -135.5q0 -95 -77.5 -177t-202.5 -132l-52 109q65 25 119 61z
M186 440q24 -5 58 -5q52 0 73 12t21 28q0 11 -7.5 18t-22.5 7q-31 0 -65 -31t-57 -74l-39 30q31 57 72 96t84 39q38 0 59.5 -26t21.5 -59q0 -42 -38.5 -73t-116.5 -31q-52 0 -84.5 13.5t-34.5 14.5l18 56q34 -10 58 -15zM175.5 539.5q-4.5 53.5 -11.5 93.5l49 10
q7 -40 12.5 -99.5t2.5 -86.5l-50 8q2 21 -2.5 74.5z" />
    <glyph glyph-name="uni06A9.fina" unicode="&#x6a9;" horiz-adv-x="951" arabic-form="final" 
d="M846.5 30q-44.5 30 -89.5 88t-104 156l61 74q54 -86 90.5 -132.5t68 -66.5t67.5 -20h16l7 -64l-7 -65h-16q-49 0 -93.5 30zM151 41q-101 53 -110 150q-1 8 -1 24q0 42 11 89.5t28 87.5l87 -43q-30 -91 -26 -135q8 -43 82 -69.5t207 -26.5q2 -21 2 -64t-2 -65
q-177 -1 -278 52zM415 -12l-7 65l7 65h31q88 0 146 18.5t76 46.5q2 51 -50.5 122.5t-158.5 157.5l12 114l369 158l36 -104l-297 -128q36 -30 80 -81t77 -113t33 -117q0 -21 -6 -42q-21 -77 -106 -119t-211 -42z" />
    <glyph glyph-name="uni06A9.init" unicode="&#x6a9;" horiz-adv-x="456" arabic-form="initial" 
d="M-5 129h31q91 0 147.5 15t74.5 42q1 49 -52 120.5t-157 156.5l12 114l369 158l36 -104l-297 -128q66 -56 128 -143.5t62 -166.5q0 -22 -6 -43q-21 -75 -104.5 -112.5t-212.5 -37.5h-31v129z" />
    <glyph glyph-name="uni06A9.medi" unicode="&#x6a9;" horiz-adv-x="529" arabic-form="medial" 
d="M426 28q-43 28 -86.5 85t-102.5 156l59 73q55 -87 90.5 -131.5t65.5 -63t67 -18.5h15l6 -64l-6 -65h-15q-50 0 -93 28zM-5 129h31q91 0 147.5 15t74.5 42q1 49 -52 120.5t-157 156.5l12 114l369 158l36 -104l-297 -128q66 -56 128 -143.5t62 -166.5q0 -22 -6 -43
q-21 -75 -104.5 -112.5t-212.5 -37.5h-31v129z" />
    <glyph glyph-name="uni06AF.fina" unicode="&#x6af;" horiz-adv-x="940" arabic-form="final" 
d="M792.5 62q-66.5 62 -148.5 197l76 64q71 -106 118 -150t93 -44h14l7 -64l-7 -65h-14q-72 0 -138.5 62zM151 41q-101 53 -110 150q-1 8 -1 24q0 42 11 89.5t28 87.5l87 -43q-30 -91 -26 -135q8 -43 82 -69.5t207 -26.5q2 -21 2 -64t-2 -65q-177 -1 -278 52zM415 -12l-7 65
l7 65h31q89 0 145.5 15.5t73.5 42.5q1 47 -49 110.5t-157 148.5l12 115l369 156l36 -103l-297 -128q73 -61 129 -133.5t56 -147.5q0 -21 -6 -44q-22 -78 -105 -119.5t-207 -41.5zM479 668l322 134l16 -44l-344 -145z" />
    <glyph glyph-name="uni06AF.init" unicode="&#x6af;" horiz-adv-x="456" arabic-form="initial" 
d="M-5 129h31q89 0 144.5 14t75.5 40q4 44 -49 112.5t-158 151.5l12 115l369 156l36 -103l-297 -128q69 -59 127 -139t58 -155q0 -22 -6 -43q-22 -76 -103.5 -113t-208.5 -37h-31v129zM62 681l322 134l16 -44l-344 -145z" />
    <glyph glyph-name="uni06AF.medi" unicode="&#x6af;" horiz-adv-x="520" arabic-form="medial" 
d="M420 30.5q-43 30.5 -82 80.5t-103 143l-12 17l68 68q74 -111 123 -160.5t96 -49.5h16l7 -64l-7 -65h-16q-47 0 -90 30.5zM-5 129h31q89 0 144.5 14t75.5 40q4 44 -49 112.5t-158 151.5l12 115l369 156l36 -103l-297 -128q69 -59 127 -139t58 -155q0 -22 -6 -43
q-22 -76 -103.5 -113t-208.5 -37h-31v129zM62 681l322 134l16 -44l-344 -145z" />
    <glyph glyph-name="uni06BA.fina" unicode="&#x6ba;" horiz-adv-x="740" arabic-form="final" 
d="M642 49.5q-36 49.5 -68 140.5l70 42q18 -58 37.5 -80.5t56.5 -22.5h7l7 -64l-7 -65h-7q-60 0 -96 49.5zM157 107.5q-14 -47.5 -14 -95.5q0 -86 53 -129.5t153 -43.5q74 0 127.5 25.5t80.5 67t27 87.5q0 61 -61 244l95 49q62 -174 62 -293q0 -82 -40.5 -153t-116 -114
t-174.5 -43q-93 0 -163 37t-107.5 102.5t-37.5 149.5q0 61 21 129.5t48 124.5l87 -40q-26 -57 -40 -104.5z" />
    <glyph glyph-name="uni06C1.init" unicode="&#x6c1;" horiz-adv-x="402" arabic-form="initial" 
d="M31 129h45q102 0 144 18.5t42 57.5q-1 25 -21.5 86.5t-32.5 87.5l94 51q20 -45 40 -112t20 -118q-1 -98 -68 -149t-199 -51h-64v129zM-3 0l-6 65l6 64h41v-129h-41zM88 -333q-28 30 -28 78q0 56 36.5 118t94.5 98l47 -49q-46 -34 -69 -66.5t-29 -53.5q1 0 7 2t12 2
q31 0 54 -22.5t23 -55.5t-23.5 -56t-54.5 -23q-42 -2 -70 28z" />
    <glyph glyph-name="uni06BE.init" unicode="&#x6be;" horiz-adv-x="662" arabic-form="initial" 
d="M-3 129h14q161 0 237 25.5t85 80.5l1 12q0 38 -24.5 67.5t-60.5 29.5q-21 0 -42.5 -13.5t-35 -35t-13.5 -45.5q0 -36 44 -67.5t108 -50.5t120 -19q45 0 72.5 13.5t27.5 41.5q0 51 -112.5 109.5t-327.5 117.5l46 120q191 -60 298.5 -114t150 -104.5t42.5 -108.5
q0 -36 -15 -84q-17 -51 -69 -76.5t-125 -25.5q-81 0 -164.5 29.5t-138 82.5t-54.5 118q0 9 2 25q10 57 39 104.5t69 75.5t84 28q45 0 83 -30t60.5 -78.5t22.5 -101.5q0 -17 -3 -34q-13 -82 -59.5 -130.5t-131 -69.5t-216.5 -21h-14v129z" />
    <glyph glyph-name="uni06C7.fina" unicode="&#x6c7;" horiz-adv-x="473" arabic-form="final" 
d="M276 -87q77 54 77 139q0 59 -16 117t-45 95t-66 37q-21 0 -39.5 -16.5t-29.5 -41.5t-11 -47q0 -16 8 -29q16 -23 74 -30.5t154 -7.5h98l7 -64l-7 -65l-125 -1q-115 0 -185.5 18.5t-97.5 76.5q-17 35 -17 82q0 57 24 113.5t65.5 93t90.5 36.5q60 0 108 -52t74.5 -134
t26.5 -168q0 -135 -99 -228.5t-274 -126.5l-39 113q167 36 244 90zM214 546q40 12 61 43q15 23 15 49q0 22 -11 38.5t-29 16.5q-14 0 -24.5 -11t-10.5 -25q0 -21 22.5 -34.5t59.5 -10.5v-48q-18 -2 -25 -2q-42 0 -69.5 19.5t-33.5 55.5q-1 4 -1 13q0 38 28 66.5t62 28.5
q14 0 23 -4q27 -9 41 -35t14 -60q0 -47 -24 -85q-25 -41 -75 -62t-104 -22l-15 53q56 4 96 16z" />
    <glyph glyph-name="uni06C6.fina" unicode="&#x6c6;" horiz-adv-x="473" arabic-form="final" 
d="M276 -87q77 54 77 139q0 59 -16 117t-45 95t-66 37q-21 0 -39.5 -16.5t-29.5 -41.5t-11 -47q0 -16 8 -29q16 -23 74 -30.5t154 -7.5h98l7 -64l-7 -65l-125 -1q-115 0 -185.5 18.5t-97.5 76.5q-17 35 -17 82q0 57 24 113.5t65.5 93t90.5 36.5q60 0 108 -52t74.5 -134
t26.5 -168q0 -135 -99 -228.5t-274 -126.5l-39 113q167 36 244 90zM276 569.5q-19 -38.5 -31 -71.5l-45 -16q-11 33 -32 74.5t-41 70.5l40 38q13 -17 28.5 -48.5t24.5 -57.5q9 28 24.5 62t28.5 53l41 -37q-19 -29 -38 -67.5z" />
    <glyph glyph-name="uni06C9.fina" unicode="&#x6c9;" horiz-adv-x="473" arabic-form="final" 
d="M276 -87q77 54 77 139q0 59 -16 117t-45 95t-66 37q-21 0 -39.5 -16.5t-29.5 -41.5t-11 -47q0 -16 8 -29q16 -23 74 -30.5t154 -7.5h98l7 -64l-7 -65l-125 -1q-115 0 -185.5 18.5t-97.5 76.5q-17 35 -17 82q0 57 24 113.5t65.5 93t90.5 36.5q60 0 108 -52t74.5 -134
t26.5 -168q0 -135 -99 -228.5t-274 -126.5l-39 113q167 36 244 90zM245.5 523q-15.5 34 -24.5 62q-9 -26 -24.5 -57.5t-28.5 -48.5l-40 38q20 29 41 70.5t32 74.5l45 -16q12 -33 31 -71.5t38 -67.5l-41 -37q-13 19 -28.5 53z" />
    <glyph glyph-name="uni06CC.fina" unicode="&#x6cc;" horiz-adv-x="749" arabic-form="final" 
d="M190 -251.5q-70 33.5 -110 98t-40 154.5q0 61 21 132t48 125l87 -41q-26 -56 -40.5 -104t-14.5 -95q0 -86 53.5 -130t153.5 -44q56 0 106.5 13t85.5 33t45 38q-15 17 -74 52t-123 60l28 122q165 -33 289 -33h49l7 -64l-7 -65h-49q-123 0 -316 40l28 79q8 -3 78 -33
t128 -76t58 -88q-1 -48 -46 -96.5t-121 -79.5t-166 -31q-88 0 -158 33.5z" />
    <glyph glyph-name="uni06CC.init" unicode="&#x6cc;" horiz-adv-x="367" arabic-form="initial" 
d="M-5 129h45q102 0 144 18.5t42 57.5q-1 25 -21.5 86.5t-32.5 87.5l94 51q20 -45 40 -112t20 -118q-1 -98 -68 -149t-199 -51h-64v129zM183 -247l-80 80l53 53l27 27l27 -27l53 -53zM6 -247l-80 80l53 53l27 27l27 -27l53 -53z" />
    <glyph glyph-name="uni06CC.medi" unicode="&#x6cc;" horiz-adv-x="390" arabic-form="medial" 
d="M-5 129h8q78 0 121 7t61.5 21.5t24.5 39.5q3 14 3 30q0 25 -5 58.5t-6 41.5l93 18q8 -43 11 -89.5t3 -73.5q4 -23 24 -38t56 -15h6l7 -64l-7 -65h-6q-48 0 -86.5 26.5t-58.5 68.5l24 -5q-25 -49 -84.5 -69.5t-180.5 -20.5h-8v129zM177 -246l-80 80l53 53l27 27l27 -27
l53 -53zM0 -246l-80 80l53 53l27 27l27 -27l53 -53z" />
    <glyph glyph-name="uniFDFC" unicode="&#xfdfc;" horiz-adv-x="1450" arabic-form="isolated" 
d="M1171 -40q56 29 89.5 62t37.5 62q1 5 1 21q0 57 -22 229l104 23q18 -91 18 -194q0 -53 -6 -94q-13 -96 -96.5 -166t-213.5 -101l-35 113q67 16 123 45zM738 -240q-62 0 -120 8l21 100q16 -1 50 -1q69 0 146 8t130 21l31 -110q-125 -26 -258 -26zM726 711q31 0 48.5 -21.5
t18.5 -61.5q4 -81 7 -153.5t5 -126.5q1 -36 2 -61t2 -41q2 -58 9 -84.5t27.5 -38.5t65.5 -12q84 0 124 16.5t46 48.5q-1 39 -20 95.5t-34 89.5l94 52q19 -42 39 -112.5t20 -121.5q0 -99 -66.5 -148t-209.5 -49q-76 0 -118 27t-59.5 80t-20.5 142q-7 263 -12 368l-105 -25
l2 -43q4 -91 16 -419q4 -171 -67.5 -260.5t-212.5 -89.5q-77 0 -140 31.5t-100 90t-37 136.5q0 102 67 247l87 -41q-26 -54 -40 -100.5t-14 -90.5q0 -68 47 -106t131 -38q97 0 141 51t40 164q-11 286 -28 451l70 117l147 33q13 4 28 4z" />
    <glyph glyph-name="uni0622.fina" unicode="&#x622;" horiz-adv-x="270" arabic-form="final" 
d="M115 60.5q-45 60.5 -45 188.5q-2 217 -18 362l109 24q15 -127 15 -336v-35q-1 -56 5 -83t26 -39.5t62 -12.5h5l7 -64l-7 -65h-4q-110 0 -155 60.5zM-9 765.5q26 24.5 56 26.5q19 2 34.5 -2t37.5 -14q30 -15 51 -15q18 0 36 10.5t29 28.5l41 -36q-21 -32 -49 -49.5
t-57 -17.5q-17 0 -30.5 4t-34.5 13q-12 5 -24.5 9.5t-23.5 4.5q-20 0 -37 -14t-27 -39l-45 25q17 41 43 65.5z" />
    <glyph glyph-name="uni0623.fina" unicode="&#x623;" horiz-adv-x="270" arabic-form="final" 
d="M115 60.5q-45 60.5 -45 188.5q-2 217 -18 362l109 24q15 -127 15 -336v-35q-1 -56 5 -83t26 -39.5t62 -12.5h5l7 -64l-7 -65h-4q-110 0 -155 60.5zM87.5 732q-30.5 28 -30.5 68q0 33 21 62t52 36q14 3 26 3q26 0 69 -13l-15 -61q-31 11 -52 11q-25 0 -39.5 -14.5
t-10.5 -31.5q3 -12 16.5 -22.5t35.5 -10.5q8 0 13 1l-11 -61q-44 5 -74.5 33zM26 717l217 67v-62l-217 -67v62z" />
    <glyph glyph-name="uni0624.fina" unicode="&#x624;" horiz-adv-x="473" arabic-form="final" 
d="M276 -87q77 54 77 139q0 59 -16 117t-45 95t-66 37q-21 0 -39.5 -16.5t-29.5 -41.5t-11 -47q0 -16 8 -29q16 -23 74 -30.5t154 -7.5h98l7 -64l-7 -65l-125 -1q-115 0 -185.5 18.5t-97.5 76.5q-17 35 -17 82q0 57 24 113.5t65.5 93t90.5 36.5q60 0 108 -52t74.5 -134
t26.5 -168q0 -135 -99 -228.5t-274 -126.5l-39 113q167 36 244 90zM154.5 542q-30.5 28 -30.5 68q0 33 21 62t52 36q14 3 26 3q26 0 69 -13l-15 -61q-31 11 -52 11q-25 0 -39.5 -14.5t-10.5 -31.5q3 -12 16.5 -22.5t35.5 -10.5q8 0 13 1l-11 -61q-44 5 -74.5 33zM93 527
l217 67v-62l-217 -67v62z" />
    <glyph glyph-name="uni0625.fina" unicode="&#x625;" horiz-adv-x="277" arabic-form="final" 
d="M123 59q-45 59 -45 185q0 115 -6.5 248.5t-17.5 208.5l109 25q10 -71 16 -214.5t5 -247.5q-1 -55 5 -82.5t26 -40t62 -12.5h5l6 -64l-6 -65h-5q-109 0 -154 59zM95.5 -208q-30.5 28 -30.5 68q0 33 21 62t52 36q14 3 26 3q26 0 69 -13l-15 -61q-31 11 -52 11
q-25 0 -39.5 -14.5t-10.5 -31.5q3 -12 16.5 -22.5t35.5 -10.5q8 0 13 1l-11 -61q-44 5 -74.5 33zM34 -223l217 67v-62l-217 -67v62z" />
    <glyph glyph-name="uni0626.fina" unicode="&#x626;" horiz-adv-x="749" arabic-form="final" 
d="M190 -251.5q-70 33.5 -110 98t-40 154.5q0 61 21 132t48 125l87 -41q-26 -56 -40.5 -104t-14.5 -95q0 -86 53.5 -130t153.5 -44q56 0 106.5 13t85.5 33t45 38q-15 17 -74 52t-123 60l28 122q165 -33 289 -33h49l7 -64l-7 -65h-49q-123 0 -316 40l28 79q8 -3 78 -33
t128 -76t58 -88q-1 -48 -46 -96.5t-121 -79.5t-166 -31q-88 0 -158 33.5zM195.5 376q-30.5 28 -30.5 68q0 33 21 62t52 36q14 3 26 3q26 0 69 -13l-15 -61q-31 11 -52 11q-25 0 -39.5 -14.5t-10.5 -31.5q3 -12 16.5 -22.5t35.5 -10.5q8 0 13 1l-11 -61q-44 5 -74.5 33z
M134 361l217 67v-62l-217 -67v62z" />
    <glyph glyph-name="uni0626.init" unicode="&#x626;" horiz-adv-x="329" arabic-form="initial" 
d="M-5 129h53q74 0 107 17.5t33 53.5q0 23 -21.5 89t-32.5 90l94 51q19 -40 39.5 -110t20.5 -122q0 -97 -62 -147.5t-178 -50.5h-53v129zM72.5 536q-30.5 28 -30.5 68q0 33 21 62t52 36q14 3 26 3q26 0 69 -13l-15 -61q-31 11 -52 11q-25 0 -39.5 -14.5t-10.5 -31.5
q3 -12 16.5 -22.5t35.5 -10.5q8 0 13 1l-11 -61q-44 5 -74.5 33zM11 521l217 67v-62l-217 -67v62z" />
    <glyph glyph-name="uni0626.medi" unicode="&#x626;" horiz-adv-x="336" arabic-form="medial" 
d="M-5 129h7q88 1 122.5 23t34.5 73q0 23 -8 75l-4 27l94 18q13 -67 13 -163q5 -23 25 -38t55 -15h7l7 -64l-7 -65h-7q-48 0 -86 26.5t-58 68.5l24 -3q-23 -48 -76 -70t-136 -22h-7v129zM82.5 474q-30.5 28 -30.5 68q0 33 21 62t52 36q14 3 26 3q26 0 69 -13l-15 -61
q-31 11 -52 11q-25 0 -39.5 -14.5t-10.5 -31.5q3 -12 16.5 -22.5t35.5 -10.5q8 0 13 1l-11 -61q-44 5 -74.5 33zM21 459l217 67v-62l-217 -67v62z" />
    <glyph glyph-name="uni0627.fina" unicode="&#x627;" horiz-adv-x="277" arabic-form="final" 
d="M123 59q-45 59 -45 185q0 115 -6.5 248.5t-17.5 208.5l109 25q10 -71 16 -214.5t5 -247.5q-1 -55 5 -82.5t26 -40t62 -12.5h5l6 -64l-6 -65h-5q-109 0 -154 59z" />
    <glyph glyph-name="uni0628.fina" unicode="&#x628;" horiz-adv-x="947" arabic-form="final" 
d="M420 54q0 43 1 64q128 0 202 18t114.5 57t65.5 110l94 -11q-18 -57 -18 -92q0 -71 73 -71l7 -64l-8 -65q-42 0 -77 18.5t-55 52.5t-20 77l20 -3q-59 -86 -154.5 -121t-243.5 -35q-1 22 -1 65zM151 41q-101 53 -110 150q-1 8 -1 24q0 42 11 89.5t28 87.5l87 -43
q-30 -91 -26 -135q8 -43 82 -69.5t207 -26.5q2 -21 2 -64t-2 -65q-177 -1 -278 52zM445 -89l57 -57l28 -28l-85 -86l-85 86z" />
    <glyph glyph-name="uni0628.init" unicode="&#x628;" horiz-adv-x="329" arabic-form="initial" 
d="M-5 129h53q74 0 107 17.5t33 53.5q0 23 -21.5 89t-32.5 90l94 51q19 -40 39.5 -110t20.5 -122q0 -97 -62 -147.5t-178 -50.5h-53v129zM72 -84l57 -57l28 -28l-85 -86l-85 86z" />
    <glyph glyph-name="uni0628.medi" unicode="&#x628;" horiz-adv-x="336" arabic-form="medial" 
d="M-5 129h7q88 1 122.5 23t34.5 73q0 23 -8 75l-4 27l94 18q13 -67 13 -163q5 -23 25 -38t55 -15h7l7 -64l-7 -65h-7q-48 0 -86 26.5t-58 68.5l24 -3q-23 -48 -76 -70t-136 -22h-7v129zM58 -85l57 -57l28 -28l-85 -86l-85 86z" />
    <glyph glyph-name="uni0629.fina" unicode="&#x629;" horiz-adv-x="506" arabic-form="final" 
d="M239 49q-87 0 -142 41.5t-55 113.5q0 88 71 147.5t191 102.5l23 -116q-71 -16 -127.5 -48.5t-59.5 -62.5q-2 -24 24 -40t70 -16q49 0 104 21l25 -122q-64 -21 -124 -21zM364.5 53.5q-45.5 53.5 -60.5 177.5l-34 273l105 21q3 -22 4.5 -42t3.5 -38l22 -197q6 -51 15 -75.5
t26 -34t50 -9.5h17l7 -64l-7 -65h-17q-86 0 -131.5 53.5zM176 740l80 -80l-53 -53l-27 -27l-27 27l-53 53zM353 740l80 -80l-53 -53l-27 -27l-27 27l-53 53z" />
    <glyph glyph-name="uni062A.fina" unicode="&#x62a;" horiz-adv-x="947" arabic-form="final" 
d="M420 54q0 43 1 64q128 0 202 18t114.5 57t65.5 110l94 -11q-18 -57 -18 -92q0 -71 73 -71l7 -64l-8 -65q-42 0 -77 18.5t-55 52.5t-20 77l20 -3q-59 -86 -154.5 -121t-243.5 -35q-1 22 -1 65zM151 41q-101 53 -110 150q-1 8 -1 24q0 42 11 89.5t28 87.5l87 -43
q-30 -91 -26 -135q8 -43 82 -69.5t207 -26.5q2 -21 2 -64t-2 -65q-177 -1 -278 52zM366 471l80 -80l-53 -53l-27 -27l-27 27l-53 53zM543 471l80 -80l-53 -53l-27 -27l-27 27l-53 53z" />
    <glyph glyph-name="uni062A.init" unicode="&#x62a;" horiz-adv-x="367" arabic-form="initial" 
d="M-5 129h45q102 0 144 18.5t42 57.5q-1 25 -21.5 86.5t-32.5 87.5l94 51q20 -45 40 -112t20 -118q-1 -98 -68 -149t-199 -51h-64v129zM89 634l80 -80l-53 -53l-27 -27l-27 27l-53 53zM266 634l80 -80l-53 -53l-27 -27l-27 27l-53 53z" />
    <glyph glyph-name="uni062A.medi" unicode="&#x62a;" horiz-adv-x="390" arabic-form="medial" 
d="M-5 129h8q78 0 121 7t61.5 21.5t24.5 39.5q3 14 3 30q0 25 -5 58.5t-6 41.5l93 18q8 -43 11 -89.5t3 -73.5q4 -23 24 -38t56 -15h6l7 -64l-7 -65h-6q-48 0 -86.5 26.5t-58.5 68.5l24 -5q-25 -49 -84.5 -69.5t-180.5 -20.5h-8v129zM81 578l80 -80l-53 -53l-27 -27l-27 27
l-53 53zM258 578l80 -80l-53 -53l-27 -27l-27 27l-53 53z" />
    <glyph glyph-name="uni062B.fina" unicode="&#x62b;" horiz-adv-x="947" arabic-form="final" 
d="M420 54q0 43 1 64q128 0 202 18t114.5 57t65.5 110l94 -11q-18 -57 -18 -92q0 -71 73 -71l7 -64l-8 -65q-42 0 -77 18.5t-55 52.5t-20 77l20 -3q-59 -86 -154.5 -121t-243.5 -35q-1 22 -1 65zM151 41q-101 53 -110 150q-1 8 -1 24q0 42 11 89.5t28 87.5l87 -43
q-30 -91 -26 -135q8 -43 82 -69.5t207 -26.5q2 -21 2 -64t-2 -65q-177 -1 -278 52zM335 448l25 25l76 -75l-51 -51l-25 -25l-19 19q-47 47 -56 57zM547 473l75 -75l-75 -76l-50 50l-26 26zM408 535l45 45l67 -67l-67 -68l-67 68z" />
    <glyph glyph-name="uni062B.init" unicode="&#x62b;" horiz-adv-x="367" arabic-form="initial" 
d="M-5 129h45q102 0 144 18.5t42 57.5q-1 25 -21.5 86.5t-32.5 87.5l94 51q20 -45 40 -112t20 -118q-1 -98 -68 -149t-199 -51h-64v129zM63 607l25 25l76 -75l-51 -51l-25 -25l-19 19q-47 47 -56 57zM275 632l75 -75l-75 -76l-50 50l-26 26zM136 694l45 45l67 -67l-67 -68
l-67 68z" />
    <glyph glyph-name="uni062B.medi" unicode="&#x62b;" horiz-adv-x="390" arabic-form="medial" 
d="M-5 129h8q78 0 121 7t61.5 21.5t24.5 39.5q3 14 3 30q0 25 -5 58.5t-6 41.5l93 18q8 -43 11 -89.5t3 -73.5q4 -23 24 -38t56 -15h6l7 -64l-7 -65h-6q-48 0 -86.5 26.5t-58.5 68.5l24 -5q-25 -49 -84.5 -69.5t-180.5 -20.5h-8v129zM44 554l25 25l76 -75l-51 -51l-25 -25
l-19 19q-47 47 -56 57zM256 579l75 -75l-75 -76l-50 50l-26 26zM117 641l45 45l67 -67l-67 -68l-67 68z" />
    <glyph glyph-name="uni062C.fina" unicode="&#x62c;" horiz-adv-x="736" arabic-form="final" 
d="M602 234q0 -105 123 -105h16l7 -64l-7 -65h-16q-97 0 -152 59t-55 157q0 31 6 65l82 -9q-4 -28 -4 -38zM210 -345q-78 34 -123.5 97t-45.5 148q0 118 74.5 205t212.5 135t326 51l-20 -90q-69 31 -146 85q-69 49 -114.5 70.5t-88.5 22.5q-40 -1 -70.5 -23t-48.5 -51
l-73 53q35 70 84 107t110 37q57 0 111.5 -26.5t142.5 -89.5q50 -37 77 -54t58 -28l-14 -124q-154 1 -270 -35.5t-180.5 -97t-72.5 -130.5q-3 -47 30.5 -85t94 -59.5t137.5 -21.5q73 0 136 15t100 30l46 -100q-2 -1 -37.5 -20.5t-110 -37t-152.5 -17.5q-95 0 -173 34zM389 32
l57 -57l28 -28l-85 -86l-85 86z" />
    <glyph glyph-name="uni062C.init" unicode="&#x62c;" horiz-adv-x="692" arabic-form="initial" 
d="M-6 129h80q121 0 226.5 27.5t219.5 88.5q32 18 66 33t54 20l4 -81q-54 4 -103.5 19t-112.5 46q-91 47 -157 47q-39 0 -70 -22t-47 -51l-73 53q35 71 84 107.5t110 36.5q43 0 82.5 -14.5t110.5 -51.5q62 -31 102 -47t88 -26l4 -115q-28 -8 -92 -44q-9 -4 -27 -14
q-95 -50 -167.5 -80t-150 -45.5t-171.5 -15.5h-60v129zM332 -78l57 -57l28 -28l-85 -86l-85 86z" />
    <glyph glyph-name="uni062C.medi" unicode="&#x62c;" horiz-adv-x="757" arabic-form="medial" 
d="M492 165l68 59q10 -38 54 -66t111 -29h36l7 -64l-7 -65h-10q-212 1 -259 165zM-6 129h80q121 0 226.5 27.5t219.5 88.5q32 18 66 33t54 20l4 -81q-54 4 -103.5 19t-112.5 46q-91 47 -157 47q-39 0 -70 -22t-47 -51l-73 53q35 71 84 107.5t110 36.5q43 0 82.5 -14.5
t110.5 -51.5q62 -31 102 -47t88 -26l4 -115q-28 -8 -92 -44q-9 -4 -27 -14q-95 -50 -167.5 -80t-150 -45.5t-171.5 -15.5h-60v129zM332 -77l57 -57l28 -28l-85 -86l-85 86z" />
    <glyph glyph-name="uni062D.fina" unicode="&#x62d;" horiz-adv-x="736" arabic-form="final" 
d="M602 234q0 -105 123 -105h16l7 -64l-7 -65h-16q-97 0 -152 59t-55 157q0 31 6 65l82 -9q-4 -28 -4 -38zM210 -345q-78 34 -123.5 97t-45.5 148q0 118 74.5 205t212.5 135t326 51l-20 -90q-69 31 -146 85q-69 49 -114.5 70.5t-88.5 22.5q-40 -1 -70.5 -23t-48.5 -51
l-73 53q35 70 84 107t110 37q57 0 111.5 -26.5t142.5 -89.5q50 -37 77 -54t58 -28l-14 -124q-154 1 -270 -35.5t-180.5 -97t-72.5 -130.5q-3 -47 30.5 -85t94 -59.5t137.5 -21.5q73 0 136 15t100 30l46 -100q-2 -1 -37.5 -20.5t-110 -37t-152.5 -17.5q-95 0 -173 34z" />
    <glyph glyph-name="uni062D.init" unicode="&#x62d;" horiz-adv-x="692" arabic-form="initial" 
d="M-6 129h80q121 0 226.5 27.5t219.5 88.5q32 18 66 33t54 20l4 -81q-54 4 -103.5 19t-112.5 46q-91 47 -157 47q-39 0 -70 -22t-47 -51l-73 53q35 71 84 107.5t110 36.5q43 0 82.5 -14.5t110.5 -51.5q62 -31 102 -47t88 -26l4 -115q-28 -8 -92 -44q-9 -4 -27 -14
q-95 -50 -167.5 -80t-150 -45.5t-171.5 -15.5h-60v129z" />
    <glyph glyph-name="uni062D.medi" unicode="&#x62d;" horiz-adv-x="757" arabic-form="medial" 
d="M492 165l68 59q10 -38 54 -66t111 -29h36l7 -64l-7 -65h-10q-212 1 -259 165zM-6 129h80q121 0 226.5 27.5t219.5 88.5q32 18 66 33t54 20l4 -81q-54 4 -103.5 19t-112.5 46q-91 47 -157 47q-39 0 -70 -22t-47 -51l-73 53q35 71 84 107.5t110 36.5q43 0 82.5 -14.5
t110.5 -51.5q62 -31 102 -47t88 -26l4 -115q-28 -8 -92 -44q-9 -4 -27 -14q-95 -50 -167.5 -80t-150 -45.5t-171.5 -15.5h-60v129z" />
    <glyph glyph-name="uni062E.fina" unicode="&#x62e;" horiz-adv-x="736" arabic-form="final" 
d="M602 234q0 -105 123 -105h16l7 -64l-7 -65h-16q-97 0 -152 59t-55 157q0 31 6 65l82 -9q-4 -28 -4 -38zM210 -345q-78 34 -123.5 97t-45.5 148q0 118 74.5 205t212.5 135t326 51l-20 -90q-69 31 -146 85q-69 49 -114.5 70.5t-88.5 22.5q-40 -1 -70.5 -23t-48.5 -51
l-73 53q35 70 84 107t110 37q57 0 111.5 -26.5t142.5 -89.5q50 -37 77 -54t58 -28l-14 -124q-154 1 -270 -35.5t-180.5 -97t-72.5 -130.5q-3 -47 30.5 -85t94 -59.5t137.5 -21.5q73 0 136 15t100 30l46 -100q-2 -1 -37.5 -20.5t-110 -37t-152.5 -17.5q-95 0 -173 34z
M265 746l57 -57l28 -28l-85 -86l-85 86z" />
    <glyph glyph-name="uni062E.init" unicode="&#x62e;" horiz-adv-x="692" arabic-form="initial" 
d="M-6 129h80q121 0 226.5 27.5t219.5 88.5q32 18 66 33t54 20l4 -81q-54 4 -103.5 19t-112.5 46q-91 47 -157 47q-39 0 -70 -22t-47 -51l-73 53q35 71 84 107.5t110 36.5q43 0 82.5 -14.5t110.5 -51.5q62 -31 102 -47t88 -26l4 -115q-28 -8 -92 -44q-9 -4 -27 -14
q-95 -50 -167.5 -80t-150 -45.5t-171.5 -15.5h-60v129zM282 698l57 -57l28 -28l-85 -86l-85 86z" />
    <glyph glyph-name="uni062E.medi" unicode="&#x62e;" horiz-adv-x="757" arabic-form="medial" 
d="M492 165l68 59q10 -38 54 -66t111 -29h36l7 -64l-7 -65h-10q-212 1 -259 165zM-6 129h80q121 0 226.5 27.5t219.5 88.5q32 18 66 33t54 20l4 -81q-54 4 -103.5 19t-112.5 46q-91 47 -157 47q-39 0 -70 -22t-47 -51l-73 53q35 71 84 107.5t110 36.5q43 0 82.5 -14.5
t110.5 -51.5q62 -31 102 -47t88 -26l4 -115q-28 -8 -92 -44q-9 -4 -27 -14q-95 -50 -167.5 -80t-150 -45.5t-171.5 -15.5h-60v129zM282 698l57 -57l28 -28l-85 -86l-85 86z" />
    <glyph glyph-name="uni062F.fina" unicode="&#x62f;" horiz-adv-x="580" arabic-form="final" 
d="M462.5 36q-45.5 36 -80.5 114l-142 329l93 49l137 -324q18 -43 40.5 -59t63.5 -16h11l7 -64l-7 -65h-11q-66 0 -111.5 36zM120.5 18.5q-52.5 23.5 -94.5 53.5l49 92q35 -19 72.5 -32.5t88.5 -13.5q64 0 106 20t67 44l57 -78q-25 -28 -47.5 -48.5t-67 -40.5t-104.5 -20
q-74 0 -126.5 23.5z" />
    <glyph glyph-name="uni0630.fina" unicode="&#x630;" horiz-adv-x="580" arabic-form="final" 
d="M462.5 36q-45.5 36 -80.5 114l-142 329l93 49l137 -324q18 -43 40.5 -59t63.5 -16h11l7 -64l-7 -65h-11q-66 0 -111.5 36zM120.5 18.5q-52.5 23.5 -94.5 53.5l49 92q35 -19 72.5 -32.5t88.5 -13.5q64 0 106 20t67 44l57 -78q-25 -28 -47.5 -48.5t-67 -40.5t-104.5 -20
q-74 0 -126.5 23.5zM295 766l57 -57l28 -28l-85 -86l-85 86z" />
    <glyph glyph-name="uni0631.fina" unicode="&#x631;" horiz-adv-x="396" arabic-form="final" 
d="M287.5 47.5q-39.5 47.5 -66.5 135.5l79 48q14 -56 35 -79t58 -23h8l7 -64l-7 -65h-8q-66 0 -105.5 47.5zM119 -120q54 36 85 73t31 66q0 22 -12 73.5t-32 129.5q-8 28 -11 42l100 39q23 -70 37.5 -148.5t14.5 -135.5q0 -95 -77.5 -177t-202.5 -132l-52 109q65 25 119 61z
" />
    <glyph glyph-name="uni0632.fina" unicode="&#x632;" horiz-adv-x="396" arabic-form="final" 
d="M287.5 47.5q-39.5 47.5 -66.5 135.5l79 48q14 -56 35 -79t58 -23h8l7 -64l-7 -65h-8q-66 0 -105.5 47.5zM119 -120q54 36 85 73t31 66q0 22 -12 73.5t-32 129.5q-8 28 -11 42l100 39q23 -70 37.5 -148.5t14.5 -135.5q0 -95 -77.5 -177t-202.5 -132l-52 109q65 25 119 61z
M213 567l57 -57l28 -28l-85 -86l-85 86z" />
    <glyph glyph-name="uni0633.fina" unicode="&#x633;" horiz-adv-x="1266" arabic-form="final" 
d="M1163.5 35.5q-43.5 35.5 -65.5 102.5q-11 35 -36 169l93 25q12 -65 19 -99.5t14 -52.5q8 -25 27 -38t51 -13h6l6 -64l-7 -65h-5q-59 0 -102.5 35.5zM1006 129h3q34 0 62.5 18t30.5 42l79 -10q-4 -49 -28.5 -90t-62 -65t-81.5 -24h-3v129zM737 129h4q53 0 85 60
q20 39 34 121l94 -4q-12 -60 -12 -97q0 -80 66 -80h3l6 -64l-6 -65h-3q-55 0 -91 31t-49 87l23 1q-27 -55 -65.5 -87t-85.5 -32h-3v129zM636.5 52q-40.5 52 -58.5 132l68 42q12 -37 22.5 -56.5t29 -30t49.5 -10.5l-6 -129q-64 0 -104.5 52zM186 -254q-70 37 -107.5 102.5
t-37.5 149.5q0 61 21 129.5t48 124.5l87 -40q-26 -57 -40 -104.5t-14 -95.5q0 -86 53 -129.5t153 -43.5q74 0 127.5 25.5t80.5 67t27 87.5q0 61 -61 244l95 49q62 -175 62 -293q0 -82 -40.5 -153t-116 -114t-174.5 -43q-93 0 -163 37z" />
    <glyph glyph-name="uni0633.init" unicode="&#x633;" horiz-adv-x="756" arabic-form="initial" 
d="M553 129h2q32 0 49.5 18.5t17.5 49.5q0 30 -19 86.5t-35 94.5l92 51q20 -43 40.5 -112.5t20.5 -122.5q0 -54 -21 -98t-59 -70t-86 -26h-2v129zM283 129h4q53 0 85 60q20 39 34 121l94 -4q-12 -60 -12 -97q0 -80 66 -80h3l6 -64l-6 -65h-3q-55 0 -91 31t-49 87l23 1
q-27 -55 -65.5 -87t-85.5 -32h-3v129zM-2 0l-7 65l7 64h4q33 0 64 15t47 37q21 26 32.5 57t19.5 65l94 -10q0 -1 -5 -23q-15 -58 -15 -86t11 -41.5t35 -13.5h2l7 -64l-7 -65h-4q-44 0 -75.5 24.5t-41.5 65.5q-32 -44 -74 -67t-91 -23h-3z" />
    <glyph glyph-name="uni0633.medi" unicode="&#x633;" horiz-adv-x="811" arabic-form="medial" 
d="M709.5 35.5q-43.5 35.5 -65.5 102.5q-11 35 -36 169l93 25q12 -65 19 -99.5t14 -52.5q8 -25 27 -38t51 -13h6l6 -64l-7 -65h-5q-59 0 -102.5 35.5zM552 129h3q34 0 62.5 18t30.5 42l79 -10q-4 -49 -28.5 -90t-62 -65t-81.5 -24h-3v129zM283 129h4q53 0 85 60
q20 39 34 121l94 -4q-12 -60 -12 -97q0 -80 66 -80h3l6 -64l-6 -65h-3q-55 0 -91 31t-49 87l23 1q-27 -55 -65.5 -87t-85.5 -32h-3v129zM-2 0l-7 65l7 64h4q33 0 64 15t47 37q21 26 32.5 57t19.5 65l94 -10q0 -1 -5 -23q-15 -58 -15 -86t11 -41.5t35 -13.5h2l7 -64l-7 -65
h-4q-44 0 -75.5 24.5t-41.5 65.5q-32 -44 -74 -67t-91 -23h-3z" />
    <glyph glyph-name="uni0634.fina" unicode="&#x634;" horiz-adv-x="1266" arabic-form="final" 
d="M1163.5 35.5q-43.5 35.5 -65.5 102.5q-11 35 -36 169l93 25q12 -65 19 -99.5t14 -52.5q8 -25 27 -38t51 -13h6l6 -64l-7 -65h-5q-59 0 -102.5 35.5zM1006 129h3q34 0 62.5 18t30.5 42l79 -10q-4 -49 -28.5 -90t-62 -65t-81.5 -24h-3v129zM737 129h4q53 0 85 60
q20 39 34 121l94 -4q-12 -60 -12 -97q0 -80 66 -80h3l6 -64l-6 -65h-3q-55 0 -91 31t-49 87l23 1q-27 -55 -65.5 -87t-85.5 -32h-3v129zM636.5 52q-40.5 52 -58.5 132l68 42q12 -37 22.5 -56.5t29 -30t49.5 -10.5l-6 -129q-64 0 -104.5 52zM186 -254q-70 37 -107.5 102.5
t-37.5 149.5q0 61 21 129.5t48 124.5l87 -40q-26 -57 -40 -104.5t-14 -95.5q0 -86 53 -129.5t153 -43.5q74 0 127.5 25.5t80.5 67t27 87.5q0 61 -61 244l95 49q62 -175 62 -293q0 -82 -40.5 -153t-116 -114t-174.5 -43q-93 0 -163 37zM787 545l25 25l76 -75l-51 -51l-25 -25
l-19 19q-47 47 -56 57zM999 570l75 -75l-75 -76l-50 50l-26 26zM860 632l45 45l67 -67l-67 -68l-67 68z" />
    <glyph glyph-name="uni0634.init" unicode="&#x634;" horiz-adv-x="756" arabic-form="initial" 
d="M553 129h2q32 0 49.5 18.5t17.5 49.5q0 30 -19 86.5t-35 94.5l92 51q20 -43 40.5 -112.5t20.5 -122.5q0 -54 -21 -98t-59 -70t-86 -26h-2v129zM283 129h4q53 0 85 60q20 39 34 121l94 -4q-12 -60 -12 -97q0 -80 66 -80h3l6 -64l-6 -65h-3q-55 0 -91 31t-49 87l23 1
q-27 -55 -65.5 -87t-85.5 -32h-3v129zM-2 0l-7 65l7 64h4q33 0 64 15t47 37q21 26 32.5 57t19.5 65l94 -10q0 -1 -5 -23q-15 -58 -15 -86t11 -41.5t35 -13.5h2l7 -64l-7 -65h-4q-44 0 -75.5 24.5t-41.5 65.5q-32 -44 -74 -67t-91 -23h-3zM333 579l25 25l76 -75l-51 -51
l-25 -25l-19 19q-47 47 -56 57zM545 604l75 -75l-75 -76l-50 50l-26 26zM406 666l45 45l67 -67l-67 -68l-67 68z" />
    <glyph glyph-name="uni0634.medi" unicode="&#x634;" horiz-adv-x="811" arabic-form="medial" 
d="M709.5 35.5q-43.5 35.5 -65.5 102.5q-11 35 -36 169l93 25q12 -65 19 -99.5t14 -52.5q8 -25 27 -38t51 -13h6l6 -64l-7 -65h-5q-59 0 -102.5 35.5zM552 129h3q34 0 62.5 18t30.5 42l79 -10q-4 -49 -28.5 -90t-62 -65t-81.5 -24h-3v129zM283 129h4q53 0 85 60
q20 39 34 121l94 -4q-12 -60 -12 -97q0 -80 66 -80h3l6 -64l-6 -65h-3q-55 0 -91 31t-49 87l23 1q-27 -55 -65.5 -87t-85.5 -32h-3v129zM-2 0l-7 65l7 64h4q33 0 64 15t47 37q21 26 32.5 57t19.5 65l94 -10q0 -1 -5 -23q-15 -58 -15 -86t11 -41.5t35 -13.5h2l7 -64l-7 -65
h-4q-44 0 -75.5 24.5t-41.5 65.5q-32 -44 -74 -67t-91 -23h-3zM347 539l25 25l76 -75l-51 -51l-25 -25l-19 19q-47 47 -56 57zM559 564l75 -75l-75 -76l-50 50l-26 26zM420 626l45 45l67 -67l-67 -68l-67 68z" />
    <glyph glyph-name="uni0635.fina" unicode="&#x635;" horiz-adv-x="1289" arabic-form="final" 
d="M186 -254q-70 37 -107.5 102.5t-37.5 149.5q0 61 21 129.5t48 124.5l87 -40q-26 -57 -40 -104.5t-14 -95.5q0 -86 53 -129.5t153 -43.5q74 0 127.5 25.5t80.5 67t27 87.5q0 40 -19.5 106.5t-39.5 116.5l95 49q60 -140 60 -272q0 -82 -40.5 -153t-116 -114t-174.5 -43
q-93 0 -163 37zM681 30q-81 52 -131 175l83 54q26 -65 53.5 -97.5t70.5 -45t118 -12.5q81 0 144 21t97.5 53.5t34.5 65.5q0 26 -24.5 45t-66.5 19q-87 0 -170.5 -76t-141.5 -182l-74 53q41 86 100.5 161t131 121.5t144.5 46.5q56 0 100.5 -24t70 -66.5t25.5 -95.5
q0 -80 -48 -141t-133 -94t-193 -33q-110 0 -191 52zM1294 129l7 -64l-7 -65q-104 0 -163.5 6.5t-92.5 31.5l54 77q117 14 202 14z" />
    <glyph glyph-name="uni0635.init" unicode="&#x635;" horiz-adv-x="872" arabic-form="initial" 
d="M-6 129h15q48 0 77.5 21t47.5 66t29 121l93 -19q-6 -37 -6 -68q0 -78 42 -111t140 -33q89 0 159 20.5t108.5 53t38.5 65.5q0 28 -24 46.5t-66 18.5q-82 0 -165.5 -69.5t-152.5 -195.5l-74 53q78 157 179.5 246t201.5 89q59 0 105.5 -26.5t70.5 -73t19 -104.5
q-7 -76 -58.5 -132.5t-138 -87t-195.5 -30.5q-197 0 -248 122q-29 -49 -72.5 -75t-111.5 -26h-14v129z" />
    <glyph glyph-name="uni0635.medi" unicode="&#x635;" horiz-adv-x="872" arabic-form="medial" 
d="M685.5 6q-56.5 6 -89.5 32l60 69q62 10 113.5 16t102.5 6h5l7 -64l-7 -65h-5q-130 0 -186.5 6zM-6 129h15q48 0 77.5 21t47.5 66t29 121l93 -19q-6 -37 -6 -68q0 -78 42 -111t140 -33q89 0 159 20.5t108.5 53t38.5 65.5q0 28 -24 46.5t-66 18.5q-82 0 -165.5 -69.5
t-152.5 -195.5l-74 53q78 157 179.5 246t201.5 89q59 0 105.5 -26.5t70.5 -73t19 -104.5q-7 -76 -58.5 -132.5t-138 -87t-195.5 -30.5q-197 0 -248 122q-29 -49 -72.5 -75t-111.5 -26h-14v129z" />
    <glyph glyph-name="uni0636.fina" unicode="&#x636;" horiz-adv-x="1288" arabic-form="final" 
d="M186 -254q-70 37 -107.5 102.5t-37.5 149.5q0 61 21 129.5t48 124.5l87 -40q-26 -57 -40 -104.5t-14 -95.5q0 -86 53 -129.5t153 -43.5q74 0 127.5 25.5t80.5 67t27 87.5q0 40 -19.5 106.5t-39.5 116.5l95 49q60 -140 60 -272q0 -82 -40.5 -153t-116 -114t-174.5 -43
q-93 0 -163 37zM681 30q-81 52 -131 175l83 54q26 -65 53.5 -97.5t70.5 -45t118 -12.5q81 0 144 21t97.5 53.5t34.5 65.5q0 26 -24.5 45t-66.5 19q-87 0 -170.5 -76t-141.5 -182l-74 53q41 86 100.5 161t131 121.5t144.5 46.5q56 0 100.5 -24t70 -66.5t25.5 -95.5
q0 -80 -48 -141t-133 -94t-193 -33q-110 0 -191 52zM1294 129l7 -64l-7 -65q-104 0 -163.5 6.5t-92.5 31.5l54 77q117 14 202 14zM1014 681l57 -57l28 -28l-85 -86l-85 86z" />
    <glyph glyph-name="uni0636.init" unicode="&#x636;" horiz-adv-x="873" arabic-form="initial" 
d="M-6 129h15q48 0 77.5 21t47.5 66t29 121l93 -19q-6 -37 -6 -68q0 -78 42 -111t140 -33q89 0 159 20.5t108.5 53t38.5 65.5q0 28 -24 46.5t-66 18.5q-82 0 -165.5 -69.5t-152.5 -195.5l-74 53q78 157 179.5 246t201.5 89q59 0 105.5 -26.5t70.5 -73t19 -104.5
q-7 -76 -58.5 -132.5t-138 -87t-195.5 -30.5q-197 0 -248 122q-29 -49 -72.5 -75t-111.5 -26h-14v129zM600 676l57 -57l28 -28l-85 -86l-85 86z" />
    <glyph glyph-name="uni0636.medi" unicode="&#x636;" horiz-adv-x="872" arabic-form="medial" 
d="M685.5 6q-56.5 6 -89.5 32l60 69q62 10 113.5 16t102.5 6h5l7 -64l-7 -65h-5q-130 0 -186.5 6zM-6 129h15q48 0 77.5 21t47.5 66t29 121l93 -19q-6 -37 -6 -68q0 -78 42 -111t140 -33q89 0 159 20.5t108.5 53t38.5 65.5q0 28 -24 46.5t-66 18.5q-82 0 -165.5 -69.5
t-152.5 -195.5l-74 53q78 157 179.5 246t201.5 89q59 0 105.5 -26.5t70.5 -73t19 -104.5q-7 -76 -58.5 -132.5t-138 -87t-195.5 -30.5q-197 0 -248 122q-29 -49 -72.5 -75t-111.5 -26h-14v129zM600 676l57 -57l28 -28l-85 -86l-85 86z" />
    <glyph glyph-name="uni0637.fina" unicode="&#x637;" horiz-adv-x="784" arabic-form="final" 
d="M635 123q106 6 159 6l7 -64l-6 -65q-115 0 -189 8.5t-107 31.5l65 79zM192.5 128.5q72.5 -15.5 154.5 -15.5q89 0 158 21t107 54t38 66q0 27 -24.5 45.5t-66.5 18.5q-81 0 -165 -71t-155 -201l-75 54q81 159 183 249.5t203 91.5q59 0 105 -27t70 -73.5t19 -103.5
q-7 -76 -59 -133t-139 -87.5t-196 -30.5q-89 0 -172 17.5t-149 47.5l37 118q54 -25 126.5 -40.5zM235 293q0 98 -10.5 225t-20.5 183l110 25q9 -51 16 -149t7 -198q0 -80 -6 -152l-100 -23q4 50 4 89z" />
    <glyph glyph-name="uni0637.init" unicode="&#x637;" horiz-adv-x="699" arabic-form="initial" 
d="M258 128q89 0 159 20.5t108 53t38 66.5q0 26 -23.5 44.5t-65.5 18.5q-81 0 -168 -73.5t-158 -203.5l-74 53q82 163 184.5 254.5t204.5 92.5q56 0 100.5 -24t69.5 -66t25 -95q0 -82 -51 -143t-141 -93.5t-203 -32.5h-268v129zM147 293q0 97 -10.5 224t-20.5 184l110 25
q9 -51 16 -146.5t7 -193.5q0 -79 -6 -151l-99 -24q3 35 3 82z" />
    <glyph glyph-name="uni0637.medi" unicode="&#x637;" horiz-adv-x="697" arabic-form="medial" 
d="M540 123q106 6 159 6l7 -64l-7 -65q-115 0 -188.5 8.5t-107.5 31.5l66 79zM258 128q89 0 159 20.5t108 53t38 66.5q0 26 -23.5 44.5t-65.5 18.5q-81 0 -168 -73.5t-158 -203.5l-74 53q82 163 184.5 254.5t204.5 92.5q56 0 100.5 -24t69.5 -66t25 -95q0 -82 -51 -143
t-141 -93.5t-203 -32.5h-268v129zM147 293q0 97 -10.5 224t-20.5 184l110 25q9 -51 16 -146.5t7 -193.5q0 -79 -6 -151l-99 -24q3 35 3 82z" />
    <glyph glyph-name="uni0638.fina" unicode="&#x638;" horiz-adv-x="784" arabic-form="final" 
d="M635 123q106 6 159 6l7 -64l-6 -65q-115 0 -189 8.5t-107 31.5l65 79zM192.5 128.5q72.5 -15.5 154.5 -15.5q89 0 158 21t107 54t38 66q0 27 -24.5 45.5t-66.5 18.5q-81 0 -165 -71t-155 -201l-75 54q81 159 183 249.5t203 91.5q59 0 105 -27t70 -73.5t19 -103.5
q-7 -76 -59 -133t-139 -87.5t-196 -30.5q-89 0 -172 17.5t-149 47.5l37 118q54 -25 126.5 -40.5zM235 293q0 98 -10.5 225t-20.5 183l110 25q9 -51 16 -149t7 -198q0 -80 -6 -152l-100 -23q4 50 4 89zM544 725l57 -57l28 -28l-85 -86l-85 86z" />
    <glyph glyph-name="uni0638.init" unicode="&#x638;" horiz-adv-x="699" arabic-form="initial" 
d="M258 128q89 0 159 20.5t108 53t38 66.5q0 26 -23.5 44.5t-65.5 18.5q-81 0 -168 -73.5t-158 -203.5l-74 53q82 163 184.5 254.5t204.5 92.5q56 0 100.5 -24t69.5 -66t25 -95q0 -82 -51 -143t-141 -93.5t-203 -32.5h-268v129zM147 293q0 97 -10.5 224t-20.5 184l110 25
q9 -51 16 -146.5t7 -193.5q0 -79 -6 -151l-99 -24q3 35 3 82zM453 725l57 -57l28 -28l-85 -86l-85 86z" />
    <glyph glyph-name="uni0638.medi" unicode="&#x638;" horiz-adv-x="697" arabic-form="medial" 
d="M540 123q106 6 159 6l7 -64l-7 -65q-115 0 -188.5 8.5t-107.5 31.5l66 79zM258 128q89 0 159 20.5t108 53t38 66.5q0 26 -23.5 44.5t-65.5 18.5q-81 0 -168 -73.5t-158 -203.5l-74 53q82 163 184.5 254.5t204.5 92.5q56 0 100.5 -24t69.5 -66t25 -95q0 -82 -51 -143
t-141 -93.5t-203 -32.5h-268v129zM147 293q0 97 -10.5 224t-20.5 184l110 25q9 -51 16 -146.5t7 -193.5q0 -79 -6 -151l-99 -24q3 35 3 82zM453 725l57 -57l28 -28l-85 -86l-85 86z" />
    <glyph glyph-name="uni0639.fina" unicode="&#x639;" horiz-adv-x="587" arabic-form="final" 
d="M592 129l7 -64l-7 -65h-20q-108 0 -192 36.5t-153 102t-148 169.5l3 85q43 43 109 65.5t136 22.5q82 0 144 -29.5t76 -81.5q5 -18 5 -34q0 -64 -60 -126t-155 -103q-90 -40 -142.5 -78.5t-52.5 -86.5q-2 -7 -2 -21q0 -35 24 -64.5t68.5 -46.5t101.5 -17q64 0 115.5 14
t80.5 29l46 -100q-42 -32 -108 -52t-134 -20q-81 0 -148 33t-106 90.5t-39 128.5q0 14 4 42q11 68 48 115.5t84.5 77t111.5 56.5q161 69 161 123q-10 18 -42.5 29t-73.5 11q-38 0 -74.5 -9.5t-63.5 -28.5q56 -69 108 -112.5t117 -67t151 -23.5h20z" />
    <glyph glyph-name="uni0639.init" unicode="&#x639;" horiz-adv-x="530" arabic-form="initial" 
d="M-5 129h12q167 0 277.5 13t189.5 41l26 -114q-82 -34 -199.5 -51.5t-293.5 -17.5h-12v129zM315 31q-62 0 -118 26.5t-91 75.5t-35 112q0 58 29.5 108.5t79.5 81t108 30.5q47 0 92 -20t84 -53l-43 -87q-69 32 -125 32q-37 0 -67 -13.5t-46.5 -35t-16.5 -44.5q0 -26 22 -50
t58.5 -37.5t79.5 -10.5l8 -114z" />
    <glyph glyph-name="uni0639.medi" unicode="&#x639;" horiz-adv-x="561" arabic-form="medial" 
d="M-5 129h25q129 0 214.5 31.5t128 72t57.5 74.5q-10 18 -41.5 29t-72.5 11q-38 0 -74.5 -10t-63.5 -29q85 -96 167.5 -137.5t201.5 -41.5h28l7 -64l-7 -65h-28q-108 0 -185.5 27t-147 87t-155.5 170l4 85q43 43 108.5 65.5t135.5 22.5q82 0 144.5 -29.5t76.5 -81.5
q3 -12 3 -24q0 -66 -71 -142t-187 -128t-243 -52h-25v129z" />
    <glyph glyph-name="uni063A.fina" unicode="&#x63a;" horiz-adv-x="587" arabic-form="final" 
d="M592 129l7 -64l-7 -65h-20q-108 0 -192 36.5t-153 102t-148 169.5l3 85q43 43 109 65.5t136 22.5q82 0 144 -29.5t76 -81.5q5 -18 5 -34q0 -64 -60 -126t-155 -103q-90 -40 -142.5 -78.5t-52.5 -86.5q-2 -7 -2 -21q0 -35 24 -64.5t68.5 -46.5t101.5 -17q64 0 115.5 14
t80.5 29l46 -100q-42 -32 -108 -52t-134 -20q-81 0 -148 33t-106 90.5t-39 128.5q0 14 4 42q11 68 48 115.5t84.5 77t111.5 56.5q161 69 161 123q-10 18 -42.5 29t-73.5 11q-38 0 -74.5 -9.5t-63.5 -28.5q56 -69 108 -112.5t117 -67t151 -23.5h20zM315 697l57 -57l28 -28
l-85 -86l-85 86z" />
    <glyph glyph-name="uni063A.init" unicode="&#x63a;" horiz-adv-x="530" arabic-form="initial" 
d="M-5 129h12q167 0 277.5 13t189.5 41l26 -114q-82 -34 -199.5 -51.5t-293.5 -17.5h-12v129zM315 31q-62 0 -118 26.5t-91 75.5t-35 112q0 58 29.5 108.5t79.5 81t108 30.5q47 0 92 -20t84 -53l-43 -87q-69 32 -125 32q-37 0 -67 -13.5t-46.5 -35t-16.5 -44.5q0 -26 22 -50
t58.5 -37.5t79.5 -10.5l8 -114zM273 707l57 -57l28 -28l-85 -86l-85 86z" />
    <glyph glyph-name="uni063A.medi" unicode="&#x63a;" horiz-adv-x="561" arabic-form="medial" 
d="M-5 129h25q129 0 214.5 31.5t128 72t57.5 74.5q-10 18 -41.5 29t-72.5 11q-38 0 -74.5 -10t-63.5 -29q85 -96 167.5 -137.5t201.5 -41.5h28l7 -64l-7 -65h-28q-108 0 -185.5 27t-147 87t-155.5 170l4 85q43 43 108.5 65.5t135.5 22.5q82 0 144.5 -29.5t76.5 -81.5
q3 -12 3 -24q0 -66 -71 -142t-187 -128t-243 -52h-25v129zM290 686l57 -57l28 -28l-85 -86l-85 86z" />
    <glyph glyph-name="uni0641.fina" unicode="&#x641;" horiz-adv-x="892" arabic-form="final" 
d="M420 -11l-7 65l7 64h12q141 0 212.5 30t93.5 87q1 4 1 13q0 34 -22 62.5t-57 28.5q-32 0 -56 -27.5t-29 -63.5q0 -30 25.5 -57.5t74.5 -44.5t115 -17h107l7 -64l-7 -65h-61q-102 0 -183.5 31.5t-127.5 85t-46 116.5q0 9 2 25q8 56 35.5 103t67 74t83.5 27q49 0 87.5 -31
t59.5 -80t21 -100q0 -10 -2 -28q-16 -115 -119 -174.5t-282 -59.5h-12zM151 41q-101 53 -110 150q-1 8 -1 24q0 42 11 89.5t28 87.5l87 -43q-30 -91 -26 -135q8 -43 82 -69.5t207 -26.5q2 -21 2 -64t-2 -65q-177 -1 -278 52zM672 691l57 -57l28 -28l-85 -86l-85 86z" />
    <glyph glyph-name="uni0641.init" unicode="&#x641;" horiz-adv-x="461" arabic-form="initial" 
d="M-6 129h14q160 0 238 25t89 90q0 53 -15.5 107t-43 89.5t-63.5 35.5q-21 0 -39.5 -14.5t-29.5 -36t-11 -41.5q0 -18 9 -30q15 -21 55.5 -33.5t91.5 -12.5q35 0 69 6v-116q-52 -10 -94 -10q-70 0 -124.5 23.5t-78.5 70.5q-18 35 -18 84q0 54 23.5 106t65 85t90.5 33
q60 0 107 -49.5t71.5 -127.5t19.5 -160q-5 -121 -108 -187t-304 -66h-14v129zM207 828l57 -57l28 -28l-85 -86l-85 86z" />
    <glyph glyph-name="uni0641.medi" unicode="&#x641;" horiz-adv-x="472" arabic-form="medial" 
d="M-7 129h24q102 0 164 11.5t94 34.5t46 60q3 23 -6 47.5t-27.5 40.5t-45.5 16q-32 0 -56 -27.5t-29 -63.5q1 -30 26.5 -57t74.5 -44.5t115 -17.5h106l7 -64l-7 -65h-60q-102 0 -184 31.5t-128 85t-46 116.5q0 9 2 25q9 57 36.5 103.5t67 73.5t83.5 27q49 0 87 -30.5
t59 -79t21 -99.5q0 -10 -2 -30q-16 -114 -114.5 -168.5t-283.5 -54.5h-24v129zM250 690l57 -57l28 -28l-85 -86l-85 86z" />
    <glyph glyph-name="uni0642.fina" unicode="&#x642;" horiz-adv-x="714" arabic-form="final" 
d="M186 -254q-70 37 -107.5 102.5t-37.5 149.5q0 61 21 129.5t48 124.5l87 -40q-26 -58 -40 -104.5t-14 -95.5q0 -84 53.5 -128.5t152.5 -44.5q96 0 160 43.5t77 117.5q-108 1 -177.5 20.5t-96.5 75.5q-17 35 -17 83q0 56 24 112t65.5 92t89.5 36q53 0 96.5 -41.5t71.5 -108
t37 -140.5h40l7 -64l-7 -65h-40q-11 -90 -56 -156t-115.5 -100.5t-158.5 -34.5q-93 0 -163 37zM540 250q-31 50 -77 50q-21 0 -38.5 -16t-28 -40t-10.5 -46q0 -18 7 -29q16 -23 64.5 -31t126.5 -9q-13 71 -44 121zM383 647l80 -80l-53 -53l-27 -27l-27 27l-53 53zM560 647
l80 -80l-53 -53l-27 -27l-27 27l-53 53z" />
    <glyph glyph-name="uni0642.init" unicode="&#x642;" horiz-adv-x="461" arabic-form="initial" 
d="M-6 129h14q160 0 238 25t89 90q0 53 -15.5 107t-43 89.5t-63.5 35.5q-21 0 -39.5 -14.5t-29.5 -36t-11 -41.5q0 -18 9 -30q15 -21 55.5 -33.5t91.5 -12.5q35 0 69 6v-116q-52 -10 -94 -10q-70 0 -124.5 23.5t-78.5 70.5q-18 35 -18 84q0 54 23.5 106t65 85t90.5 33
q60 0 107 -49.5t71.5 -127.5t19.5 -160q-5 -121 -108 -187t-304 -66h-14v129zM135 807l80 -80l-53 -53l-27 -27l-27 27l-53 53zM312 807l80 -80l-53 -53l-27 -27l-27 27l-53 53z" />
    <glyph glyph-name="uni0642.medi" unicode="&#x642;" horiz-adv-x="472" arabic-form="medial" 
d="M-7 129h24q102 0 164 11.5t94 34.5t46 60q3 23 -6 47.5t-27.5 40.5t-45.5 16q-32 0 -56 -27.5t-29 -63.5q1 -30 26.5 -57t74.5 -44.5t115 -17.5h106l7 -64l-7 -65h-60q-102 0 -184 31.5t-128 85t-46 116.5q0 9 2 25q9 57 36.5 103.5t67 73.5t83.5 27q49 0 87 -30.5
t59 -79t21 -99.5q0 -10 -2 -30q-16 -114 -114.5 -168.5t-283.5 -54.5h-24v129zM161 675l80 -80l-53 -53l-27 -27l-27 27l-53 53zM338 675l80 -80l-53 -53l-27 -27l-27 27l-53 53z" />
    <glyph glyph-name="uni0643.fina" unicode="&#x643;" horiz-adv-x="820" arabic-form="final" 
d="M730 29.5q-36 29.5 -56.5 80.5t-22.5 113l-1 28q-8 351 -23 450l109 24q14 -96 21 -507q2 -49 14 -69t42 -20h11l7 -64l-7 -65h-11q-47 0 -83 29.5zM151 41q-101 53 -110 150q-1 8 -1 24q0 42 11 89.5t28 87.5l87 -43q-30 -91 -26 -135q8 -43 82 -69.5t207 -26.5
q2 -21 2 -64t-2 -65q-177 -1 -278 52zM419 118h6q123 0 175 24.5t51 84.5q0 12 9 18.5t23 6.5q19 0 35.5 -11t16.5 -27q2 -104 -76 -164.5t-233 -60.5h-7v129zM491 425l-69 -32q49 -44 49 -83q0 -35 -37.5 -53t-96.5 -14l7 57q69 0 83 14q-4 12 -28.5 29.5t-40.5 24.5l3 64
l110 49z" />
    <glyph glyph-name="uni0643.init" unicode="&#x643;" horiz-adv-x="456" arabic-form="initial" 
d="M-5 129h31q91 0 147.5 15t74.5 42q1 49 -52 120.5t-157 156.5l12 114l369 158l36 -104l-297 -128q66 -56 128 -143.5t62 -166.5q0 -22 -6 -43q-21 -75 -104.5 -112.5t-212.5 -37.5h-31v129z" />
    <glyph glyph-name="uni0643.medi" unicode="&#x643;" horiz-adv-x="529" arabic-form="medial" 
d="M426 28q-43 28 -86.5 85t-102.5 156l59 73q55 -87 90.5 -131.5t65.5 -63t67 -18.5h15l6 -64l-6 -65h-15q-50 0 -93 28zM-5 129h31q91 0 147.5 15t74.5 42q1 49 -52 120.5t-157 156.5l12 114l369 158l36 -104l-297 -128q66 -56 128 -143.5t62 -166.5q0 -22 -6 -43
q-21 -75 -104.5 -112.5t-212.5 -37.5h-31v129z" />
    <glyph glyph-name="uni0644.fina" unicode="&#x644;" horiz-adv-x="743" arabic-form="final" 
d="M613 60q-42 60 -45 164l63 12q3 -45 12.5 -67t30.5 -31t62 -9h12l7 -64l-7 -65h-12q-81 0 -123 60zM183.5 -225q-65.5 32 -104 91t-38.5 138q0 57 20 126t48 126l87 -41q-26 -56 -40 -101t-14 -90q0 -68 51 -110t135 -42q214 0 207 221q-6 191 -17 357t-22 251l109 25
q16 -134 30 -628q4 -167 -77 -261t-230 -94q-79 0 -144.5 32z" />
    <glyph glyph-name="uni0644.init" unicode="&#x644;" horiz-adv-x="275" arabic-form="initial" 
d="M-5 129h32q53 0 77 22.5t24 68.5q0 61 -10 242.5t-18 238.5l110 25q6 -55 15 -239.5t10 -255.5q0 -66 -25.5 -118.5t-72.5 -82.5t-108 -30h-34v129z" />
    <glyph glyph-name="uni0644.medi" unicode="&#x644;" horiz-adv-x="300" arabic-form="medial" 
d="M206 29q-41 29 -65 80.5t-24 114.5q0 42 -9 227t-16 250l110 24q7 -69 17 -395l4 -110q6 -91 71 -91h11l7 -64l-7 -65h-11q-47 0 -88 29zM-5 129h24q53 0 76 21.5t22 70.5l80 -9q0 -94 -46.5 -153t-130.5 -59h-25v129z" />
    <glyph glyph-name="uni0645.fina" unicode="&#x645;" horiz-adv-x="617" arabic-form="final" 
d="M46 -158.5q-6 96.5 -6 199.5q0 46 1 67q2 53 32.5 86.5t76.5 33.5q13 0 28 -3q91 182 194 185q63 2 101.5 -39t62.5 -118q21 -68 38 -96t42 -28h6l7 -64l-7 -65h-6q-34 0 -59.5 18t-41.5 51q-5 -19 -19 -35.5t-31 -26.5q-21 -12 -49 -12q-38 0 -98 23.5t-156 76.5
q-3 3 -8 3q-10 0 -11 -13q-2 -112 23 -396l4 -46l-108 -24q-10 126 -16 222.5zM460 150q0 32 -10.5 65.5t-30 56t-45.5 22.5q-25 0 -51.5 -29t-56.5 -85q59 -38 106 -55t72 -17q6 0 10 2q6 15 6 40z" />
    <glyph glyph-name="uni0645.init" unicode="&#x645;" horiz-adv-x="555" arabic-form="initial" 
d="M-3 129h19q79 0 130 94q46 90 93 138.5t104 48.5q52 0 91 -33t60 -85t21 -109t-21.5 -104t-62.5 -72q-21 -12 -50 -12q-85 0 -236 102l50 108q61 -42 112 -66.5t76 -24.5q10 0 14 3q26 16 26 62q0 43 -23 79t-59 36q-58 0 -132 -164q-29 -65 -80 -97.5t-116 -32.5h-18z
" />
    <glyph glyph-name="uni0645.medi" unicode="&#x645;" horiz-adv-x="588" arabic-form="medial" 
d="M-5 129h21q77 0 130 94q48 89 93.5 137.5t98.5 49.5q64 2 102.5 -39t62.5 -118q22 -70 38 -97t41 -27h11l7 -64l-7 -65h-11q-65 0 -100 69q-4 -18 -19 -35t-32 -27q-21 -12 -50 -12q-74 0 -204 82q-30 -38 -72 -57.5t-92 -19.5h-18v129zM428 147q0 32 -10.5 66.5
t-30.5 57.5t-46 23q-47 0 -109 -114q52 -38 99 -55.5t76 -17.5q7 0 15 2q6 15 6 38z" />
    <glyph glyph-name="uni0646.fina" unicode="&#x646;" horiz-adv-x="739" arabic-form="final" 
d="M642 49.5q-36 49.5 -68 140.5l70 42q18 -58 37.5 -80.5t56.5 -22.5h7l7 -64l-7 -65h-7q-60 0 -96 49.5zM157 107.5q-14 -47.5 -14 -95.5q0 -86 53 -129.5t153 -43.5q74 0 127.5 25.5t80.5 67t27 87.5q0 61 -61 244l95 49q62 -174 62 -293q0 -82 -40.5 -153t-116 -114
t-174.5 -43q-93 0 -163 37t-107.5 102.5t-37.5 149.5q0 61 21 129.5t48 124.5l87 -40q-26 -57 -40 -104.5zM371 390l57 -57l28 -28l-85 -86l-85 86z" />
    <glyph glyph-name="uni0646.init" unicode="&#x646;" horiz-adv-x="329" arabic-form="initial" 
d="M-5 129h53q74 0 107 17.5t33 53.5q0 23 -21.5 89t-32.5 90l94 51q19 -40 39.5 -110t20.5 -122q0 -97 -62 -147.5t-178 -50.5h-53v129zM150 647l57 -57l28 -28l-85 -86l-85 86z" />
    <glyph glyph-name="uni0646.medi" unicode="&#x646;" horiz-adv-x="336" arabic-form="medial" 
d="M-5 129h7q88 1 122.5 23t34.5 73q0 23 -8 75l-4 27l94 18q13 -67 13 -163q5 -23 25 -38t55 -15h7l7 -64l-7 -65h-7q-48 0 -86 26.5t-58 68.5l24 -3q-23 -48 -76 -70t-136 -22h-7v129zM126 590l57 -57l28 -28l-85 -86l-85 86z" />
    <glyph glyph-name="uni0647.fina" unicode="&#x647;" horiz-adv-x="507" arabic-form="final" 
d="M239 49q-87 0 -142 41.5t-55 113.5q0 88 71 147.5t191 102.5l23 -116q-71 -16 -127.5 -48.5t-59.5 -62.5q-2 -24 24 -40t70 -16q49 0 104 21l25 -122q-64 -21 -124 -21zM364.5 53.5q-45.5 53.5 -60.5 177.5l-34 273l105 21q3 -22 4.5 -42t3.5 -38l22 -197q6 -51 15 -75.5
t26 -34t50 -9.5h17l7 -64l-7 -65h-17q-86 0 -131.5 53.5z" />
    <glyph glyph-name="uni0647.init" unicode="&#x647;" horiz-adv-x="662" arabic-form="initial" 
d="M-3 129h14q161 0 237 25.5t85 80.5l1 12q0 38 -24.5 67.5t-60.5 29.5q-21 0 -42.5 -13.5t-35 -35t-13.5 -45.5q0 -36 44 -67.5t108 -50.5t120 -19q45 0 72.5 13.5t27.5 41.5q0 51 -112.5 109.5t-327.5 117.5l46 120q191 -60 298.5 -114t150 -104.5t42.5 -108.5
q0 -36 -15 -84q-17 -51 -69 -76.5t-125 -25.5q-81 0 -164.5 29.5t-138 82.5t-54.5 118q0 9 2 25q10 57 39 104.5t69 75.5t84 28q45 0 83 -30t60.5 -78.5t22.5 -101.5q0 -17 -3 -34q-13 -82 -59.5 -130.5t-131 -69.5t-216.5 -21h-14v129z" />
    <glyph glyph-name="uni0647.medi" unicode="&#x647;" horiz-adv-x="499" arabic-form="medial" 
d="M-4 129h74q120 0 183.5 30t63.5 80q0 29 -23.5 63t-59.5 54q-29 -42 -51.5 -122.5t-22.5 -158.5q0 -58 21 -102.5t54.5 -68.5t67.5 -24q23 0 40 10q6 7 6 21q0 30 -28.5 68.5t-81.5 63.5l22 113q52 -15 108 -21t136 -6l7 -64l-7 -65q-78 0 -138 10.5t-128 32.5l22 89
q52 -17 94.5 -55.5t66 -86t23.5 -93.5q0 -63 -44 -100q-42 -36 -103 -36q-60 0 -115 37t-88.5 111t-27.5 180q8 134 42.5 225t67.5 141l78 26q67 -38 108.5 -106t41.5 -139q0 -115 -97 -175.5t-267 -60.5h-45v129z" />
    <glyph glyph-name="uni0648.fina" unicode="&#x648;" horiz-adv-x="473" arabic-form="final" 
d="M276 -87q77 54 77 139q0 59 -16 117t-45 95t-66 37q-21 0 -39.5 -16.5t-29.5 -41.5t-11 -47q0 -16 8 -29q16 -23 74 -30.5t154 -7.5h98l7 -64l-7 -65l-125 -1q-115 0 -185.5 18.5t-97.5 76.5q-17 35 -17 82q0 57 24 113.5t65.5 93t90.5 36.5q60 0 108 -52t74.5 -134
t26.5 -168q0 -135 -99 -228.5t-274 -126.5l-39 113q167 36 244 90z" />
    <glyph glyph-name="uni0649.fina" unicode="&#x649;" horiz-adv-x="749" arabic-form="final" 
d="M190 -251.5q-70 33.5 -110 98t-40 154.5q0 61 21 132t48 125l87 -41q-26 -56 -40.5 -104t-14.5 -95q0 -86 53.5 -130t153.5 -44q56 0 106.5 13t85.5 33t45 38q-15 17 -74 52t-123 60l28 122q165 -33 289 -33h49l7 -64l-7 -65h-49q-123 0 -316 40l28 79q8 -3 78 -33
t128 -76t58 -88q-1 -48 -46 -96.5t-121 -79.5t-166 -31q-88 0 -158 33.5z" />
    <glyph glyph-name="uni064A.fina" unicode="&#x64a;" horiz-adv-x="749" arabic-form="final" 
d="M190 -251.5q-70 33.5 -110 98t-40 154.5q0 61 21 132t48 125l87 -41q-26 -56 -40.5 -104t-14.5 -95q0 -86 53.5 -130t153.5 -44q56 0 106.5 13t85.5 33t45 38q-15 17 -74 52t-123 60l28 122q165 -33 289 -33h49l7 -64l-7 -65h-49q-123 0 -316 40l28 79q8 -3 78 -33
t128 -76t58 -88q-1 -48 -46 -96.5t-121 -79.5t-166 -31q-88 0 -158 33.5zM431 -508l-80 80l53 53l27 27l27 -27l53 -53zM254 -508l-80 80l53 53l27 27l27 -27l53 -53z" />
    <glyph glyph-name="uni064A.init" unicode="&#x64a;" horiz-adv-x="367" arabic-form="initial" 
d="M-5 129h45q102 0 144 18.5t42 57.5q-1 25 -21.5 86.5t-32.5 87.5l94 51q20 -45 40 -112t20 -118q-1 -98 -68 -149t-199 -51h-64v129zM183 -247l-80 80l53 53l27 27l27 -27l53 -53zM6 -247l-80 80l53 53l27 27l27 -27l53 -53z" />
    <glyph glyph-name="uni064A.medi" unicode="&#x64a;" horiz-adv-x="390" arabic-form="medial" 
d="M-5 129h8q78 0 121 7t61.5 21.5t24.5 39.5q3 14 3 30q0 25 -5 58.5t-6 41.5l93 18q8 -43 11 -89.5t3 -73.5q4 -23 24 -38t56 -15h6l7 -64l-7 -65h-6q-48 0 -86.5 26.5t-58.5 68.5l24 -5q-25 -49 -84.5 -69.5t-180.5 -20.5h-8v129zM177 -246l-80 80l53 53l27 27l27 -27
l53 -53zM0 -246l-80 80l53 53l27 27l27 -27l53 -53z" />
    <glyph glyph-name=".notdef" horiz-adv-x="255" 
d="M38 429h179v-433h-179v433zM208 4v417h-161v-417h161z" />
    <glyph glyph-name=".null" 
 />
    <glyph glyph-name="nonmarkingreturn" unicode="&#xd;" horiz-adv-x="255" 
 />
    <glyph glyph-name="space" unicode=" " horiz-adv-x="266" 
 />
    <glyph glyph-name="exclam" unicode="!" horiz-adv-x="289" 
d="M195 223h-96l-13 500h122zM93 9.5q-22 22.5 -22 55.5q0 31 22 53t55 22q31 0 53.5 -22t22.5 -53q0 -33 -22 -55.5t-54 -22.5q-33 0 -55 22.5z" />
    <glyph glyph-name="quotedbl" unicode="&#x22;" horiz-adv-x="315" 
d="M304 686l-13 -189h-78v194l1 59h90v-64zM145 686l-13 -189h-78v194l1 59h90v-64z" />
    <glyph glyph-name="numbersign" unicode="#" horiz-adv-x="602" 
d="M344 200h-109l-36 -200h-81l36 200h-113v76h127l28 155h-119v77h133l38 203h80l-37 -203h109l37 203h81l-37 -203h105v-77h-119l-28 -155h109v-76h-123l-37 -200h-81zM248 276h109l29 155h-109z" />
    <glyph glyph-name="dollar" unicode="$" horiz-adv-x="569" 
d="M361 265q-19 15 -40 24.5t-51 19.5q-4 2 -32.5 13t-58.5 28q-52 32 -78 74t-26 101q0 81 50.5 133t136.5 61v106h75v-106q85 -12 132.5 -71.5t47.5 -155.5h-120q0 62 -27.5 97t-75.5 35q-47 0 -73 -26t-26 -73q0 -48 33 -75q17 -14 40 -25t61 -26q7 -3 30.5 -12t41.5 -19
q60 -32 89 -75t29 -107q0 -83 -51 -134.5t-141 -59.5v-96h-74v96q-97 9 -150.5 68t-53.5 157h119q0 -63 31.5 -97t89.5 -34q51 0 80.5 26.5t29.5 72.5q0 50 -38 80z" />
    <glyph glyph-name="percent" unicode="%" horiz-adv-x="736" 
d="M90 680q42 41 109 41q68 0 109 -41t41 -109v-34q0 -65 -41 -105.5t-108 -40.5q-68 0 -110 40.5t-42 108.5v34q0 65 42 106zM150 482.5q19 -21.5 50 -21.5t49 21t18 59v33q0 34 -18.5 55t-49.5 21t-49.5 -21.5t-18.5 -56.5v-35q0 -33 19 -54.5zM433 280q42 41 109 41
q68 0 109.5 -40.5t41.5 -109.5v-35q0 -65 -41.5 -105.5t-108.5 -40.5q-68 0 -110 40.5t-42 108.5v35q0 65 42 106zM493.5 82q19.5 -22 49.5 -22t47.5 19.5t18.5 52.5l1 42q0 34 -18.5 55t-49.5 21q-30 0 -49 -21t-19 -55v-38q0 -32 19.5 -54zM224 54l-61 34l347 556l62 -35z
" />
    <glyph glyph-name="ampersand" unicode="&#x26;" horiz-adv-x="643" 
d="M116.5 468q-16.5 36 -16.5 72q0 83 51 132t137 49q50 0 90 -20.5t63 -57t23 -81.5t-23.5 -82.5t-76.5 -74.5l-46 -34l139 -164q31 59 31 132h104q0 -132 -63 -216l105 -123h-139l-41 49q-77 -59 -183 -59q-69 0 -121 25t-81 71t-29 105q0 52 28.5 93.5t104.5 96.5
q-40 51 -56.5 87zM388 126l-156 182q-37 -30 -54 -57.5t-17 -55.5q0 -49 31.5 -79.5t83.5 -30.5q59 0 112 41zM261 440l48 32q29 20 40.5 39t11.5 47q0 29 -21.5 48t-52.5 19q-34 0 -54.5 -23t-20.5 -59q0 -42 49 -103z" />
    <glyph glyph-name="quotesingle" unicode="'" horiz-adv-x="183" 
d="M137 686l-13 -189h-78v194l1 59h90v-64z" />
    <glyph glyph-name="parenleft" unicode="(" horiz-adv-x="410" 
d="M207 537.5q-66 -111.5 -66 -264.5q0 -264 220 -453l-65 -78q-113 87 -189 221.5t-76 309.5q0 177 75.5 310t189.5 221l65 -79q-88 -76 -154 -187.5z" />
    <glyph glyph-name="parenright" unicode=")" horiz-adv-x="410" 
d="M303.5 583q75.5 -133 75.5 -310q0 -175 -76 -309.5t-189 -221.5l-65 78q220 189 220 453q0 153 -66 264.5t-154 187.5l65 79q114 -88 189.5 -221z" />
    <glyph glyph-name="asterisk" unicode="*" horiz-adv-x="445" 
d="M165 475l-151 44l25 81l151 -59l-7 170h86l-8 -172l148 57l26 -82l-154 -44l100 -131l-70 -51l-90 142l-89 -138l-70 49z" />
    <glyph glyph-name="plus" unicode="+" horiz-adv-x="554" 
d="M333 390h186v-108h-186v-211h-116v211h-185v108h185v199h116v-199z" />
    <glyph glyph-name="comma" unicode="," horiz-adv-x="247" 
d="M58.5 -54.5q12.5 36.5 13.5 70.5v108h116v-94q0 -56 -28 -113.5t-71 -93.5l-71 40q28 46 40.5 82.5z" />
    <glyph glyph-name="hyphen" unicode="-" horiz-adv-x="346" 
d="M301 256h-261v95h261v-95z" />
    <glyph glyph-name="period" unicode="." horiz-adv-x="327" 
d="M107 26.5q-23 23.5 -23 57.5q0 33 23 55.5t57 22.5q33 0 56 -23t23 -55q0 -34 -23 -57.5t-56 -23.5q-34 0 -57 23.5z" />
    <glyph glyph-name="slash" unicode="/" horiz-adv-x="388" 
d="M96 -61h-99l276 772h98z" />
    <glyph glyph-name="zero" unicode="0" horiz-adv-x="569" 
d="M459.5 67.5q-58.5 -77.5 -174.5 -77.5t-174.5 76t-60.5 225v124q0 152 59 229t175 77q231 0 234 -301v-122q0 -153 -58.5 -230.5zM370.5 579q-27.5 46 -86.5 46q-58 0 -85 -45t-29 -139v-159q0 -101 28 -149t87 -48q57 0 84.5 45.5t28.5 143.5v159q0 100 -27.5 146z" />
    <glyph glyph-name="one" unicode="1" horiz-adv-x="569" 
d="M377 0h-121v571l-174 -59v99l280 102h15v-713z" />
    <glyph glyph-name="two" unicode="2" horiz-adv-x="569" 
d="M531 0h-478v82l239 260q50 56 70.5 94.5t20.5 75.5q0 52 -28 82.5t-77 30.5q-55 0 -87 -35.5t-32 -96.5h-120q1 63 29 115t82 82.5t128 30.5q106 0 166 -52t60 -145q0 -54 -35 -115t-113 -148l-151 -166h326v-95z" />
    <glyph glyph-name="three" unicode="3" horiz-adv-x="569" 
d="M192 409h71q57 1 88.5 29.5t31.5 80.5q0 51 -27.5 78.5t-80.5 27.5q-49 0 -79.5 -27.5t-30.5 -71.5h-120q0 50 26.5 95t78.5 72.5t125 27.5q106 0 167 -54t61 -148q0 -47 -29.5 -89t-81.5 -65q58 -20 90 -62.5t32 -103.5q0 -63 -30.5 -110t-85 -73t-125.5 -26
q-70 0 -123.5 25.5t-83 71t-29.5 105.5h120q0 -47 33 -77t85 -30q56 0 87.5 30.5t31.5 83.5q0 58 -33.5 87.5t-96.5 29.5h-72v93z" />
    <glyph glyph-name="four" unicode="4" horiz-adv-x="569" 
d="M455 255h88v-96h-88v-159h-120v159h-304l-4 72l305 479l123 1v-456zM151 255h184v296l-10 -18z" />
    <glyph glyph-name="five" unicode="5" horiz-adv-x="569" 
d="M82 353l39 358h384v-102h-285l-19 -172q23 14 52.5 21.5t59.5 7.5q100 0 157.5 -64t57.5 -174q0 -108 -62.5 -173t-171.5 -65q-67 0 -118.5 26t-81.5 71.5t-33 105.5h118q5 -52 35 -80t80 -28q54 0 84 38.5t30 108.5q0 65 -33.5 102t-92.5 37q-30 0 -55 -9t-50 -32z" />
    <glyph glyph-name="six" unicode="6" horiz-adv-x="569" 
d="M252 564.5q-63 -54.5 -74 -153.5q56 60 148 60q61 0 107 -30t71 -84t25 -124q0 -69 -28 -124.5t-81 -87t-123 -31.5q-68 0 -123 34.5t-87 98t-32 148.5v46q0 92 27 165q35 113 118 173t205 60h20v-97q-110 1 -173 -53.5zM221.5 353.5q-32.5 -22.5 -46.5 -57.5v-39
q0 -79 32.5 -125t87.5 -46q51 0 82.5 40.5t31.5 104.5q0 65 -31.5 105t-83.5 40q-40 0 -72.5 -22.5z" />
    <glyph glyph-name="seven" unicode="7" horiz-adv-x="569" 
d="M526 645l-283 -645h-126l282 616h-366v95h493v-66z" />
    <glyph glyph-name="eight" unicode="8" horiz-adv-x="569" 
d="M476.5 430.5q-26.5 -40.5 -74.5 -64.5q55 -25 86 -70t31 -102q0 -94 -63.5 -149t-170.5 -55q-108 0 -172 55t-64 149q0 57 31 102t85 70q-47 24 -73.5 65t-26.5 92q0 91 59.5 144.5t159.5 53.5t159.5 -53.5t59.5 -144.5q0 -52 -26.5 -92.5zM367.5 285q-31.5 32 -83.5 32
t-83 -31.5t-31 -85.5q0 -53 31 -84t84 -31t83.5 31t30.5 84t-31.5 85zM356 596q-27 29 -72 29t-71.5 -28t-26.5 -78q0 -48 26.5 -77t72.5 -29q45 0 71.5 29t26.5 77t-27 77z" />
    <glyph glyph-name="nine" unicode="9" horiz-adv-x="569" 
d="M330 251q-38 -17 -80 -17q-61 0 -107.5 29.5t-72 83t-25.5 125.5q0 73 29.5 130t82 88t119.5 31q71 0 124.5 -36t82.5 -101.5t29 -152.5v-41q0 -138 -46 -230q-42 -81 -119 -122.5t-184 -41.5h-15v98l24 1q102 2 156.5 51.5t61.5 151.5q-22 -30 -60 -47zM345.5 347
q30.5 21 46.5 55v49q0 80 -32 127t-84 47q-50 0 -81 -42.5t-31 -108.5t31 -107t82 -41q38 0 68.5 21z" />
    <glyph glyph-name="colon" unicode=":" horiz-adv-x="287" 
d="M87 323.5q-23 23.5 -23 57.5q0 33 23 55.5t57 22.5q33 0 56 -23t23 -55q0 -34 -23 -57.5t-56 -23.5q-34 0 -57 23.5zM87 21.5q-23 23.5 -23 57.5q0 33 23 55.5t57 22.5q33 0 56 -23t23 -55q0 -34 -23 -57.5t-56 -23.5q-34 0 -57 23.5z" />
    <glyph glyph-name="semicolon" unicode=";" horiz-adv-x="324" 
d="M98.5 -54.5q12.5 36.5 13.5 70.5v108h116v-94q0 -56 -28 -113.5t-71 -93.5l-71 40q28 46 40.5 82.5zM113 321.5q-23 23.5 -23 57.5q0 33 23 55.5t57 22.5q33 0 56 -23t23 -55q0 -34 -23 -57.5t-56 -23.5q-34 0 -57 23.5z" />
    <glyph glyph-name="less" unicode="&#x3c;" horiz-adv-x="509" 
d="M152 307l291 -109v-118l-413 181v95l413 181v-117z" />
    <glyph glyph-name="equal" unicode="=" horiz-adv-x="563" 
d="M495 379h-425v98h425v-98zM495 172h-425v98h425v-98z" />
    <glyph glyph-name="greater" unicode="&#x3e;" horiz-adv-x="518" 
d="M361 310l-300 112v116l421 -182v-94l-421 -182v116z" />
    <glyph glyph-name="question" unicode="?" horiz-adv-x="487" 
d="M186 304q14 37 51 74q34 32 57 58q35 41 35 85q0 46 -22.5 71t-65.5 25q-41 0 -66.5 -24.5t-26.5 -66.5h-120q1 87 58.5 138t154.5 51q99 0 154 -50t55 -139q0 -82 -75 -157q-36 -36 -55 -53q-19 -21 -28 -47.5t-10 -64.5h-110q0 63 14 100zM175.5 4q-21.5 22 -21.5 54
q0 31 21.5 52.5t53.5 21.5q31 0 53 -21.5t22 -52.5q0 -32 -22 -54t-53 -22q-32 0 -53.5 22z" />
    <glyph glyph-name="at" unicode="@" horiz-adv-x="908" 
d="M507.5 33.5q-44.5 -42.5 -108.5 -42.5q-60 0 -99.5 41t-39.5 136q0 11 2 39q6 71 35.5 134t77.5 102t107 39q39 0 71 -10t51.5 -22.5t25.5 -20.5l-23 -255q-2 -18 -2 -45q0 -44 12.5 -57.5t42.5 -13.5q54 0 85 57.5t31 158.5q0 168 -77 257.5t-227 89.5
q-101 0 -176.5 -54t-117 -144t-44.5 -194q-5 -180 73 -278t232 -99q39 0 87 10t75 25l18 -66q-34 -19 -83.5 -30.5t-97.5 -11.5q-195 0 -292 119.5t-97 322.5q0 118 52 227.5t148.5 178.5t223.5 69q122 0 209.5 -53.5t131 -153t39.5 -235.5q-2 -79 -29.5 -139t-74.5 -92.5
t-107 -32.5q-126 0 -126 141q0 20 1 31l21 235q-11 8 -22 10.5t-30 1.5q-53 -1 -87 -55t-42 -147q-2 -28 -2 -39q0 -53 18 -76t55 -23q33 0 57 30.5t47 99.5l52 -40q-32 -83 -76.5 -125.5z" />
    <glyph glyph-name="A" unicode="A" horiz-adv-x="664" 
d="M468 165h-273l-56 -165h-131l267 711h113l269 -711h-132zM229 264h206l-103 298z" />
    <glyph glyph-name="B" unicode="B" horiz-adv-x="632" 
d="M71 0v711h242q123 0 187 -49t64 -143q0 -52 -27 -91t-76 -58q57 -16 88.5 -59t31.5 -104q0 -99 -63.5 -152.5t-183.5 -54.5h-263zM196 321v-222h137q58 0 91 29t33 80q0 113 -119 113h-142zM196 411h120q60 0 91.5 26t31.5 74q0 53 -30 77t-96 24h-117v-201z" />
    <glyph glyph-name="C" unicode="C" horiz-adv-x="653" 
d="M578.5 114.5q-30.5 -54.5 -91 -89.5t-151.5 -35q-87 0 -152.5 41t-100.5 117.5t-35 180.5v56q0 79 29.5 155.5t95.5 128.5t167 52q120 0 192 -65t83 -181h-125q-7 76 -43.5 111t-106.5 35q-81 0 -123.5 -59.5t-42.5 -174.5v-61q0 -115 41 -175.5t121 -60.5q71 0 108.5 33
t45.5 109h125q-6 -63 -36.5 -117.5z" />
    <glyph glyph-name="D" unicode="D" horiz-adv-x="652" 
d="M71 0v711h212q95 0 167.5 -42t112.5 -118t40 -174v-41q0 -99 -39.5 -175t-112.5 -118.5t-168 -42.5h-212zM196 612v-513h83q95 0 147 62t52 177v37q0 114 -50 175t-143 62h-89z" />
    <glyph glyph-name="E" unicode="E" horiz-adv-x="565" 
d="M488 318h-292v-219h342v-99h-467v711h464v-99h-339v-197h292v-97z" />
    <glyph glyph-name="F" unicode="F" horiz-adv-x="551" 
d="M485 302h-289v-302h-125v711h454v-99h-329v-211h289v-99z" />
    <glyph glyph-name="G" unicode="G" horiz-adv-x="681" 
d="M512 16.5q-69 -26.5 -157 -26.5q-90 0 -158 40t-106 114t-39 174v62q-1 101 32.5 178t99.5 120t160 43q121 0 190.5 -58.5t83.5 -169.5h-122q-11 66 -48 97.5t-101 31.5q-82 0 -125.5 -61.5t-43.5 -177.5v-52q0 -115 47.5 -178.5t134.5 -63.5q94 0 134 43v140h-146v92
h271v-273q-38 -48 -107 -74.5z" />
    <glyph glyph-name="H" unicode="H" horiz-adv-x="709" 
d="M637 0h-125v316h-316v-316h-125v711h125v-296h316v296h125v-711z" />
    <glyph glyph-name="I" unicode="I" horiz-adv-x="284" 
d="M204 0h-125v711h125v-711z" />
    <glyph glyph-name="J" unicode="J" horiz-adv-x="556" 
d="M363 711h125v-497q0 -67 -28.5 -117.5t-81.5 -78.5t-123 -28q-110 0 -171 56t-61 158h125q0 -115 107 -115q49 0 78.5 33t29.5 91v498z" />
    <glyph glyph-name="K" unicode="K" horiz-adv-x="632" 
d="M276 305l-80 -86v-219h-125v711h125v-337l66 84l208 253h153l-263 -314l276 -397h-148z" />
    <glyph glyph-name="L" unicode="L" horiz-adv-x="540" 
d="M196 99h322v-99h-447v711h125v-612z" />
    <glyph glyph-name="M" unicode="M" horiz-adv-x="874" 
d="M234 711l203 -546l202 546h163v-711h-125v233l12 315l-208 -548h-89l-209 547l13 -314v-233h-125v711h163z" />
    <glyph glyph-name="N" unicode="N" horiz-adv-x="709" 
d="M636 0h-124l-316 506v-506h-125v711h125l316 -507v507h124v-711z" />
    <glyph glyph-name="O" unicode="O" horiz-adv-x="689" 
d="M603.5 152.5q-36.5 -78.5 -103.5 -120.5t-155 -42q-86 0 -153.5 42t-105 118.5t-38.5 177.5v46q0 104 36.5 182.5t103.5 121.5t156 43q88 0 155 -42t104 -120t37 -183v-40q0 -105 -36.5 -183.5zM470 555.5q-44 62.5 -126 62.5q-80 0 -124.5 -60t-45.5 -170v-52
q0 -116 44.5 -180t126.5 -64q81 0 124.5 61.5t44.5 177.5v44q0 118 -44 180.5z" />
    <glyph glyph-name="P" unicode="P" horiz-adv-x="639" 
d="M196 263v-263h-125v711h271q79 0 138 -28.5t90.5 -80t31.5 -118.5q0 -104 -69.5 -162.5t-192.5 -58.5h-144zM196 363h146q65 0 99.5 31t34.5 89t-35 93t-95 36h-150v-249z" />
    <glyph glyph-name="Q" unicode="Q" horiz-adv-x="689" 
d="M606 162q-32 -74 -92 -118l122 -97l-81 -71l-151 121q-27 -7 -61 -7q-87 0 -154 41.5t-105 118.5t-38 178v46q0 105 37 183.5t104.5 121t154.5 42.5q88 0 155 -42.5t104 -120.5t37 -182v-40q0 -100 -32 -174zM468 555.5q-44 62.5 -126 62.5q-81 0 -125 -62t-45 -175v-45
q0 -116 44.5 -180t126.5 -64q80 0 124 61.5t45 177.5v44q0 118 -44 180.5z" />
    <glyph glyph-name="R" unicode="R" horiz-adv-x="630" 
d="M333 273h-137v-273h-125v711h252q124 0 191 -55t67 -159q0 -69 -33.5 -118.5t-97.5 -76.5l160 -296v-6h-134zM196 372h129q61 0 96.5 32t35.5 86q0 58 -34 89.5t-98 32.5h-129v-240z" />
    <glyph glyph-name="S" unicode="S" horiz-adv-x="613" 
d="M438.5 230.5q-10.5 19.5 -34.5 34.5q-21 14 -46 23.5t-62 20.5q-26 8 -54 18t-51 22q-66 33 -97.5 76.5t-31.5 100.5q0 59 33.5 103.5t91.5 68.5t129 24q72 0 130.5 -27t92.5 -76.5t34 -114.5h-125q0 56 -35 88t-98 32q-60 0 -94 -26.5t-34 -71.5q0 -43 46 -72
q22 -14 47 -23.5t60 -20.5q43 -14 68.5 -24t52.5 -25q58 -31 85.5 -74.5t27.5 -100.5q0 -59 -31 -103t-88.5 -68t-134.5 -24q-73 0 -137 26t-103.5 77t-39.5 123h125q0 -61 40.5 -94.5t114.5 -33.5q61 0 95 25t34 70q0 27 -10.5 46.5z" />
    <glyph glyph-name="T" unicode="T" horiz-adv-x="610" 
d="M589 612h-223v-612h-124v612h-220v99h567v-99z" />
    <glyph glyph-name="U" unicode="U" horiz-adv-x="655" 
d="M594 711v-479q0 -108 -69.5 -172.5t-196.5 -69.5q-123 0 -194.5 65t-72.5 177v479h125v-478q0 -70 37 -107t105 -37t104.5 37t36.5 107v478h125z" />
    <glyph glyph-name="V" unicode="V" horiz-adv-x="646" 
d="M308 199l15 -47l14 47l164 512h139l-255 -711h-124l-253 711h137z" />
    <glyph glyph-name="W" unicode="W" horiz-adv-x="880" 
d="M612 258l17 -75l13 81l95 447h125l-164 -711h-122l-119 440l-14 65l-14 -65l-121 -440h-122l-164 711h125l95 -447l13 -80l17 74l118 453h105z" />
    <glyph glyph-name="X" unicode="X" horiz-adv-x="631" 
d="M316 453l149 258h144l-214 -353l220 -358h-146l-153 263l-153 -263h-145l219 358l-214 353h144z" />
    <glyph glyph-name="Y" unicode="Y" horiz-adv-x="612" 
d="M305 373l164 338h138l-239 -450v-261h-126v261l-238 450h138z" />
    <glyph glyph-name="Z" unicode="Z" horiz-adv-x="603" 
d="M190 99h380v-99h-532v78l370 534h-367v99h519v-77z" />
    <glyph glyph-name="bracketleft" unicode="[" horiz-adv-x="272" 
d="M263 728h-79v-795h79v-92h-199v980h199v-93z" />
    <glyph glyph-name="backslash" unicode="\" horiz-adv-x="388" 
d="M115 711l276 -772h-99l-275 772h98z" />
    <glyph glyph-name="bracketright" unicode="]" horiz-adv-x="272" 
d="M5 821h200v-980h-200v92h80v795h-80v93z" />
    <glyph glyph-name="asciicircum" unicode="^" horiz-adv-x="430" 
d="M264 461l-43 141l-96 -246h-99l146 355h85l147 -355h-100z" />
    <glyph glyph-name="underscore" unicode="_" horiz-adv-x="447" 
d="M446 -94h-445v94h445v-94z" />
    <glyph glyph-name="a" unicode="a" horiz-adv-x="539" 
d="M360 52q-56 -62 -141 -62q-50 0 -91 20.5t-64 56.5t-23 80q0 84 63 129t179 45h73v37q0 43 -23.5 66.5t-67.5 23.5q-41 0 -66.5 -20t-25.5 -52h-121q0 43 28 80.5t78.5 59.5t112.5 22q94 0 149 -47t57 -129v-240q0 -71 20 -114v-8h-122q-9 17 -15 52zM311 102.5
q31 18.5 45 46.5v99h-61q-134 0 -134 -89q0 -34 23 -54.5t59 -20.5q37 0 68 18.5z" />
    <glyph glyph-name="b" unicode="b" horiz-adv-x="562" 
d="M469 62q-55 -72 -150 -72q-92 0 -145 68l-5 -58h-109v750h120v-274q51 62 138 62q97 0 151.5 -71.5t54.5 -199.5v-8q0 -125 -55 -197zM288 441q-36 0 -64 -17t-44 -50v-220q33 -67 109 -67q58 0 86.5 45t28.5 137q0 172 -116 172z" />
    <glyph glyph-name="c" unicode="c" horiz-adv-x="522" 
d="M348.5 110.5q29.5 25.5 31.5 64.5h112q-1 -49 -29 -91.5t-77 -68t-109 -25.5q-111 0 -175.5 72.5t-64.5 198.5v11q0 78 28 138t82.5 94t129.5 34q62 0 110.5 -24.5t76 -70t28.5 -104.5h-112q-2 46 -31.5 75t-73.5 29q-117 0 -118 -172v-15q-1 -85 29.5 -128t89.5 -43
q43 0 72.5 25.5z" />
    <glyph glyph-name="d" unicode="d" horiz-adv-x="564" 
d="M63.5 411q25.5 61 72.5 94t109 33q85 0 136 -60v272h120v-750h-109l-5 57q-54 -67 -143 -67q-61 0 -108 34t-72.5 97t-25.5 148q0 81 25.5 142zM158 258q0 -82 30.5 -126.5t85.5 -44.5q74 0 107 65v226q-33 63 -106 63q-54 0 -85 -42t-32 -120v-21z" />
    <glyph glyph-name="e" unicode="e" horiz-adv-x="536" 
d="M161 22.5q-58 32.5 -90 91t-32 136.5v16q0 76 29 138t83.5 98t127.5 36q107 0 167 -68.5t60 -193.5v-48h-346l1 -3q5 -63 43 -101.5t96 -38.5q81 0 133 65l63 -62q-32 -47 -84.5 -72.5t-117.5 -25.5q-75 0 -133 32.5zM200 409q-31 -34 -38 -95h225v9q-2 57 -30.5 88.5
t-77.5 31.5q-48 0 -79 -34z" />
    <glyph glyph-name="f" unicode="f" horiz-adv-x="353" 
d="M101 0v440h-81v88h81v50q0 87 48.5 134.5t136.5 47.5q34 0 68 -9l-2 -92q-19 4 -46 4q-41 0 -63 -22t-22 -63v-50h109v-88h-109v-440h-120z" />
    <glyph glyph-name="g" unicode="g" horiz-adv-x="567" 
d="M66 413q27 60 74.5 92.5t110.5 32.5q91 0 142 -63l5 53h109v-512q0 -54 -24.5 -105t-79 -85t-138.5 -34q-58 0 -112.5 23.5t-82.5 62.5l55 71q55 -64 134 -64q62 0 94.5 33.5t32.5 96.5v34q-51 -59 -136 -59q-63 0 -110.5 34t-74 96.5t-26.5 145.5v6q0 81 27 141z
M191.5 132.5q31.5 -45.5 88.5 -45.5q73 0 106 61v234q-35 59 -105 59q-58 0 -89.5 -46.5t-31.5 -136.5q0 -80 31.5 -125.5z" />
    <glyph glyph-name="h" unicode="h" horiz-adv-x="556" 
d="M326 538q171 0 172 -195v-343h-120v342q-1 51 -23.5 75t-70.5 24q-36 0 -63.5 -17t-42.5 -47v-377h-120v750h120v-283q57 71 148 71z" />
    <glyph glyph-name="i" unicode="i" horiz-adv-x="256" 
d="M188 0h-120v528h120v-528zM77.5 713q18.5 18 50.5 18q31 0 50 -18t19 -46t-19 -45.5t-50 -17.5q-32 0 -50.5 17.5t-18.5 45.5t18.5 46z" />
    <glyph glyph-name="j" unicode="j" horiz-adv-x="251" 
d="M186 528v-572q0 -83 -42 -126t-122 -43q-32 0 -64 8v93q28 -4 43 -4q33 0 49 17t16 54v573h120zM74.5 713q18.5 18 49.5 18t49.5 -18t18.5 -46t-18.5 -45.5t-49.5 -17.5q-32 0 -50 17.5t-18 45.5t18.5 46z" />
    <glyph glyph-name="k" unicode="k" horiz-adv-x="523" 
d="M233 226l-53 -54v-172h-120v750h120v-432l36 44l148 166h145l-197 -219l216 -309h-138z" />
    <glyph glyph-name="l" unicode="l" horiz-adv-x="256" 
d="M188 0h-120v750h120v-750z" />
    <glyph glyph-name="m" unicode="m" horiz-adv-x="870" 
d="M173 528l3 -60q58 70 155 70q106 0 144 -83q57 83 163 83q85 0 128.5 -47t44.5 -141v-350h-121v343q0 51 -21 74.5t-72 23.5q-36 0 -63 -19q-30 -22 -39 -64v-8v-350h-120v341q0 51 -22.5 75.5t-70.5 24.5q-36 0 -62 -15q-25 -16 -40 -47v-379h-120v528h113z" />
    <glyph glyph-name="n" unicode="n" horiz-adv-x="557" 
d="M171 528l4 -64q59 74 156 74q166 0 167 -193v-345h-120v343q-1 52 -22.5 75t-71.5 23q-35 0 -62.5 -17.5t-42.5 -48.5v-375h-121v528h113z" />
    <glyph glyph-name="o" unicode="o" horiz-adv-x="567" 
d="M64 405q29 61 85 97t133 36q74 0 130 -33.5t86.5 -95.5t30.5 -144v-7q0 -80 -31 -141t-86.5 -94t-128.5 -33q-72 0 -127.5 32.5t-86.5 92.5t-32 139l-1 15q-1 75 28 136zM190 131q34 -46 93 -46t92.5 45t33.5 127v12q1 80 -33 127t-94 47q-56 0 -89.5 -43.5t-35.5 -124.5
v-17q-1 -81 33 -127z" />
    <glyph glyph-name="p" unicode="p" horiz-adv-x="562" 
d="M499 118q-25 -61 -71.5 -94.5t-108.5 -33.5q-87 0 -139 58v-251h-120v731h111l4 -54q52 64 143 64q96 0 151 -72t55 -199v-8q0 -80 -25 -141zM372.5 396q-31.5 45 -87.5 45q-72 0 -105 -60v-235q33 -61 106 -61q55 0 85.5 44t31.5 129v12q1 81 -30.5 126z" />
    <glyph glyph-name="q" unicode="q" horiz-adv-x="566" 
d="M94.5 466q56.5 72 152.5 72q89 0 140 -64l8 54h106v-731h-120v250q-52 -57 -135 -57q-63 0 -110 33t-72.5 94t-25.5 144v8q0 125 56.5 197zM189 130.5q31 -45.5 87 -45.5q71 0 105 60v239q-35 59 -104 59q-55 0 -86 -43t-33 -125v-17q0 -82 31 -127.5z" />
    <glyph glyph-name="r" unicode="r" horiz-adv-x="354" 
d="M292 424q-85 0 -112 -65v-359h-120v528h114l4 -64q42 74 122 74q27 0 42 -7l-1 -111q-17 4 -49 4z" />
    <glyph glyph-name="s" unicode="s" horiz-adv-x="514" 
d="M328.5 192q-26.5 17 -89.5 31q-95 20 -141 58t-46 97q0 45 26 81.5t72.5 57.5t105.5 21q63 0 111.5 -21.5t75 -59.5t26.5 -87h-120q0 35 -25.5 57.5t-67.5 22.5q-40 0 -63.5 -18.5t-23.5 -48.5t29.5 -45t82.5 -28q4 -1 29 -7q83 -21 122.5 -57.5t39.5 -96.5
q0 -47 -27 -83t-75.5 -56t-111.5 -20q-62 0 -113.5 23t-81 63.5t-29.5 88.5h117q1 -41 30.5 -64t78.5 -23q44 0 69.5 17.5t25.5 47.5q0 32 -26.5 49z" />
    <glyph glyph-name="t" unicode="t" horiz-adv-x="333" 
d="M210 658v-130h94v-88h-94v-293q0 -32 12.5 -45.5t43.5 -13.5q23 0 42 5v-91q-39 -12 -79 -12q-139 0 -139 149v301h-85v88h85v130h120z" />
    <glyph glyph-name="u" unicode="u" horiz-adv-x="556" 
d="M384 0l-3 54q-52 -64 -149 -64q-85 0 -129.5 49.5t-45.5 145.5v343h120v-342q0 -99 85 -99t115 63v378h120v-528h-113z" />
    <glyph glyph-name="v" unicode="v" horiz-adv-x="497" 
d="M249 152l111 376h125l-183 -528h-108l-184 528h125z" />
    <glyph glyph-name="w" unicode="w" horiz-adv-x="741" 
d="M204 222l13 -59l108 365h89l108 -366l13 60l70 306h117l-142 -528h-99l-98 319l-14 46l-14 -46l-97 -319h-100l-141 528h117z" />
    <glyph glyph-name="x" unicode="x" horiz-adv-x="504" 
d="M252 354l101 174h131l-159 -259l165 -269h-131l-107 181l-106 -181h-132l166 269l-160 259h132z" />
    <glyph glyph-name="y" unicode="y" horiz-adv-x="491" 
d="M247 171l7 23l102 334h129l-213 -612l-9 -23q-46 -106 -154 -106q-24 1 -58 8v91q16 0 23 -1q41 -2 63.5 14t37.5 56l17 47l-186 526h129z" />
    <glyph glyph-name="z" unicode="z" horiz-adv-x="504" 
d="M188 95h282v-95h-431v76l268 357h-262v95h414v-74z" />
    <glyph glyph-name="braceleft" unicode="{" horiz-adv-x="333" 
d="M164.5 -96q-43.5 56 -43.5 146v97q0 111 -94 111v86q94 0 94 111v102q1 88 44 143t130 80l23 -68q-86 -30 -87 -155v-101q0 -111 -84 -155q84 -45 84 -155v-103q3 -124 87 -152l-23 -69q-87 26 -130.5 82z" />
    <glyph glyph-name="bar" unicode="|" horiz-adv-x="248" 
d="M164 -132h-79v843h79v-843z" />
    <glyph glyph-name="braceright" unicode="}" horiz-adv-x="324" 
d="M101 43v103q0 110 84 155q-84 44 -84 155v101q-1 125 -87 155l23 68q87 -25 130 -80t44 -143v-102q0 -111 94 -111v-86q-94 0 -94 -111v-97q0 -90 -43.5 -146t-130.5 -82l-23 69q84 28 87 152z" />
    <glyph glyph-name="asciitilde" unicode="~" horiz-adv-x="661" 
d="M583 283.5q-21 -44.5 -57.5 -69.5t-82.5 -25q-31 0 -60 12q-26 11 -67 46q-31 26 -52.5 39.5t-42.5 13.5q-32 0 -51 -25t-19 -67h-94q0 56 20 99t56 67t83 24q37 0 70 -15q28 -13 67 -47q28 -24 48 -36t38 -12q33 0 53 27t20 69l92 -1q0 -55 -21 -99.5z" />
    <glyph glyph-name="uni00A0" unicode="&#xa0;" horiz-adv-x="48" 
 />
    <glyph glyph-name="brokenbar" unicode="&#xa6;" horiz-adv-x="246" 
d="M66 -132v387h112v-387h-112zM178 341h-112v370h112v-370z" />
    <glyph glyph-name="copyright" unicode="&#xa9;" horiz-adv-x="786" 
d="M214.5 39.5q-79.5 49.5 -125.5 133.5t-46 183q0 109 47 192t126 128t174 45q96 0 175 -46.5t125 -130t46 -188.5q0 -100 -46 -184t-125.5 -133t-174.5 -49q-96 0 -175.5 49.5zM260 190q-46 52 -46 140v54q0 86 46.5 137.5t122.5 51.5q78 0 120.5 -40t42.5 -113h-73
q0 46 -22.5 67.5t-67.5 21.5t-71 -33.5t-26 -91.5v-57q0 -58 26 -91.5t71 -33.5q46 0 68 21t22 69h73q0 -75 -42.5 -114.5t-120.5 -39.5q-77 0 -123 52zM536 90q66 41 104.5 111.5t38.5 154.5q0 86 -38 155.5t-104 109.5t-147 40q-77 0 -143 -35.5t-106 -104.5t-40 -165
q0 -83 38 -153.5t104.5 -112t146.5 -41.5t146 41z" />
    <glyph glyph-name="guillemotleft" unicode="&#xab;" horiz-adv-x="412" 
d="M314 142.5q16 -36.5 48 -74.5l-51 -52q-41 41 -66.5 90.5t-25.5 112.5t25 112t67 92l51 -53q-33 -38 -48.5 -74.5t-15.5 -76.5t16 -76.5zM137.5 122q18.5 -46 56.5 -94l-56 -63q-106 114 -106 254t106 254l56 -63q-38 -48 -56.5 -94t-18.5 -97t18.5 -97z" />
    <glyph glyph-name="logicalnot" unicode="&#xac;" horiz-adv-x="552" 
d="M468 183h-93v128h-313v81h406v-209z" />
    <glyph glyph-name="registered" unicode="&#xae;" horiz-adv-x="786" 
d="M319 319v-165h-71v415h135q75 0 116.5 -33t41.5 -94q0 -57 -58 -88q29 -13 42.5 -38.5t14.5 -65.5q0 -41 1.5 -59.5t6.5 -28.5v-8h-73q-7 19 -7 73q0 24 -1 35q-2 29 -18 42.5t-48 14.5h-82zM319 383h70q37 1 59.5 16.5t22.5 41.5q0 36 -18.5 50.5t-66.5 14.5h-67v-123z
M213.5 39.5q-79.5 49.5 -125 133.5t-45.5 183q0 109 46.5 192t126 128t174.5 45q96 0 175 -46.5t125 -130t46 -188.5q0 -100 -46 -184t-125.5 -133t-174.5 -49q-97 0 -176.5 49.5zM535.5 90q66.5 41 105 111.5t38.5 154.5q0 85 -38 155t-104 110t-147 40q-77 0 -143 -35.5
t-106.5 -104.5t-40.5 -165q0 -84 38.5 -154.5t105 -111.5t146.5 -41q79 0 145.5 41z" />
    <glyph glyph-name="degree" unicode="&#xb0;" horiz-adv-x="391" 
d="M84.5 656q17.5 30 47 47.5t63.5 17.5t63.5 -17.5t47 -47.5t17.5 -65q0 -53 -37.5 -90.5t-90.5 -37.5q-34 0 -63.5 17t-47 46.5t-17.5 64.5t17.5 65zM194 540q23 0 38 18q13 14 13 33q0 22 -17 39q-14 13 -32 13q-22 0 -39 -18q-12 -13 -12 -32q0 -23 17 -40
q14 -13 32 -13z" />
    <glyph glyph-name="plusminus" unicode="&#xb1;" horiz-adv-x="536" 
d="M325 441h167v-98h-167v-189h-107v189h-173v98h173v183h107v-183zM476 0h-417v96h417v-96z" />
    <glyph glyph-name="uni00B2" unicode="&#xb2;" horiz-adv-x="370" 
d="M336 285h-298v61l144 131q25 23 38 44t13 36q0 22 -14 34.5t-39 12.5q-29 0 -45 -16.5t-16 -42.5l-88 2q0 57 40.5 93t105.5 36q69 0 107.5 -31.5t38.5 -87.5q0 -45 -39 -89q-19 -22 -61 -56l-68 -55h181v-72z" />
    <glyph glyph-name="uni00B3" unicode="&#xb3;" horiz-adv-x="370" 
d="M131 512h42q31 0 47 13t16 35q0 20 -14.5 32t-42.5 12q-24 0 -40.5 -10.5t-16.5 -26.5h-89q0 49 40 79t103 30q70 0 110 -29.5t40 -80.5q0 -28 -17 -50t-50 -34q74 -20 74 -90q0 -50 -43.5 -81t-113.5 -31q-67 0 -108.5 32t-41.5 85h91q0 -19 17.5 -32t46.5 -13
q30 0 46 13t16 35q0 50 -67 50h-45v62z" />
    <glyph glyph-name="uni00B5" unicode="&#xb5;" horiz-adv-x="596" 
d="M191 528v-309q1 -70 23 -102t73 -32q84 0 112 63v380h120v-528h-110l-4 44q-45 -54 -118 -54q-61 0 -96 28v-221h-120v731h120z" />
    <glyph glyph-name="uni00B9" unicode="&#xb9;" horiz-adv-x="370" 
d="M251 285h-90v280l-97 -23v69l178 59h9v-385z" />
    <glyph glyph-name="guillemotright" unicode="&#xbb;" horiz-adv-x="412" 
d="M98.5 295.5q-15.5 36.5 -48.5 74.5l51 53q42 -43 67 -92t25 -112t-25.5 -112.5t-66.5 -90.5l-51 52q32 38 48 74.5t16 76.5t-15.5 76.5zM274.5 316q-18.5 46 -56.5 94l56 63q106 -114 106 -254t-106 -254l-56 63q38 48 56.5 94t18.5 97t-18.5 97z" />
    <glyph glyph-name="onequarter" unicode="&#xbc;" horiz-adv-x="784" 
d="M233 263h-90v280l-97 -23v69l178 59h9v-385zM253 54l-62 34l347 556l62 -35zM689 210h47v-72h-47v-81h-90v81h-175l-5 57l178 247h92v-232zM507 210h92v122l-8 -13z" />
    <glyph glyph-name="onehalf" unicode="&#xbd;" horiz-adv-x="837" 
d="M233 263h-90v280l-97 -23v69l178 59h9v-385zM253 54l-62 34l347 556l62 -35zM791 65h-298v61l144 131q25 23 38 44t13 36q0 22 -14 34.5t-39 12.5q-29 0 -45 -16.5t-16 -42.5l-88 2q0 57 40.5 93t105.5 36q69 0 107.5 -31.5t38.5 -87.5q0 -45 -39 -89q-19 -22 -61 -56
l-68 -55h181v-72z" />
    <glyph glyph-name="threequarters" unicode="&#xbe;" horiz-adv-x="826" 
d="M154 498h42q31 0 47 13t16 35q0 20 -14.5 32t-42.5 12q-24 0 -40.5 -10.5t-16.5 -26.5h-89q0 49 40 79t103 30q70 0 110 -29.5t40 -80.5q0 -28 -17 -50t-50 -34q74 -20 74 -90q0 -50 -43.5 -81t-113.5 -31q-67 0 -108.5 32t-41.5 85h91q0 -19 17.5 -32t46.5 -13
q30 0 46 13t16 35q0 50 -67 50h-45v62zM304 54l-62 34l347 556l62 -35zM730 218h47v-72h-47v-81h-90v81h-175l-5 57l178 247h92v-232zM548 218h92v122l-8 -13z" />
    <glyph glyph-name="multiply" unicode="&#xd7;" horiz-adv-x="531" 
d="M36 171l156 158l-155 157l73 72l153 -156l154 156l72 -72l-154 -157l155 -158l-73 -72l-154 157l-154 -157z" />
    <glyph glyph-name="divide" unicode="&#xf7;" horiz-adv-x="570" 
d="M529 286h-496v101h496v-101zM231.5 580.5q19.5 17.5 49.5 18.5q30 0 50.5 -17.5t20.5 -47.5q0 -29 -20.5 -47t-50.5 -18q-30 1 -49.5 18.5t-19.5 46.5t19.5 46.5zM232 183.5q20 17.5 51 17.5q29 0 49 -18t20 -47t-20.5 -46.5t-49.5 -17.5q-30 0 -50 17.5t-20 46.5
q0 30 20 47.5z" />
    <glyph glyph-name="uni060C" unicode="&#x60c;" horiz-adv-x="298" 
d="M83.5 30q-27.5 30 -27.5 77q0 57 36.5 119t94.5 98l47 -49q-46 -34 -69 -66.5t-29 -53.5q1 0 7 2t12 2q31 0 54 -22.5t23 -55.5t-23.5 -56t-54.5 -23q-43 -2 -70.5 28z" />
    <glyph glyph-name="uni0615" unicode="&#x615;" 
d="M65 531q24 -5 58 -5q52 0 73 12t21 28q0 11 -7.5 18t-22.5 7q-31 0 -65 -31t-57 -74l-39 30q31 57 72 96t84 39q38 0 59.5 -26t21.5 -59q0 -42 -38.5 -73t-116.5 -31q-52 0 -84.5 13.5t-34.5 14.5l18 56q34 -10 58 -15zM54.5 630.5q-4.5 53.5 -11.5 93.5l49 10
q7 -40 12.5 -99.5t2.5 -86.5l-50 8q2 21 -2.5 74.5z" />
    <glyph glyph-name="uni061B" unicode="&#x61b;" horiz-adv-x="299" 
d="M94 22.5q-23 23.5 -23 57.5q0 33 23 55.5t57 22.5q33 0 56 -23t23 -55q0 -34 -23 -57.5t-56 -23.5q-34 0 -57 23.5zM92.5 318q-27.5 30 -27.5 77q0 57 36.5 119t94.5 98l47 -49q-46 -34 -69 -66.5t-29 -53.5q1 0 7 2t12 2q31 0 54 -22.5t23 -55.5t-23.5 -56t-54.5 -23
q-43 -2 -70.5 28z" />
    <glyph glyph-name="uni061F" unicode="&#x61f;" horiz-adv-x="509" 
d="M220 8.5q-22 22.5 -22 55.5q0 31 22 53t55 22q31 0 53.5 -22t22.5 -53q0 -32 -22.5 -55t-53.5 -23q-33 0 -55 22.5zM354.5 575.5q-12.5 27.5 -37 46t-60.5 18.5q-46 0 -77.5 -31t-31.5 -75q0 -24 7.5 -39.5t26 -32t63.5 -50.5l24 -19q23 -17 33 -36t12.5 -44.5t2.5 -76.5
v-31h-88v59q0 15 -11 32t-42 43q-51 44 -73 66t-36.5 54t-14.5 78q0 55 27.5 104t74.5 78t103 29q57 0 102.5 -30t72 -80t26.5 -107l-90 -10q-1 27 -13.5 54.5z" />
    <glyph glyph-name="uni0640" unicode="&#x640;" horiz-adv-x="198" 
d="M-5 129h208l7 -64l-7 -65h-208v129z" />
    <glyph glyph-name="uni064B" unicode="&#x64b;" 
d="M-4 506l217 68v-61l-217 -68v61zM-4 615l217 68v-61l-217 -68v61z" />
    <glyph glyph-name="uni064C" unicode="&#x64c;" 
d="M119 516q40 12 61 43q15 23 15 49q0 22 -11 38.5t-29 16.5q-14 0 -24.5 -11t-10.5 -25q0 -21 22.5 -34.5t59.5 -10.5v-48q-18 -2 -25 -2q-42 0 -69.5 19.5t-33.5 55.5q-1 4 -1 13q0 38 28 66.5t62 28.5q14 0 23 -4q27 -9 41 -35t14 -60q0 -47 -24 -85q-25 -41 -75 -62
t-104 -22l-15 53q56 4 96 16zM31 627q0 -33 37 -62l-36 -45q-57 46 -57 101q0 71 91 144l32 -31q-67 -64 -67 -107z" />
    <glyph glyph-name="uni064D" unicode="&#x64d;" 
d="M-4 -229l217 68v-61l-217 -68v61zM-4 -120l217 68v-61l-217 -68v61z" />
    <glyph glyph-name="uni064E" unicode="&#x64e;" 
d="M-4 506l217 68v-61l-217 -68v61z" />
    <glyph glyph-name="uni064F" unicode="&#x64f;" 
d="M101 516q40 12 61 43q15 23 15 49q0 22 -11 38.5t-29 16.5q-14 0 -24.5 -11t-10.5 -25q0 -21 22.5 -34.5t59.5 -10.5v-48q-18 -2 -25 -2q-42 0 -69.5 19.5t-33.5 55.5q-1 4 -1 13q0 38 28 66.5t62 28.5q14 0 23 -4q27 -9 41 -35t14 -60q0 -47 -24 -85q-25 -41 -75 -62
t-104 -22l-15 53q56 4 96 16z" />
    <glyph glyph-name="uni0650" unicode="&#x650;" 
d="M-4 -254l217 68v-61l-217 -68v61z" />
    <glyph glyph-name="uni0651" unicode="&#x651;" 
d="M12 528q0 -12 7.5 -19t20.5 -7q20 0 31 17t8 56l43 8q8 -73 45 -73q14 0 21.5 8t7.5 20q0 8 -10.5 31.5t-18.5 35.5l43 27q2 -4 12.5 -22.5t17 -37.5t6.5 -35q0 -38 -20.5 -62.5t-57.5 -24.5q-31 0 -55 22.5t-27 71.5l33 2q2 -45 -21.5 -74t-57.5 -29q-36 0 -56 21.5
t-20 53.5q0 17 4.5 35t10.5 31l43 -16q-10 -23 -10 -40z" />
    <glyph glyph-name="uni0652" unicode="&#x652;" 
d="M130.5 618.5q27.5 -32.5 27.5 -75.5q0 -39 -27 -68t-65 -29t-64.5 30.5t-26.5 71.5q0 42 27 72.5t62 30.5q39 0 66.5 -32.5zM35.5 579.5q-11.5 -13.5 -11.5 -33.5q1 -19 12 -31t28 -12q20 0 32 12t13 30q0 21 -12.5 34.5t-32.5 13.5q-17 0 -28.5 -13.5z" />
    <glyph glyph-name="uni0653" unicode="&#x653;" 
d="M19 524q23 25 58 25q20 0 36.5 -6t19.5 -7q12 -5 25.5 -8.5t25.5 -3.5q19 0 33 10t20 19l38 -36q-16 -23 -39 -40t-52 -17q-22 0 -52 13q-32 12 -51 12q-21 0 -33 -13t-16 -29l-46 21q10 35 33 60z" />
    <glyph glyph-name="uni0654" unicode="&#x654;" 
d="M80.5 537q-30.5 28 -30.5 68q0 33 21 62t52 36q14 3 26 3q26 0 69 -13l-15 -61q-31 11 -52 11q-25 0 -39.5 -14.5t-10.5 -31.5q3 -12 16.5 -22.5t35.5 -10.5q8 0 13 1l-11 -61q-44 5 -74.5 33zM19 522l217 67v-62l-217 -67v62z" />
    <glyph glyph-name="uni0655" unicode="&#x655;" 
d="M79.5 -220q-30.5 28 -30.5 68q0 33 21 62t52 36q14 3 26 3q26 0 69 -13l-15 -61q-31 11 -52 11q-25 0 -39.5 -14.5t-10.5 -31.5q3 -12 16.5 -22.5t35.5 -10.5q8 0 13 1l-11 -61q-44 5 -74.5 33zM18 -235l217 67v-62l-217 -67v62z" />
    <glyph glyph-name="uni0656" unicode="&#x656;" 
d="M69 -195q0 -59 -1 -88l-51 2q2 56 2 86q0 62 -3 107l50 6q3 -48 3 -113z" />
    <glyph glyph-name="uni0658" unicode="&#x658;" 
d="M41.5 648.5q-8.5 -27.5 -8.5 -50.5q0 -81 97 -81q58 0 84 23.5t26 57.5q0 18 -8.5 60t-13.5 58l46 20q8 -22 16.5 -63.5t8.5 -74.5q0 -34 -17 -67.5t-52.5 -55.5t-89.5 -22q-66 0 -106 40.5t-40 104.5q0 30 10 65t19 51l46 -21q-9 -17 -17.5 -44.5z" />
    <glyph glyph-name="uni065A" unicode="&#x65a;" 
d="M148 556.5q-19 -38.5 -31 -71.5l-45 -16q-11 33 -32 74.5t-41 70.5l40 38q13 -17 28.5 -48.5t24.5 -57.5q9 28 24.5 62t28.5 53l41 -37q-19 -29 -38 -67.5z" />
    <glyph glyph-name="uni065B" unicode="&#x65b;" 
d="M116.5 524q-15.5 34 -24.5 62q-9 -26 -24.5 -57.5t-28.5 -48.5l-40 38q20 29 41 70.5t32 74.5l45 -16q12 -33 31 -71.5t38 -67.5l-41 -37q-13 19 -28.5 53z" />
    <glyph glyph-name="uni0660" unicode="&#x660;" horiz-adv-x="403" 
d="M311 194l-117 -118l-117 118l117 117z" />
    <glyph glyph-name="uni0661" unicode="&#x661;" horiz-adv-x="353" 
d="M148 64q0 175 -18 305q-22 166 -75 284l103 61q58 -122 82 -329q13 -124 13 -292q0 -63 -1 -93h-105q1 21 1 64z" />
    <glyph glyph-name="uni0662" unicode="&#x662;" horiz-adv-x="544" 
d="M215 568q14 -26 37 -41.5t61 -15.5q53 0 77 33t24 97q0 25 -3 53l95 20q8 -45 8 -84q0 -70 -22.5 -127t-67 -90.5t-109.5 -33.5q-81 0 -132 58.5t-87 155.5l87 49q18 -48 32 -74zM144 64q0 175 -18 305q-22 166 -75 284l103 61q58 -122 82 -329q13 -124 13 -292
q0 -63 -1 -93h-105z" />
    <glyph glyph-name="uni0663" unicode="&#x663;" horiz-adv-x="699" 
d="M483 553.5q16 -36.5 46 -36.5q20 0 31 21.5t11 60.5t-12 90l93 28q17 -66 17 -124q0 -90 -37 -146.5t-102 -56.5q-70 0 -110.5 75t-50.5 193l90 15q8 -83 24 -119.5zM232.5 540q23.5 -31 62.5 -31q34 0 55 30.5t21 86.5q0 10 -2 32l86 7q1 -12 1 -36q0 -70 -19 -127
t-53.5 -90t-79.5 -33q-71 0 -118 51.5t-85 155.5l82 56q26 -71 49.5 -102zM144 64q0 175 -18 305q-22 166 -75 284l103 61q58 -122 82 -329q13 -124 13 -292q0 -63 -1 -93h-105q1 21 1 64z" />
    <glyph glyph-name="uni0664" unicode="&#x664;" horiz-adv-x="478" 
d="M279 -3q-78 0 -135 38t-69 109q-2 9 -2 26q0 52 31.5 103.5t88.5 92t131 58.5l17 -120q-37 -9 -74 -9q-61 0 -112.5 23.5t-82 64.5t-30.5 93q0 54 34.5 103t91.5 84t122 50l31 -121q-64 -17 -118.5 -51t-59.5 -64q4 -25 37.5 -40.5t90.5 -15.5q25 0 53 3l17 -120
q-76 -20 -122.5 -55.5t-46.5 -71.5q0 -5 2 -13q5 -19 27 -28.5t55 -9.5q34 0 72.5 9.5t70.5 26.5l44 -121q-77 -44 -164 -44z" />
    <glyph glyph-name="uni0665" unicode="&#x665;" horiz-adv-x="521" 
d="M145.5 32q-49.5 35 -76.5 97t-27 140q0 85 30 172t80.5 143.5t109.5 56.5q64 0 115 -60t78.5 -147.5t23.5 -162.5q-6 -120 -64 -197t-157 -77q-63 0 -112.5 35zM346.5 167q36.5 37 42.5 98q1 5 1 17q0 44 -19 98t-49.5 92t-64.5 39q-28 0 -57 -36t-48.5 -91t-19.5 -105
q0 -70 35.5 -109.5t90.5 -39.5q52 0 88.5 37z" />
    <glyph glyph-name="uni0666" unicode="&#x666;" horiz-adv-x="569" 
d="M338.5 185q-24.5 117 -24.5 236q0 105 19 190l39 -65q-25 -15 -70.5 -23t-97.5 -8q-53 0 -99 7.5t-72 21.5l32 122q67 -20 148 -20q77 0 144 16l65 -78q-4 -47 -4 -103q0 -116 22 -221.5t67 -208.5l-98 -70q-46 87 -70.5 204z" />
    <glyph glyph-name="uni0667" unicode="&#x667;" horiz-adv-x="634" 
d="M520 469.5q-51 -110.5 -94 -237t-59 -232.5h-100q-12 105 -54.5 231t-95 236.5t-93.5 173.5l96 71q43 -67 92 -182t91 -251t63 -262h-98q23 127 64.5 263.5t90 251t90.5 180.5l97 -71q-39 -61 -90 -171.5z" />
    <glyph glyph-name="uni0668" unicode="&#x668;" horiz-adv-x="634" 
d="M114 225.5q51 110.5 94 237t59 232.5h100q12 -105 54.5 -231t95 -236.5t93.5 -173.5l-96 -71q-43 67 -92 182t-91 251t-63 262h98q-23 -127 -64.5 -263.5t-90 -251t-90.5 -180.5l-97 71q39 61 90 171.5z" />
    <glyph glyph-name="uni0669" unicode="&#x669;" horiz-adv-x="525" 
d="M330.5 153.5q-17.5 123.5 -22.5 244.5q-3 72 -25.5 133.5t-69.5 61.5q-32 0 -55 -32.5t-23 -74.5q0 -29 21.5 -46.5t65.5 -17.5q51 0 76.5 12.5t42.5 26.5l40 -122q-28 -21 -69.5 -34t-93.5 -13q-83 0 -131.5 48.5t-48.5 136.5q0 54 23.5 109.5t64.5 91.5t91 36
q72 0 111.5 -52.5t52.5 -110t25 -144.5q15 -128 31.5 -224.5t37.5 -147.5l-102 -62q-25 57 -42.5 180.5z" />
    <glyph glyph-name="uni066A" unicode="&#x66a;" horiz-adv-x="530" 
d="M134 688l61 -61l30 -30l-45 -47q-24 -22 -46 -46q-61 61 -91 93zM404 163q30 -31 61 -61l30 -30l-46 -47l-45 -46q-52 51 -92 93zM346 707h112l-279 -738h-110z" />
    <glyph glyph-name="uni066B" unicode="&#x66b;" horiz-adv-x="375" 
d="M35 -38l216 493h96l-216 -493h-96z" />
    <glyph glyph-name="uni066C" unicode="&#x66c;" horiz-adv-x="229" 
d="M23 -130l73 237h107v0l-102 -237h-78v0z" />
    <glyph glyph-name="uni066D" unicode="&#x66d;" horiz-adv-x="718" 
d="M227 471l68 -151l-2 -2l-151 67l1 86h84zM112 314l154 -59v-2l-154 -60l-60 61zM141 121l151 68l2 -2l-67 -151l-86 1v84zM299 6l58 155h2l60 -155l-61 -60zM491 36l-68 150l2 2l151 -67l-1 -85h-84zM606 193l-155 58v3l155 59l60 -61zM576 385l-150 -68l-2 2l67 151
l85 -1v-84zM419 500l-58 -154h-3l-59 154l61 60zM313.5 208q-18.5 18 -18.5 45q0 26 18.5 44.5t45.5 18.5q26 0 44.5 -18.5t18.5 -44.5q0 -27 -18.5 -45t-44.5 -18q-27 0 -45.5 18z" />
    <glyph glyph-name="uni066E" unicode="&#x66e;" horiz-adv-x="846" 
d="M418 54q0 43 1 64q92 0 157.5 11t99.5 26t36 26q-6 45 -26.5 106t-33.5 92l94 51q24 -54 43 -126.5t17 -121.5q-4 -94 -110.5 -143.5t-276.5 -49.5q-1 22 -1 65zM151 41q-101 53 -110 150q-1 8 -1 24q0 42 11 89.5t28 87.5l87 -43q-30 -91 -26 -135q8 -43 82 -69.5
t207 -26.5q2 -21 2 -64t-2 -65q-177 -1 -278 52z" />
    <glyph glyph-name="uni066F" unicode="&#x66f;" horiz-adv-x="725" 
d="M186 -254q-70 37 -107.5 102.5t-37.5 149.5q0 61 21 129.5t48 124.5l87 -40q-26 -58 -40 -104.5t-14 -95.5q0 -84 53.5 -128.5t152.5 -44.5q97 0 161.5 45t75.5 119q-33 -6 -68 -6q-70 0 -126.5 24t-80.5 73q-17 39 -17 82q0 57 24 113.5t65.5 93t90.5 36.5
q61 0 109 -52.5t74.5 -135t26.5 -168.5q0 -109 -43 -189t-119 -122.5t-173 -42.5q-93 0 -163 37zM543 245q-29 50 -70 54q-3 1 -10 1q-21 0 -38.5 -16t-28 -40t-10.5 -46q0 -20 8 -31q14 -21 53 -32t87 -11q26 0 50 3q-12 68 -41 118z" />
    <glyph glyph-name="uni0670" unicode="&#x670;" 
d="M61 565q0 -59 -1 -88l-51 2q2 56 2 86q0 62 -3 107l50 6q3 -48 3 -113z" />
    <glyph glyph-name="uni0688" unicode="&#x688;" horiz-adv-x="519" 
d="M116 20.5q-58 24.5 -90 51.5l49 92q35 -18 74.5 -31.5t96.5 -13.5q54 0 88.5 13t45.5 29q2 8 2 14q0 39 -49 104t-159 142l62 112q114 -83 180.5 -177.5t66.5 -179.5q0 -37 -15 -72q-22 -52 -80.5 -80t-129.5 -28q-84 0 -142 24.5zM170 668q24 -5 58 -5q52 0 73 12t21 28
q0 11 -7.5 18t-22.5 7q-31 0 -65 -31t-57 -74l-39 30q31 57 72 96t84 39q38 0 59.5 -26t21.5 -59q0 -42 -38.5 -73t-116.5 -31q-52 0 -84.5 13.5t-34.5 14.5l18 56q34 -10 58 -15zM159.5 767.5q-4.5 53.5 -11.5 93.5l49 10q7 -40 12.5 -99.5t2.5 -86.5l-50 8q2 21 -2.5 74.5
z" />
    <glyph glyph-name="uni0691" unicode="&#x691;" horiz-adv-x="372" 
d="M119 -120q54 36 85 73t31 66q0 22 -12 73.5t-32 129.5q-8 28 -11 42l100 39q23 -70 37.5 -148.5t14.5 -135.5q0 -95 -77.5 -177t-202.5 -132l-52 109q65 25 119 61zM178 440q24 -5 58 -5q52 0 73 12t21 28q0 11 -7.5 18t-22.5 7q-31 0 -65 -31t-57 -74l-39 30
q31 57 72 96t84 39q38 0 59.5 -26t21.5 -59q0 -42 -38.5 -73t-116.5 -31q-52 0 -84.5 13.5t-34.5 14.5l18 56q34 -10 58 -15zM167.5 539.5q-4.5 53.5 -11.5 93.5l49 10q7 -40 12.5 -99.5t2.5 -86.5l-50 8q2 21 -2.5 74.5z" />
    <glyph glyph-name="uni0695" unicode="&#x695;" horiz-adv-x="372" 
d="M119 -120q54 36 85 73t31 66q0 22 -12 73.5t-32 129.5q-8 28 -11 42l100 39q23 -70 37.5 -148.5t14.5 -135.5q0 -95 -77.5 -177t-202.5 -132l-52 109q65 25 119 61zM196 -416.5q-19 -38.5 -31 -71.5l-45 -16q-11 33 -32 74.5t-41 70.5l40 38q13 -17 28.5 -48.5
t24.5 -57.5q9 28 24.5 62t28.5 53l41 -37q-19 -29 -38 -67.5z" />
    <glyph glyph-name="uni06A1" unicode="&#x6a1;" horiz-adv-x="886" 
d="M425 -11l-9 64l4 65h14q156 1 235 30.5t90 95.5q0 53 -15.5 107t-43 89.5t-62.5 35.5q-22 0 -40.5 -14.5t-29 -36t-10.5 -41.5q0 -17 8 -30q15 -21 55.5 -33.5t91.5 -12.5q35 0 69 6v-116q-52 -10 -94 -10q-70 0 -124 23.5t-79 70.5q-18 38 -18 84q0 54 23.5 106t65 85
t90.5 33q60 0 107 -49.5t71.5 -127.5t19.5 -160q-5 -122 -108.5 -192.5t-303.5 -71.5h-7zM151 41q-101 53 -110 150q-1 8 -1 24q0 42 11 89.5t28 87.5l87 -43q-30 -91 -26 -135q8 -43 82 -69.5t207 -26.5q2 -21 2 -64t-2 -65q-177 -1 -278 52z" />
    <glyph glyph-name="uni06B5" unicode="&#x6b5;" horiz-adv-x="676" 
d="M183.5 -225q-65.5 32 -104 91t-38.5 138q0 57 20 126t48 126l87 -41q-26 -56 -40 -101t-14 -90q0 -68 51 -110t135 -42q214 0 207 221q-6 191 -17 357t-22 251l109 25q16 -134 30 -628q4 -167 -77 -261t-230 -94q-79 0 -144.5 32zM602 843.5q-19 -38.5 -31 -71.5l-45 -16
q-11 33 -32 74.5t-41 70.5l40 38q13 -17 28.5 -48.5t24.5 -57.5q9 28 24.5 62t28.5 53l41 -37q-19 -29 -38 -67.5z" />
    <glyph glyph-name="uni06BA" unicode="&#x6ba;" horiz-adv-x="717" 
d="M157 107.5q-14 -47.5 -14 -95.5q0 -86 53 -129.5t153 -43.5q74 0 127.5 25.5t80.5 67t27 87.5q0 61 -61 244l95 49q62 -174 62 -293q0 -82 -40.5 -153t-116 -114t-174.5 -43q-93 0 -163 37t-107.5 102.5t-37.5 149.5q0 61 21 129.5t48 124.5l87 -40q-26 -57 -40 -104.5z
" />
    <glyph glyph-name="uni06C1" unicode="&#x6c1;" horiz-adv-x="462" 
d="M91.5 45q-49.5 49 -49.5 125q0 30 7 58q16 61 52 112.5t89 103.5l61 -80q-114 -96 -114 -167q0 -35 26 -54.5t76 -19.5q42 0 69 17t30 45q-5 52 -60 106.5t-170 124.5l65 99q129 -76 194.5 -155t65.5 -167q0 -57 -26.5 -102t-73 -70t-102.5 -25q-90 0 -139.5 49z" />
    <glyph glyph-name="uni06C2" unicode="&#x6c2;" horiz-adv-x="462" 
d="M91.5 45q-49.5 49 -49.5 125q0 30 7 58q16 61 52 112.5t89 103.5l61 -80q-114 -96 -114 -167q0 -35 26 -54.5t76 -19.5q42 0 69 17t30 45q-5 52 -60 106.5t-170 124.5l65 99q129 -76 194.5 -155t65.5 -167q0 -57 -26.5 -102t-73 -70t-102.5 -25q-90 0 -139.5 49z
M158.5 643q-30.5 28 -30.5 68q0 33 21 62t52 36q14 3 26 3q26 0 69 -13l-15 -61q-31 11 -52 11q-25 0 -39.5 -14.5t-10.5 -31.5q3 -12 16.5 -22.5t35.5 -10.5q8 0 13 1l-11 -61q-44 5 -74.5 33zM97 628l217 67v-62l-217 -67v62z" />
    <glyph glyph-name="uni06C3" unicode="&#x6c3;" horiz-adv-x="462" 
d="M91.5 45q-49.5 49 -49.5 125q0 30 7 58q16 61 52 112.5t89 103.5l61 -80q-114 -96 -114 -167q0 -35 26 -54.5t76 -19.5q42 0 69 17t30 45q-5 52 -60 106.5t-170 124.5l65 99q129 -76 194.5 -155t65.5 -167q0 -57 -26.5 -102t-73 -70t-102.5 -25q-90 0 -139.5 49zM154 726
l80 -80l-53 -53l-27 -27l-27 27l-53 53zM331 726l80 -80l-53 -53l-27 -27l-27 27l-53 53z" />
    <glyph glyph-name="uni06C9" unicode="&#x6c9;" horiz-adv-x="485" 
d="M276 -87q77 54 77 139q-1 60 -16.5 117.5t-44.5 94.5t-66 37q-21 0 -39.5 -16.5t-29.5 -41.5t-11 -47q0 -16 8 -29q15 -21 54.5 -32t89.5 -11q45 0 81 7v-121q-52 -13 -102 -13q-70 0 -126 24t-79 73q-17 35 -17 82q0 57 24 113.5t65.5 93t90.5 36.5q60 0 108 -52
t74.5 -134t26.5 -168q0 -135 -99 -228.5t-274 -126.5l-39 113q167 36 244 90zM245.5 523q-15.5 34 -24.5 62q-9 -26 -24.5 -57.5t-28.5 -48.5l-40 38q20 29 41 70.5t32 74.5l45 -16q12 -33 31 -71.5t38 -67.5l-41 -37q-13 19 -28.5 53z" />
    <glyph glyph-name="uni06CE" unicode="&#x6ce;" horiz-adv-x="758" 
d="M190 -203q-70 34 -110 98.5t-40 154.5q0 61 21 132.5t48 123.5l87 -40q-26 -56 -40.5 -104t-14.5 -96q0 -86 53.5 -129.5t153.5 -43.5q88 0 153 33.5t89 80.5q1 3 -32 13.5t-84 25.5q-79 23 -111.5 52.5t-32.5 87.5q0 78 40 149t106 114.5t139 43.5q29 0 57.5 -8
t41.5 -19l-37 -113q-11 4 -30 7t-35 3q-42 0 -80.5 -19.5t-65 -51t-34.5 -65.5q-1 -4 -1 -11q0 -17 23 -30.5t88 -30.5q63 -16 96 -34t45 -38.5t12 -48.5q0 -68 -45.5 -130.5t-125 -101.5t-176.5 -39q-88 0 -158 34zM295 467.5q-19 -38.5 -31 -71.5l-45 -16q-11 33 -32 74.5
t-41 70.5l40 38q13 -17 28.5 -48.5t24.5 -57.5q9 28 24.5 62t28.5 53l41 -37q-19 -29 -38 -67.5z" />
    <glyph glyph-name="uni06D4" unicode="&#x6d4;" horiz-adv-x="327" 
d="M107 26.5q-23 23.5 -23 57.5q0 33 23 55.5t57 22.5q33 0 56 -23t23 -55q0 -34 -23 -57.5t-56 -23.5q-34 0 -57 23.5z" />
    <glyph glyph-name="uni06D5" unicode="&#x6d5;" horiz-adv-x="462" 
d="M91.5 45q-49.5 49 -49.5 125q0 30 7 58q16 61 52 112.5t89 103.5l61 -80q-114 -96 -114 -167q0 -35 26 -54.5t76 -19.5q42 0 69 17t30 45q-5 52 -60 106.5t-170 124.5l65 99q129 -76 194.5 -155t65.5 -167q0 -57 -26.5 -102t-73 -70t-102.5 -25q-90 0 -139.5 49z" />
    <glyph glyph-name="uni06F0" unicode="&#x6f0;" horiz-adv-x="469" 
d="M141 56.5q-39 23.5 -62.5 62.5t-23.5 84q0 46 23 85t62.5 62t84.5 23q47 0 86.5 -23t62.5 -62t23 -85q0 -45 -23 -84.5t-62.5 -62.5t-86.5 -23q-45 0 -84 23.5zM274 153q20 20 20 50q0 31 -20 51t-49 20q-28 0 -48 -20.5t-20 -50.5t20 -50t48 -20q29 0 49 20z" />
    <glyph glyph-name="uni06F1" unicode="&#x6f1;" horiz-adv-x="353" 
d="M148 64q0 175 -18 305q-22 166 -75 284l103 61q58 -122 82 -329q13 -124 13 -292q0 -63 -1 -93h-105q1 21 1 64z" />
    <glyph glyph-name="uni06F2" unicode="&#x6f2;" horiz-adv-x="544" 
d="M215 568q14 -26 37 -41.5t61 -15.5q53 0 77 33t24 97q0 25 -3 53l95 20q8 -45 8 -84q0 -70 -22.5 -127t-67 -90.5t-109.5 -33.5q-81 0 -132 58.5t-87 155.5l87 49q18 -48 32 -74zM144 64q0 175 -18 305q-22 166 -75 284l103 61q58 -122 82 -329q13 -124 13 -292
q0 -63 -1 -93h-105z" />
    <glyph glyph-name="uni06F3" unicode="&#x6f3;" horiz-adv-x="698" 
d="M483 553.5q16 -36.5 46 -36.5q20 0 31 21.5t11 60.5t-12 90l93 28q17 -66 17 -124q0 -90 -37 -146.5t-102 -56.5q-70 0 -110.5 75t-50.5 193l90 15q8 -83 24 -119.5zM232.5 540q23.5 -31 62.5 -31q34 0 55 30.5t21 86.5q0 10 -2 32l86 7q1 -12 1 -36q0 -70 -19 -127
t-53.5 -90t-79.5 -33q-71 0 -118 51.5t-85 155.5l82 56q26 -71 49.5 -102zM144 64q0 175 -18 305q-22 166 -75 284l103 61q58 -122 82 -329q13 -124 13 -292q0 -63 -1 -93h-105q1 21 1 64z" />
    <glyph glyph-name="uni06F4" unicode="&#x6f4;" horiz-adv-x="676" 
d="M292.5 447q65.5 -49 151.5 -49q46 0 92 12.5t87 32.5l28 -116q-88 -46 -171 -46q-70 0 -124 31.5t-83.5 80.5t-29.5 98q0 57 28.5 108t78 82t109.5 31q84 0 176 -74l-45 -91q-64 33 -127 33q-52 0 -86.5 -26.5t-34.5 -64.5q0 -36 32.5 -61t89.5 -25q72 0 159 40l28 -116
q-42 -23 -95.5 -37.5t-107.5 -14.5q-110 0 -199.5 64t-134.5 209l83 61q30 -113 95.5 -162zM148 64q0 175 -18 305q-22 166 -75 284l103 61q58 -122 82 -329q13 -124 13 -292q0 -63 -1 -93h-105q1 21 1 64z" />
    <glyph glyph-name="uni06F5" unicode="&#x6f5;" horiz-adv-x="631" 
d="M201.5 409.5q-49.5 -83.5 -60.5 -159.5q-2 -22 -2 -31q0 -46 19.5 -71t52.5 -25q35 0 51 33.5t16 75.5l85 14q3 -49 18 -86t48 -37q66 0 66 95q0 184 -323 391l66 112q156 -115 255.5 -242t99.5 -278q0 -64 -20 -111.5t-55.5 -72.5t-80.5 -25q-63 0 -109 55.5t-50 184.5
l85 14q-3 -139 -44 -196.5t-113 -57.5q-76 0 -121.5 58.5t-45.5 151.5q0 11 2 39q10 105 78.5 223t154.5 204l56 -95q-79 -80 -128.5 -163.5z" />
    <glyph glyph-name="uni06F6" unicode="&#x6f6;" horiz-adv-x="556" 
d="M223.5 318q126.5 119 272.5 177l22 -129q-116 -44 -223.5 -145t-163.5 -243l-93 45q59 176 185.5 295zM283 287q-59 0 -103.5 28.5t-68 74t-23.5 97.5q0 49 22.5 97.5t67.5 83.5t109 44q18 2 26 2q42 0 82.5 -16t64.5 -36l-43 -91q-42 20 -89 20q-9 0 -29 -2
q-49 -6 -79.5 -36t-30.5 -64q0 -28 28 -48t73 -20q54 0 113 30l23 -125q-77 -39 -143 -39z" />
    <glyph glyph-name="uni06F7" unicode="&#x6f7;" horiz-adv-x="634" 
d="M520 469.5q-51 -110.5 -94 -237t-59 -232.5h-100q-12 105 -54.5 231t-95 236.5t-93.5 173.5l96 71q43 -67 92 -182t91 -251t63 -262h-98q23 127 64.5 263.5t90 251t90.5 180.5l97 -71q-39 -61 -90 -171.5z" />
    <glyph glyph-name="uni06F8" unicode="&#x6f8;" horiz-adv-x="634" 
d="M114 225.5q51 110.5 94 237t59 232.5h100q12 -105 54.5 -231t95 -236.5t93.5 -173.5l-96 -71q-43 67 -92 182t-91 251t-63 262h98q-23 -127 -64.5 -263.5t-90 -251t-90.5 -180.5l-97 71q39 61 90 171.5z" />
    <glyph glyph-name="uni06F9" unicode="&#x6f9;" horiz-adv-x="525" 
d="M330.5 153.5q-17.5 123.5 -22.5 244.5q-3 72 -25.5 133.5t-69.5 61.5q-32 0 -55 -32.5t-23 -74.5q0 -29 21.5 -46.5t65.5 -17.5q51 0 76.5 12.5t42.5 26.5l40 -122q-28 -21 -69.5 -34t-93.5 -13q-83 0 -131.5 48.5t-48.5 136.5q0 54 23.5 109.5t64.5 91.5t91 36
q72 0 111.5 -52.5t52.5 -110t25 -144.5q15 -128 31.5 -224.5t37.5 -147.5l-102 -62q-25 57 -42.5 180.5z" />
    <glyph glyph-name="uni2009" unicode="&#x2009;" horiz-adv-x="98" 
 />
    <glyph glyph-name="uni200A" unicode="&#x200a;" horiz-adv-x="64" 
 />
    <glyph glyph-name="uni200B" unicode="&#x200b;" 
 />
    <glyph glyph-name="uni200C" unicode="&#x200c;" 
 />
    <glyph glyph-name="uni200D" unicode="&#x200d;" 
 />
    <glyph glyph-name="uni200E" unicode="&#x200e;" 
 />
    <glyph glyph-name="uni200F" unicode="&#x200f;" 
 />
    <glyph glyph-name="quoteleft" unicode="&#x2018;" horiz-adv-x="224" 
d="M171.5 616.5q-12.5 -36.5 -13.5 -70.5v-108h-116v94q0 56 28 113.5t71 93.5l71 -40q-28 -46 -40.5 -82.5z" />
    <glyph glyph-name="quoteright" unicode="&#x2019;" horiz-adv-x="224" 
d="M52.5 572.5q12.5 36.5 13.5 70.5v108h116v-94q0 -56 -28 -113.5t-71 -93.5l-71 40q28 46 40.5 82.5z" />
    <glyph glyph-name="quotedblleft" unicode="&#x201c;" horiz-adv-x="425" 
d="M372.5 618.5q-12.5 -36.5 -13.5 -70.5v-108h-116v94q0 56 28 113.5t71 93.5l71 -40q-28 -46 -40.5 -82.5zM184.5 618.5q-12.5 -36.5 -13.5 -70.5v-108h-116v94q0 56 28 113.5t71 93.5l71 -40q-28 -46 -40.5 -82.5z" />
    <glyph glyph-name="quotedblright" unicode="&#x201d;" horiz-adv-x="413" 
d="M52.5 486.5q12.5 36.5 13.5 70.5v108h116v-94q0 -56 -28 -113.5t-71 -93.5l-71 40q28 46 40.5 82.5zM240.5 486.5q12.5 36.5 13.5 70.5v108h116v-94q0 -56 -28 -113.5t-71 -93.5l-71 40q28 46 40.5 82.5z" />
    <glyph glyph-name="quotedblbase" unicode="&#x201e;" horiz-adv-x="432" 
d="M59.5 -54.5q12.5 36.5 13.5 70.5v108h116v-94q0 -56 -28 -113.5t-71 -93.5l-71 40q28 46 40.5 82.5zM248.5 -54.5q12.5 36.5 13.5 70.5v108h116v-94q0 -56 -28 -113.5t-71 -93.5l-71 40q28 46 40.5 82.5z" />
    <glyph glyph-name="bullet" unicode="&#x2022;" horiz-adv-x="504" 
d="M177.5 -1q-34.5 20 -54.5 54t-20 74t20 74.5t54.5 54.5t74.5 20t74 -20t54 -54.5t20 -74.5t-20 -74t-54 -54t-74 -20t-74.5 20z" />
    <glyph glyph-name="ellipsis" unicode="&#x2026;" horiz-adv-x="881" 
d="M105 26.5q-23 23.5 -23 57.5q0 33 23 55.5t57 22.5q33 0 56 -23t23 -55q0 -34 -23 -57.5t-56 -23.5q-34 0 -57 23.5zM383 26.5q-23 23.5 -23 57.5q0 33 23 55.5t57 22.5q33 0 56 -23t23 -55q0 -34 -23 -57.5t-56 -23.5q-34 0 -57 23.5zM662 26.5q-23 23.5 -23 57.5
q0 33 23 55.5t57 22.5q33 0 56 -23t23 -55q0 -34 -23 -57.5t-56 -23.5q-34 0 -57 23.5z" />
    <glyph glyph-name="minute" unicode="&#x2032;" horiz-adv-x="175" 
d="M137 686l-13 -189h-78v194l1 59h90v-64z" />
    <glyph glyph-name="second" unicode="&#x2033;" horiz-adv-x="339" 
d="M312 686l-13 -189h-78v194l1 59h90v-64zM153 686l-13 -189h-78v194l1 59h90v-64z" />
    <glyph glyph-name="guilsinglleft" unicode="&#x2039;" horiz-adv-x="244" 
d="M137.5 122q18.5 -46 56.5 -94l-56 -63q-106 114 -106 254t106 254l56 -63q-38 -48 -56.5 -94t-18.5 -97t18.5 -97z" />
    <glyph glyph-name="guilsinglright" unicode="&#x203a;" horiz-adv-x="244" 
d="M106.5 316q-18.5 46 -56.5 94l56 63q106 -114 106 -254t-106 -254l-56 63q38 48 56.5 94t18.5 97t-18.5 97z" />
    <glyph glyph-name="fraction" unicode="&#x2044;" horiz-adv-x="449" 
d="M82 54l-62 34l347 556l62 -35z" />
    <glyph glyph-name="uni2070" unicode="&#x2070;" horiz-adv-x="370" 
d="M294.5 322q-38.5 -42 -108.5 -42q-71 0 -109.5 41t-39.5 117v76q0 78 39 120t109 42q69 0 108 -41.5t40 -117.5v-77q0 -76 -38.5 -118zM185 603q-56 0 -58 -77v-91q0 -43 14.5 -63t44.5 -20q54 0 57 76v92q0 83 -58 83z" />
    <glyph glyph-name="uni2074" unicode="&#x2074;" horiz-adv-x="370" 
d="M296 438h47v-72h-47v-81h-90v81h-175l-5 57l178 247h92v-232zM114 438h92v122l-8 -13z" />
    <glyph glyph-name="uni2075" unicode="&#x2075;" horiz-adv-x="370" 
d="M48 473l25 197h241v-72h-168l-10 -74q36 14 66 14q63 0 97.5 -32.5t34.5 -92.5t-40 -96.5t-107 -36.5q-62 0 -105 32t-44 80h90q3 -40 59 -40q28 0 43 16t15 46q0 28 -17 44.5t-49 16.5q-35 0 -60 -20z" />
    <glyph glyph-name="uni2076" unicode="&#x2076;" horiz-adv-x="370" 
d="M169.5 579q-34.5 -24 -40.5 -72q34 34 88 34q57 0 90 -34.5t33 -94.5q0 -57 -41 -94.5t-106 -37.5q-72 0 -113.5 40.5t-41.5 113.5v27q0 103 60 159t177 57v-74q-71 0 -105.5 -24zM152 462q-17 -8 -25 -22v-18q0 -35 17 -53t46 -18q26 0 43.5 18t17.5 44q0 27 -15.5 42
t-45.5 15q-21 0 -38 -8z" />
    <glyph glyph-name="uni2077" unicode="&#x2077;" horiz-adv-x="370" 
d="M334 620l-165 -335h-95l166 313h-214v72h308v-50z" />
    <glyph glyph-name="uni2078" unicode="&#x2078;" horiz-adv-x="370" 
d="M76.5 309.5q-39.5 29.5 -39.5 81.5q0 64 65 92q-56 28 -56 84q0 50 37.5 79.5t101.5 29.5q63 0 101 -29t38 -80q0 -57 -56 -84q65 -29 65 -92q0 -52 -39.5 -81.5t-108.5 -29.5t-108.5 29.5zM226 363.5q17 12.5 17 35.5q0 22 -15.5 34t-42.5 12q-28 0 -43.5 -12t-15.5 -34
t17 -35t41 -13q25 0 42 12.5zM221 529.5q13 11.5 13 31.5t-13 31.5t-36 11.5q-24 0 -37 -11t-13 -32q0 -20 13.5 -31.5t36.5 -11.5t36 11.5z" />
    <glyph glyph-name="uni2079" unicode="&#x2079;" horiz-adv-x="370" 
d="M201 370.5q31 18.5 38 66.5q-32 -28 -77 -28q-60 0 -94 33.5t-34 94.5q0 39 19 71t53 50t75 18q69 0 108 -40.5t41 -112.5v-31q0 -104 -54.5 -156.5t-171.5 -55.5v72q66 0 97 18.5zM240 502v34q0 67 -59 67q-25 0 -41 -19t-16 -48q0 -28 16 -44t45 -16q38 0 55 26z" />
    <glyph glyph-name="uni2080" unicode="&#x2080;" horiz-adv-x="370" 
d="M294.5 37q-38.5 -42 -108.5 -42q-71 0 -109.5 41t-39.5 117v76q0 78 39 120t109 42q69 0 108 -41.5t40 -117.5v-77q0 -76 -38.5 -118zM185 318q-56 0 -58 -77v-91q0 -43 14.5 -63t44.5 -20q54 0 57 76v92q0 83 -58 83z" />
    <glyph glyph-name="uni2081" unicode="&#x2081;" horiz-adv-x="370" 
d="M251 0h-90v280l-97 -23v69l178 59h9v-385z" />
    <glyph glyph-name="uni2082" unicode="&#x2082;" horiz-adv-x="370" 
d="M336 0h-298v61l144 131q25 23 38 44t13 36q0 22 -14 34.5t-39 12.5q-29 0 -45 -16.5t-16 -42.5l-88 2q0 57 40.5 93t105.5 36q69 0 107.5 -31.5t38.5 -87.5q0 -45 -39 -89q-19 -22 -61 -56l-68 -55h181v-72z" />
    <glyph glyph-name="uni2083" unicode="&#x2083;" horiz-adv-x="370" 
d="M131 227h42q31 0 47 13t16 35q0 20 -14.5 32t-42.5 12q-24 0 -40.5 -10.5t-16.5 -26.5h-89q0 49 40 79t103 30q70 0 110 -29.5t40 -80.5q0 -28 -17 -50t-50 -34q74 -20 74 -90q0 -50 -43.5 -81t-113.5 -31q-67 0 -108.5 32t-41.5 85h91q0 -19 17.5 -32t46.5 -13
q30 0 46 13t16 35q0 50 -67 50h-45v62z" />
    <glyph glyph-name="uni2084" unicode="&#x2084;" horiz-adv-x="370" 
d="M296 153h47v-72h-47v-81h-90v81h-175l-5 57l178 247h92v-232zM114 153h92v122l-8 -13z" />
    <glyph glyph-name="uni2085" unicode="&#x2085;" horiz-adv-x="370" 
d="M48 188l25 197h241v-72h-168l-10 -74q36 14 66 14q63 0 97.5 -32.5t34.5 -92.5t-40 -96.5t-107 -36.5q-62 0 -105 32t-44 80h90q3 -40 59 -40q28 0 43 16t15 46q0 28 -17 44.5t-49 16.5q-35 0 -60 -20z" />
    <glyph glyph-name="uni2086" unicode="&#x2086;" horiz-adv-x="370" 
d="M169.5 294q-34.5 -24 -40.5 -72q34 34 88 34q57 0 90 -34.5t33 -94.5q0 -57 -41 -94.5t-106 -37.5q-72 0 -113.5 40.5t-41.5 113.5v27q0 103 60 159t177 57v-74q-71 0 -105.5 -24zM152 177q-17 -8 -25 -22v-18q0 -35 17 -53t46 -18q26 0 43.5 18t17.5 44q0 27 -15.5 42
t-45.5 15q-21 0 -38 -8z" />
    <glyph glyph-name="uni2087" unicode="&#x2087;" horiz-adv-x="370" 
d="M334 335l-165 -335h-95l166 313h-214v72h308v-50z" />
    <glyph glyph-name="uni2088" unicode="&#x2088;" horiz-adv-x="370" 
d="M76.5 24.5q-39.5 29.5 -39.5 81.5q0 64 65 92q-56 28 -56 84q0 50 37.5 79.5t101.5 29.5q63 0 101 -29t38 -80q0 -57 -56 -84q65 -29 65 -92q0 -52 -39.5 -81.5t-108.5 -29.5t-108.5 29.5zM226 78.5q17 12.5 17 35.5q0 22 -15.5 34t-42.5 12q-28 0 -43.5 -12t-15.5 -34
t17 -35t41 -13q25 0 42 12.5zM221 244.5q13 11.5 13 31.5t-13 31.5t-36 11.5q-24 0 -37 -11t-13 -32q0 -20 13.5 -31.5t36.5 -11.5t36 11.5z" />
    <glyph glyph-name="uni2089" unicode="&#x2089;" horiz-adv-x="370" 
d="M201 85.5q31 18.5 38 66.5q-32 -28 -77 -28q-60 0 -94 33.5t-34 94.5q0 39 19 71t53 50t75 18q69 0 108 -40.5t41 -112.5v-31q0 -104 -54.5 -156.5t-171.5 -55.5v72q66 0 97 18.5zM240 217v34q0 67 -59 67q-25 0 -41 -19t-16 -48q0 -28 16 -44t45 -16q38 0 55 26z" />
    <glyph glyph-name="trademark" unicode="&#x2122;" horiz-adv-x="629" 
d="M491 629l-59 -181h-31l-61 181v-181h-55v263h68l63 -187l65 187h66v-263h-56v181zM249 664h-66v-215h-60v215h-69v47h195v-47z" />
    <glyph glyph-name="partialdiff" unicode="&#x2202;" horiz-adv-x="571" 
d="M162 22q-55 32 -85 91t-30 139v7q0 72 28.5 127.5t80.5 86t121 30.5q42 0 79.5 -16.5t65.5 -46.5q-13 97 -60 153t-113 56q-54 0 -126 -27l-16 88q41 20 77.5 28t75.5 8q85 0 147 -46t94.5 -135t32.5 -215v-36q0 -98 -30.5 -171.5t-86 -113t-127.5 -39.5q-73 0 -128 32z
M382.5 136.5q32.5 51.5 32.5 146.5l-1 46q-16 37 -48.5 58t-74.5 21q-58 0 -91 -40.5t-33 -112.5v-11q0 -75 32.5 -117t90.5 -42q60 0 92.5 51.5z" />
    <glyph glyph-name="product" unicode="&#x220f;" horiz-adv-x="692" 
d="M613 -115h-121v732h-290v-732h-121v826h532v-826z" />
    <glyph glyph-name="summation" unicode="&#x2211;" horiz-adv-x="610" 
d="M442 283l-254 -319h407v-95h-565v71l285 350l-285 350v71h541v-95h-383l254 -318v-15z" />
    <glyph glyph-name="minus" unicode="&#x2212;" horiz-adv-x="561" 
d="M492 304h-416v96h416v-96z" />
    <glyph glyph-name="uni2215" unicode="&#x2215;" horiz-adv-x="600" 
d="M385 768l92 -29l-261 -812l-92 29z" />
    <glyph glyph-name="radical" unicode="&#x221a;" horiz-adv-x="574" 
d="M279 142l177 569h103l-227 -711h-100l-103 279h-100v96h174z" />
    <glyph glyph-name="infinity" unicode="&#x221e;" horiz-adv-x="1041" 
d="M166 25q-56 35 -87.5 97t-31.5 141q0 63 25.5 126.5t80.5 106t139 42.5q71 0 128.5 -41t97.5 -121q40 79 98 120.5t129 41.5t126.5 -35t87 -99t31.5 -146q0 -61 -26.5 -123t-82 -103.5t-137.5 -41.5q-71 0 -128.5 42t-97.5 122q-40 -81 -97.5 -122.5t-127.5 -41.5
q-71 0 -127 35zM366 113.5q33 26.5 56 66.5t34 80v12q-8 37 -32 76.5t-58 66t-70 26.5q-59 0 -95 -48.5t-36 -133.5q0 -77 36 -124.5t96 -47.5q36 0 69 26.5zM836 135.5q36 48.5 36 133.5q0 76 -36.5 124t-94.5 48q-36 0 -69.5 -25.5t-57.5 -64.5t-34 -79v-12
q8 -37 33 -77.5t59 -68t68 -27.5q60 0 96 48.5z" />
    <glyph glyph-name="integral" unicode="&#x222b;" horiz-adv-x="276" 
d="M151 -167.5q-45 -45.5 -130 -45.5q-34 0 -64 9l8 92q22 -6 40 -6q70 0 71 79v618q0 87 47.5 134t134.5 47q34 0 75 -10l-11 -90q-17 5 -47 5q-79 0 -79 -90v-611q0 -86 -45 -131.5z" />
    <glyph glyph-name="approxequal" unicode="&#x2248;" horiz-adv-x="571" 
d="M106 482q32 14 65 14t59 -9t60 -27q34 -17 57 -25.5t52 -8.5q64 0 112 62v-104q-48 -53 -110 -53q-31 0 -56.5 9t-61.5 27q-35 17 -58 25.5t-50 8.5q-34 0 -68 -16.5t-57 -45.5v104q24 25 56 39zM170 292q30 0 57 -9.5t62 -26.5q36 -17 59 -25.5t48 -8.5q65 0 115 62
v-104q-50 -53 -112 -53q-31 0 -57 9t-62 27q-31 16 -55 24.5t-51 8.5q-34 0 -67.5 -16t-57.5 -45v104q53 53 121 53z" />
    <glyph glyph-name="notequal" unicode="&#x2260;" horiz-adv-x="563" 
d="M495 172h-266l-62 -112l-53 29l46 83h-90v98h143l62 109h-205v98h258l65 115l53 -29l-48 -86h97v-98h-151l-61 -109h212v-98z" />
    <glyph glyph-name="lessequal" unicode="&#x2264;" horiz-adv-x="512" 
d="M152 370l291 -103v-110l-413 170v89l413 170v-110zM454 12h-416v96h416v-96z" />
    <glyph glyph-name="greaterequal" unicode="&#x2265;" horiz-adv-x="513" 
d="M361 374l-300 105v109l421 -171v-88l-421 -171v109zM475 12h-416v96h416v-96z" />
    <glyph glyph-name="uniFBB2" unicode="&#xfbb2;" 
d="M86 406l57 -57l28 -28l-85 -86l-85 86z" />
    <glyph glyph-name="uniFBB3" unicode="&#xfbb3;" 
d="M86 -56l57 -57l28 -28l-85 -86l-85 86z" />
    <glyph glyph-name="uniFBB4" unicode="&#xfbb4;" 
d="M76 401l80 -80l-53 -53l-27 -27l-27 27l-53 53zM253 401l80 -80l-53 -53l-27 -27l-27 27l-53 53z" />
    <glyph glyph-name="uniFBB5" unicode="&#xfbb5;" 
d="M253 -182l-80 80l53 53l27 27l27 -27l53 -53zM76 -182l-80 80l53 53l27 27l27 -27l53 -53z" />
    <glyph glyph-name="uniFBB6" unicode="&#xfbb6;" 
d="M49 279l25 25l76 -75l-51 -51l-25 -25l-19 19q-47 47 -56 57zM261 304l75 -75l-75 -76l-50 50l-26 26zM122 366l45 45l67 -67l-67 -68l-67 68z" />
    <glyph glyph-name="uniFBB9" unicode="&#xfbb9;" 
d="M286 -147q-12 -13 -25 -25l-76 75l51 51l25 25l19 -19l56 -57q-24 -26 -50 -50zM74 -172l-75 75l75 76l51 -50l25 -26zM213 -234l-45 -45l-67 67l67 68l67 -68z" />
    <glyph glyph-name="uniFD3E" unicode="&#xfd3e;" horiz-adv-x="410" 
d="M207 537.5q-66 -111.5 -66 -264.5q0 -264 220 -453l-65 -78q-113 87 -189 221.5t-76 309.5q0 177 75.5 310t189.5 221l65 -79q-88 -76 -154 -187.5z" />
    <glyph glyph-name="uniFD3F" unicode="&#xfd3f;" horiz-adv-x="410" 
d="M303.5 583q75.5 -133 75.5 -310q0 -175 -76 -309.5t-189 -221.5l-65 78q220 189 220 453q0 153 -66 264.5t-154 187.5l65 79q114 -88 189.5 -221z" />
    <glyph glyph-name="uniFEFF" unicode="&#xfeff;" 
 />
    <glyph glyph-name="uni0627.001" horiz-adv-x="246" 
d="M75 177q0 118 -7 247.5t-15 186.5l110 25q7 -56 13 -181.5t6 -246.5q0 -138 -8 -214l-106 12q7 59 7 171z" />
    <glyph glyph-name="uni0627.fina.001" horiz-adv-x="270" 
d="M115 60.5q-45 60.5 -45 188.5q-2 217 -18 362l109 24q15 -127 15 -336v-35q-1 -56 5 -83t26 -39.5t62 -12.5h5l7 -64l-7 -65h-4q-110 0 -155 60.5z" />
    <glyph glyph-name="uni066E.001" horiz-adv-x="422" 
d="M-7 54q0 22 2 64q92 0 157.5 11t99.5 26t36 26q-6 45 -26.5 106t-33.5 92l94 51q24 -54 43 -126.5t17 -121.5q-4 -94 -110.5 -143.5t-276.5 -49.5q-2 44 -2 65z" />
    <glyph glyph-name="uni066E.fina.001" horiz-adv-x="424" 
d="M151 41q-101 53 -110 150q-1 8 -1 24q0 42 11 89.5t28 87.5l87 -43q-30 -91 -26 -135q8 -43 82 -69.5t207 -26.5q2 -21 2 -64t-2 -65q-177 -1 -278 52z" />
    <glyph glyph-name="uni066E.fina.002" horiz-adv-x="523" 
d="M-5 54q0 22 2 64q128 0 202 18t114.5 57t65.5 110l94 -11q-19 -60 -19 -92q0 -71 74 -71l7 -64l-8 -65q-42 0 -77 18.5t-55 52.5t-20 77l20 -3q-59 -86 -154.5 -121t-243.5 -35q-2 44 -2 65z" />
    <glyph glyph-name="uni066E.medi.001" horiz-adv-x="390" 
d="M-5 129h8q78 0 121 7t61.5 21.5t24.5 39.5q3 14 3 30q0 25 -5 58.5t-6 41.5l93 18q8 -43 11 -89.5t3 -73.5q4 -23 24 -38t56 -15h6l7 -64l-7 -65h-6q-48 0 -86.5 26.5t-58.5 68.5l24 -5q-25 -49 -84.5 -69.5t-180.5 -20.5h-8v129z" />
    <glyph glyph-name="uni066E.medi.002" horiz-adv-x="336" 
d="M230.5 32.5q-43.5 32.5 -60.5 97.5q-2 6 -37 167l-5 23l90 30q26 -114 38 -155q10 -34 29.5 -50t50.5 -16h5l7 -64l-7 -65h-5q-62 0 -105.5 32.5zM-5 129h6q153 0 162 72l84 -17q-13 -96 -73 -140t-172 -44h-7v129z" />
    <glyph glyph-name="uni066E.medi.003" horiz-adv-x="395" 
d="M288.5 32.5q-43.5 32.5 -60.5 97.5l-17 75q-18 85 -25 115l91 30q17 -79 37 -155q10 -34 29.5 -50t51.5 -16h5l7 -64l-7 -65h-5q-63 0 -106.5 32.5zM-5 129h6q104 0 158 17.5t63 54.5l83 -17q-14 -97 -84.5 -140.5t-218.5 -43.5h-7v129z" />
    <glyph glyph-name="uni066E.init.001" horiz-adv-x="367" 
d="M-5 129h45q102 0 144 18.5t42 57.5q-1 25 -21.5 86.5t-32.5 87.5l94 51q20 -45 40 -112t20 -118q-1 -98 -68 -149t-199 -51h-64v129z" />
    <glyph glyph-name="uni0628.medi.001" horiz-adv-x="337" 
d="M230.5 32.5q-43.5 32.5 -60.5 97.5q-2 6 -37 167l-5 23l90 30q26 -114 38 -155q10 -34 29.5 -50t50.5 -16h5l7 -64l-7 -65h-5q-62 0 -105.5 32.5zM-5 129h6q153 0 162 72l84 -17q-13 -96 -73 -140t-172 -44h-7v129zM61 -83l57 -57l28 -28l-85 -86l-85 86z" />
    <glyph glyph-name="uni0628.medi.alt" horiz-adv-x="336" 
d="M-5 129h7q88 1 122.5 23t34.5 73q0 23 -8 75l-4 27l94 18q13 -67 13 -163q5 -23 25 -38t55 -15h7l7 -64l-7 -65h-7q-48 0 -86 26.5t-58 68.5l24 -3q-23 -48 -76 -70t-136 -22h-7v129zM121 -83l57 -57l28 -28l-85 -86l-85 86z" />
    <glyph glyph-name="uni0628.medi.alt.001" horiz-adv-x="395" 
d="M288.5 32.5q-43.5 32.5 -60.5 97.5l-17 75q-18 85 -25 115l91 30q17 -79 37 -155q10 -34 29.5 -50t51.5 -16h5l7 -64l-7 -65h-5q-63 0 -106.5 32.5zM-5 129h6q104 0 158 17.5t63 54.5l83 -17q-14 -97 -84.5 -140.5t-218.5 -43.5h-7v129zM134 -83l57 -57l28 -28l-85 -86
l-85 86z" />
    <glyph glyph-name="uni0628.init.alt" horiz-adv-x="330" 
d="M-5 129h53q74 0 107 17.5t33 53.5q0 23 -21.5 89t-32.5 90l94 51q19 -40 39.5 -110t20.5 -122q0 -97 -62 -147.5t-178 -50.5h-53v129zM122 -83l57 -57l28 -28l-85 -86l-85 86z" />
    <glyph glyph-name="uni067E.medi.001" horiz-adv-x="395" 
d="M229 -195q-12 -13 -25 -25l-76 75l51 51l25 25l19 -19l56 -57q-24 -26 -50 -50zM17 -220l-75 75l75 76l51 -50l25 -26zM156 -282l-45 -45l-67 67l67 68l67 -68zM288.5 32.5q-43.5 32.5 -60.5 97.5l-17 75q-18 85 -25 115l91 30q17 -79 37 -155q10 -34 29.5 -50t51.5 -16
h5l7 -64l-7 -65h-5q-63 0 -106.5 32.5zM-5 129h6q104 0 158 17.5t63 54.5l83 -17q-14 -97 -84.5 -140.5t-218.5 -43.5h-7v129z" />
    <glyph glyph-name="uni067E.medi.alt" horiz-adv-x="390" 
d="M-5 129h8q78 0 121 7t61.5 21.5t24.5 39.5q3 14 3 30q0 25 -5 58.5t-6 41.5l93 18q8 -43 11 -89.5t3 -73.5q4 -23 24 -38t56 -15h6l7 -64l-7 -65h-6q-48 0 -86.5 26.5t-58.5 68.5l24 -5q-25 -49 -84.5 -69.5t-180.5 -20.5h-8v129zM288 -195q-12 -13 -25 -25l-76 75l51 51
l25 25l19 -19l56 -57q-24 -26 -50 -50zM76 -220l-75 75l75 76l51 -50l25 -26zM215 -282l-45 -45l-67 67l67 68l67 -68z" />
    <glyph glyph-name="uni067E.medi.alt.001" horiz-adv-x="395" 
d="M288 -195q-12 -13 -25 -25l-76 75l51 51l25 25l19 -19l56 -57q-24 -26 -50 -50zM76 -220l-75 75l75 76l51 -50l25 -26zM215 -282l-45 -45l-67 67l67 68l67 -68zM288.5 32.5q-43.5 32.5 -60.5 97.5l-17 75q-18 85 -25 115l91 30q17 -79 37 -155q10 -34 29.5 -50t51.5 -16
h5l7 -64l-7 -65h-5q-63 0 -106.5 32.5zM-5 129h6q104 0 158 17.5t63 54.5l83 -17q-14 -97 -84.5 -140.5t-218.5 -43.5h-7v129z" />
    <glyph glyph-name="uni067E.init.alt" horiz-adv-x="404" 
d="M31 129h45q102 0 144 18.5t42 57.5q-1 25 -21.5 86.5t-32.5 87.5l94 51q20 -45 40 -112t20 -118q-1 -98 -68 -149t-199 -51h-64v129zM294 -195l-26 -25l-76 75l51 51l25 25l19 -19l56 -57q-32 -34 -49 -50zM81 -220l-75 75l75 76l51 -50l25 -26zM220 -282l-45 -45l-67 67
l67 68l67 -68zM-3 0l-6 65l6 64h41v-129h-41z" />
    <glyph glyph-name="uni062A.medi.001" horiz-adv-x="395" 
d="M288.5 32.5q-43.5 32.5 -60.5 97.5l-17 75q-18 85 -25 115l91 30q17 -79 37 -155q10 -34 29.5 -50t51.5 -16h5l7 -64l-7 -65h-5q-63 0 -106.5 32.5zM-5 129h6q104 0 158 17.5t63 54.5l83 -17q-14 -97 -84.5 -140.5t-218.5 -43.5h-7v129zM105 580l80 -80l-53 -53l-27 -27
l-27 27l-53 53zM282 580l80 -80l-53 -53l-27 -27l-27 27l-53 53z" />
    <glyph glyph-name="uni062A.medi.002" horiz-adv-x="430" 
d="M323.5 32.5q-43.5 32.5 -60.5 97.5q-3 12 -7 30.5t-10 44.5q-18 85 -25 115l91 30q17 -79 37 -155q10 -34 29.5 -50t51.5 -16h5l7 -64l-7 -65h-5q-63 0 -106.5 32.5zM30 129h6q104 0 158 17.5t63 54.5l83 -17q-14 -97 -84.5 -140.5t-218.5 -43.5h-7v129zM128 580l80 -80
q-27 -26 -53 -53l-27 -27l-27 27l-53 53zM305 580l80 -80q-27 -26 -53 -53l-27 -27l-27 27l-53 53zM-3 0l-6 65l6 64h41v-129h-41z" />
    <glyph glyph-name="uni062A.medi.alt" horiz-adv-x="426" 
d="M30 129h8q78 0 121 7t61.5 21.5t24.5 39.5q3 14 3 30q0 25 -5 58.5t-6 41.5l93 18q8 -43 11 -89.5t3 -73.5q4 -23 24 -38t56 -15h6l7 -64l-7 -65h-6q-48 0 -86.5 26.5t-58.5 68.5l24 -5q-25 -49 -84.5 -69.5t-180.5 -20.5h-8v129zM110 578l80 -80l-54 -53l-26 -27l-27 27
l-53 53zM287 578l80 -80l-54 -53l-26 -27l-27 27l-53 53zM-3 0l-6 65l6 64h41v-129h-41z" />
    <glyph glyph-name="uni062A.init.alt" horiz-adv-x="402" 
d="M30 129h45q102 0 144 18.5t42 57.5q-1 25 -21.5 86.5t-32.5 87.5l94 51q20 -45 40 -112t20 -118q-1 -98 -68 -149t-199 -51h-64v129zM123 634l80 -80l-53 -53l-27 -27l-27 27l-53 53zM300 634l80 -80l-53 -53l-27 -27l-27 27l-53 53zM-3 0l-6 65l6 64h41v-129h-41z" />
    <glyph glyph-name="uni062B.medi.001" horiz-adv-x="395" 
d="M288.5 32.5q-43.5 32.5 -60.5 97.5l-17 75q-18 85 -25 115l91 30q17 -79 37 -155q10 -34 29.5 -50t51.5 -16h5l7 -64l-7 -65h-5q-63 0 -106.5 32.5zM-5 129h6q104 0 158 17.5t63 54.5l83 -17q-14 -97 -84.5 -140.5t-218.5 -43.5h-7v129zM64 554l25 25l76 -75l-51 -51
l-25 -25l-19 19q-47 47 -56 57zM276 579l75 -75l-75 -76l-50 50l-26 26zM137 641l45 45l67 -67l-67 -68l-67 68z" />
    <glyph glyph-name="uni062B.medi.002" horiz-adv-x="430" 
d="M323.5 32.5q-43.5 32.5 -60.5 97.5q-3 12 -7 30.5t-10 44.5q-18 85 -25 115l91 30q17 -79 37 -155q10 -34 29.5 -50t51.5 -16h5l7 -64l-7 -65h-5q-63 0 -106.5 32.5zM30 129h6q104 0 158 17.5t63 54.5l83 -17q-14 -97 -84.5 -140.5t-218.5 -43.5h-7v129zM87 554l25 25
l76 -75l-51 -51l-25 -25l-19 19q-47 47 -56 57zM299 579l75 -75l-75 -76l-50 50l-26 26zM160 641l45 45l67 -67l-67 -68l-67 68zM-3 0l-6 65l6 64h41v-129h-41z" />
    <glyph glyph-name="uni062B.medi.alt" horiz-adv-x="426" 
d="M30 129h8q78 0 121 7t61.5 21.5t24.5 39.5q3 14 3 30q0 25 -5 58.5t-6 41.5l93 18q8 -43 11 -89.5t3 -73.5q4 -23 24 -38t56 -15h6l7 -64l-7 -65h-6q-48 0 -86.5 26.5t-58.5 68.5l24 -5q-25 -49 -84.5 -69.5t-180.5 -20.5h-8v129zM80 554l25 25l76 -75q-25 -27 -51 -51
l-25 -25l-19 18q-38 38 -56 58zM292 579l75 -75l-75 -76l-51 50l-25 26zM153 641q23 21 45 45l67 -67l-67 -68l-67 68zM-3 0l-6 65l6 64h41v-129h-41z" />
    <glyph glyph-name="uni062B.init.alt" horiz-adv-x="402" 
d="M30 129h45q102 0 144 18.5t42 57.5q-1 25 -21.5 86.5t-32.5 87.5l94 51q20 -45 40 -112t20 -118q-1 -98 -68 -149t-199 -51h-64v129zM85 607q13 12 25 25l76 -75q-8 -9 -50 -51l-26 -25l-18 19q-39 37 -57 57zM297 632l75 -75l-75 -76l-50 50l-26 26zM159 694
q37 37 44 45l67 -67l-67 -68l-67 68zM-3 0l-6 65l6 64h41v-129h-41z" />
    <glyph glyph-name="uni0679.medi.001" horiz-adv-x="395" 
d="M288.5 32.5q-43.5 32.5 -60.5 97.5l-17 75q-18 85 -25 115l91 30q17 -79 37 -155q10 -34 29.5 -50t51.5 -16h5l7 -64l-7 -65h-5q-63 0 -106.5 32.5zM-5 129h6q104 0 158 17.5t63 54.5l83 -17q-14 -97 -84.5 -140.5t-218.5 -43.5h-7v129zM93 472q24 -5 58 -5q52 0 73 12
t21 28q0 11 -7.5 18t-22.5 7q-31 0 -65 -31t-57 -74l-39 30q31 57 72 96t84 39q38 0 59.5 -26t21.5 -59q0 -42 -38.5 -73t-116.5 -31q-52 0 -84.5 13.5t-34.5 14.5l18 56q34 -10 58 -15zM82.5 571.5q-4.5 53.5 -11.5 93.5l49 10q7 -40 12.5 -99.5t2.5 -86.5l-50 8
q2 21 -2.5 74.5z" />
    <glyph glyph-name="uni062D.fina.001" horiz-adv-x="711" 
d="M210 -345q-78 34 -123.5 97t-45.5 148q0 118 74.5 205t212.5 135t326 51l-20 -90q-69 31 -146 85q-69 49 -114.5 70.5t-88.5 22.5q-40 -1 -70.5 -23t-48.5 -51l-73 53q35 70 84 107t110 37q57 0 111.5 -26.5t142.5 -89.5q50 -37 77 -54t58 -28l-14 -124
q-154 1 -270 -35.5t-180.5 -97t-72.5 -130.5q-3 -47 30.5 -85t94 -59.5t137.5 -21.5q73 0 136 15t100 30l46 -100q-2 -1 -37.5 -20.5t-110 -37t-152.5 -17.5q-95 0 -173 34z" />
    <glyph glyph-name="uni0631.003" horiz-adv-x="396" 
d="M287.5 47.5q-39.5 47.5 -66.5 135.5l79 48q14 -56 35 -79t58 -23h8l7 -64l-7 -65h-8q-66 0 -105.5 47.5z" />
    <glyph glyph-name="uni0633.001" horiz-adv-x="654" 
d="M186 -254q-70 37 -107.5 102.5t-37.5 149.5q0 61 21 129.5t48 124.5l87 -40q-26 -57 -40 -104.5t-14 -95.5q0 -86 53 -129.5t153 -43.5q74 0 127.5 25.5t80.5 67t27 87.5q0 61 -61 244l95 49q62 -175 62 -293q0 -82 -40.5 -153t-116 -114t-174.5 -43q-93 0 -163 37z" />
    <glyph glyph-name="uni0633.fina.001" horiz-adv-x="85" 
d="M-17.5 52q-40.5 52 -58.5 132l68 42q12 -37 22.5 -56.5t29 -30t49.5 -10.5l-6 -129q-64 0 -104.5 52z" />
    <glyph glyph-name="uni0633.medi.002" horiz-adv-x="258" 
d="M155.5 35.5q-43.5 35.5 -65.5 102.5q-11 35 -36 169l93 25q12 -65 19 -99.5t14 -52.5q8 -25 27 -38t51 -13h6l6 -64l-7 -65h-5q-59 0 -102.5 35.5zM-2 129h3q34 0 62.5 18t30.5 42l79 -10q-4 -49 -28.5 -90t-62 -65t-81.5 -24h-3v129z" />
    <glyph glyph-name="uni0633.init.001" horiz-adv-x="202" 
d="M-1 129h2q32 0 49.5 18.5t17.5 49.5q0 30 -19 86.5t-35 94.5l92 51q20 -43 40.5 -112.5t20.5 -122.5q0 -54 -21 -98t-59 -70t-86 -26h-2v129z" />
    <glyph glyph-name="uni0633.init.002" horiz-adv-x="269" 
d="M-1 129h4q53 0 85 60q20 39 34 121l94 -4q-12 -60 -12 -97q0 -80 66 -80h3l6 -64l-6 -65h-3q-55 0 -91 31t-49 87l23 1q-27 -55 -65.5 -87t-85.5 -32h-3v129z" />
    <glyph glyph-name="uni0633.init.003" horiz-adv-x="284" 
d="M-2 0l-7 65l7 64h4q33 0 64 15t47 37q21 26 32.5 57t19.5 65l94 -10q0 -1 -5 -23q-15 -58 -15 -86t11 -41.5t35 -13.5h2l7 -64l-7 -65h-4q-44 0 -75.5 24.5t-41.5 65.5q-32 -44 -74 -67t-91 -23h-3z" />
    <glyph glyph-name="uni0635.medi.001" horiz-adv-x="200" 
d="M205 129l7 -64l-7 -65q-104 0 -163.5 6.5t-92.5 31.5l54 77q117 14 202 14z" />
    <glyph glyph-name="uni06A1.medi.001" horiz-adv-x="468" 
d="M-4 -11l-7 65l7 64h12q141 0 212.5 30t93.5 87q1 4 1 13q0 34 -22 62.5t-57 28.5q-33 0 -56.5 -27.5t-28.5 -63.5q0 -30 25.5 -57.5t74.5 -44.5t115 -17h107l7 -64l-7 -65h-61q-102 0 -183.5 31.5t-127.5 85t-46 116.5q0 9 2 25q8 56 35.5 103t67 74t83.5 27
q49 0 87.5 -31t59.5 -79.5t21 -99.5q0 -11 -2 -29q-16 -115 -119 -174.5t-282 -59.5h-12z" />
    <glyph glyph-name="uni06A1.init.001" horiz-adv-x="461" 
d="M1 -11l-9 64l4 65h14q156 1 235 30.5t90 95.5q0 53 -15.5 107t-43 89.5t-63.5 35.5q-21 0 -39.5 -14.5t-29.5 -36t-11 -41.5q0 -18 9 -30q15 -21 55.5 -33.5t91.5 -12.5q35 0 69 6v-116q-52 -10 -94 -10q-70 0 -124.5 23.5t-78.5 70.5q-18 35 -18 84q0 54 23.5 106t65 85
t90.5 33q60 0 107 -49.5t71.5 -127.5t19.5 -160q-5 -122 -108.5 -192.5t-303.5 -71.5h-7z" />
    <glyph glyph-name="uni0643.init.alt" horiz-adv-x="456" 
d="M-5 -12l-7 65l7 65h31q88 0 146 18.5t76 46.5q2 51 -50.5 122.5t-158.5 157.5l12 114l369 158l36 -104l-297 -128q36 -30 80 -81t77 -113t33 -117q0 -21 -6 -42q-21 -77 -106 -119t-211 -42z" />
    <glyph glyph-name="uni0643.init.alt3" horiz-adv-x="456" 
d="M-5 -12l-7 65l7 65h31q89 0 145.5 15.5t73.5 42.5q1 47 -49 110.5t-157 148.5l12 115l369 156l36 -103l-297 -128q73 -61 129 -133.5t56 -147.5q0 -21 -6 -44q-22 -78 -105 -119.5t-207 -41.5zM59 668l322 134l16 -44l-344 -145z" />
    <glyph glyph-name="uni0644.001" horiz-adv-x="676" 
d="M183.5 -225q-65.5 32 -104 91t-38.5 138q0 57 20 126t48 126l87 -41q-26 -56 -40 -101t-14 -90q0 -68 51 -110t135 -42q214 0 207 221q-6 191 -17 357t-22 251l109 25q16 -134 30 -628q4 -167 -77 -261t-230 -94q-79 0 -144.5 32z" />
    <glyph glyph-name="uni0646.medi.001" horiz-adv-x="336" 
d="M230.5 32.5q-43.5 32.5 -60.5 97.5q-2 6 -37 167l-5 23l90 30q26 -114 38 -155q10 -34 29.5 -50t50.5 -16h5l7 -64l-7 -65h-5q-62 0 -105.5 32.5zM-5 129h6q153 0 162 72l84 -17q-13 -96 -73 -140t-172 -44h-7v129zM138 590l57 -57l28 -28l-85 -86l-85 86z" />
    <glyph glyph-name="uni0649.fina.001" horiz-adv-x="694" 
d="M183.5 -248.5q-71.5 36.5 -109.5 106.5t-32 167q3 56 22.5 118t44.5 115l87 -41q-26 -58 -40 -106t-14 -95q0 -86 53 -129t153 -43q56 0 106.5 13t85.5 33t46 38q-15 18 -74 52.5t-124 59.5l28 122q82 -16 145.5 -24t124.5 -9h18l7 -64l-7 -65h-18q-68 1 -139.5 11.5
t-157.5 28.5l28 79q8 -3 78 -33t128 -76t58 -88q-1 -48 -46 -96.5t-121 -79.5t-166 -31q-93 0 -164.5 36.5z" />
    <glyph glyph-name="uni064A.fina.001" horiz-adv-x="695" 
d="M183.5 -248.5q-71.5 36.5 -109.5 106.5t-32 167q3 56 22.5 118t44.5 115l87 -41q-26 -58 -40 -106t-14 -95q0 -86 53 -129t153 -43q56 0 106.5 13t85.5 33t46 38q-15 18 -74 52.5t-124 59.5l28 122q82 -16 145.5 -24t124.5 -9h18l7 -64l-7 -65h-18q-68 1 -139.5 11.5
t-157.5 28.5l28 79q8 -3 78 -33t128 -76t58 -88q-1 -48 -46 -96.5t-121 -79.5t-166 -31q-93 0 -164.5 36.5zM431 -508l-80 80l53 53l27 27l27 -27l53 -53zM254 -508l-80 80l53 53l27 27l27 -27l53 -53z" />
    <glyph glyph-name="uni064A.medi.001" horiz-adv-x="395" 
d="M288.5 32.5q-43.5 32.5 -60.5 97.5l-17 75q-18 85 -25 115l91 30q17 -79 37 -155q10 -34 29.5 -50t51.5 -16h5l7 -64l-7 -65h-5q-63 0 -106.5 32.5zM-5 129h6q104 0 158 17.5t63 54.5l83 -17q-14 -97 -84.5 -140.5t-218.5 -43.5h-7v129zM201 -246l-80 80l53 53l27 27
l27 -27l53 -53zM24 -246l-80 80l53 53l27 27l27 -27l53 -53z" />
    <glyph glyph-name="uni064A.medi.alt" horiz-adv-x="390" 
d="M-5 129h8q78 0 121 7t61.5 21.5t24.5 39.5q3 14 3 30q0 25 -5 58.5t-6 41.5l93 18q8 -43 11 -89.5t3 -73.5q4 -23 24 -38t56 -15h6l7 -64l-7 -65h-6q-48 0 -86.5 26.5t-58.5 68.5l24 -5q-25 -49 -84.5 -69.5t-180.5 -20.5h-8v129zM256 -247l-80 80l53 53l27 27l27 -27
l53 -53zM79 -247l-80 80l53 53l27 27l27 -27l53 -53z" />
    <glyph glyph-name="uni064A.medi.alt.001" horiz-adv-x="395" 
d="M288.5 32.5q-43.5 32.5 -60.5 97.5l-17 75q-18 85 -25 115l91 30q17 -79 37 -155q10 -34 29.5 -50t51.5 -16h5l7 -64l-7 -65h-5q-63 0 -106.5 32.5zM-5 129h6q104 0 158 17.5t63 54.5l83 -17q-14 -97 -84.5 -140.5t-218.5 -43.5h-7v129zM256 -246l-80 80l53 53l27 27
l27 -27l53 -53zM79 -246l-80 80l53 53l27 27l27 -27l53 -53z" />
    <glyph glyph-name="uni064A.init.alt" horiz-adv-x="399" 
d="M27 129h45q102 0 144 18.5t42 57.5q-1 25 -21.5 86.5t-32.5 87.5l94 51q20 -45 40 -112t20 -118q-1 -98 -68 -149t-199 -51h-64v129zM256 -246l-80 80l53 53l27 27l27 -27q26 -27 53 -53zM79 -246l-80 80l53 53l27 27l27 -27q26 -27 53 -53zM-3 0l-6 65l6 64h41v-129h-41
z" />
    <glyph glyph-name="uni0626.fina.001" horiz-adv-x="695" 
d="M183.5 -248.5q-71.5 36.5 -109.5 106.5t-32 167q3 56 22.5 118t44.5 115l87 -41q-26 -58 -40 -106t-14 -95q0 -86 53 -129t153 -43q56 0 106.5 13t85.5 33t46 38q-15 18 -74 52.5t-124 59.5l28 122q82 -16 145.5 -24t124.5 -9h18l7 -64l-7 -65h-18q-68 1 -139.5 11.5
t-157.5 28.5l28 79q8 -3 78 -33t128 -76t58 -88q-1 -48 -46 -96.5t-121 -79.5t-166 -31q-93 0 -164.5 36.5zM206.5 384q-30.5 28 -30.5 68q0 33 21 62t52 36q14 3 26 3q26 0 69 -13l-15 -61q-31 11 -52 11q-25 0 -39.5 -14.5t-10.5 -31.5q3 -12 16.5 -22.5t35.5 -10.5
q8 0 13 1l-11 -61q-44 5 -74.5 33zM145 369l217 67v-62l-217 -67v62z" />
    <glyph glyph-name="uni0626.medi.001" horiz-adv-x="337" 
d="M230.5 32.5q-43.5 32.5 -60.5 97.5q-2 6 -37 167l-5 23l90 30q26 -114 38 -155q10 -34 29.5 -50t50.5 -16h5l7 -64l-7 -65h-5q-62 0 -105.5 32.5zM-5 129h6q153 0 162 72l84 -17q-13 -96 -73 -140t-172 -44h-7v129zM76.5 484q-30.5 28 -30.5 68q0 33 21 62t52 36
q14 3 26 3q26 0 69 -13l-15 -61q-31 11 -52 11q-25 0 -39.5 -14.5t-10.5 -31.5q3 -12 16.5 -22.5t35.5 -10.5q8 0 13 1l-11 -61q-44 5 -74.5 33zM15 469l217 67v-62l-217 -67v62z" />
    <glyph glyph-name="uni06CE.fina.001" horiz-adv-x="695" 
d="M183.5 -248.5q-71.5 36.5 -109.5 106.5t-32 167q3 56 22.5 118t44.5 115l87 -41q-26 -58 -40 -106t-14 -95q0 -86 53 -129t153 -43q56 0 106.5 13t85.5 33t46 38q-15 18 -74 52.5t-124 59.5l28 122q82 -16 145.5 -24t124.5 -9h18l7 -64l-7 -65h-18q-68 1 -139.5 11.5
t-157.5 28.5l28 79q8 -3 78 -33t128 -76t58 -88q-1 -48 -46 -96.5t-121 -79.5t-166 -31q-93 0 -164.5 36.5zM333 345.5q-19 -38.5 -31 -71.5l-45 -16q-11 33 -32 74.5t-41 70.5l40 38q13 -17 28.5 -48.5t24.5 -57.5q9 28 24.5 62t28.5 53l41 -37q-19 -29 -38 -67.5z" />
    <glyph glyph-name="uni06CE.medi.001" horiz-adv-x="395" 
d="M216 488.5q-19 -38.5 -31 -71.5l-45 -16q-11 33 -32 74.5t-41 70.5l40 38q13 -17 28.5 -48.5t24.5 -57.5q9 28 24.5 62t28.5 53l41 -37q-19 -29 -38 -67.5zM288.5 32.5q-43.5 32.5 -60.5 97.5l-17 75q-18 85 -25 115l91 30q17 -79 37 -155q10 -34 29.5 -50t51.5 -16h5
l7 -64l-7 -65h-5q-63 0 -106.5 32.5zM-5 129h6q104 0 158 17.5t63 54.5l83 -17q-14 -97 -84.5 -140.5t-218.5 -43.5h-7v129zM201 -246l-80 80l53 53l27 27l27 -27l53 -53zM24 -246l-80 80l53 53l27 27l27 -27l53 -53z" />
    <glyph glyph-name="uni06CE.medi.alt" horiz-adv-x="390" 
d="M223 487.5q-19 -38.5 -31 -71.5l-45 -16q-11 33 -32 74.5t-41 70.5l40 38q13 -17 28.5 -48.5t24.5 -57.5q9 28 24.5 62t28.5 53l41 -37q-19 -29 -38 -67.5zM-5 129h8q78 0 121 7t61.5 21.5t24.5 39.5q3 14 3 30q0 25 -5 58.5t-6 41.5l93 18q8 -43 11 -89.5t3 -73.5
q4 -23 24 -38t56 -15h6l7 -64l-7 -65h-6q-48 0 -86.5 26.5t-58.5 68.5l24 -5q-25 -49 -84.5 -69.5t-180.5 -20.5h-8v129zM256 -247l-80 80l53 53l27 27l27 -27l53 -53zM79 -247l-80 80l53 53l27 27l27 -27l53 -53z" />
    <glyph glyph-name="uni06CE.medi.alt.001" horiz-adv-x="395" 
d="M217 484.5q-19 -38.5 -31 -71.5l-45 -16q-11 33 -32 74.5t-41 70.5l40 38q13 -17 28.5 -48.5t24.5 -57.5q9 28 24.5 62t28.5 53l41 -37q-19 -29 -38 -67.5zM288.5 32.5q-43.5 32.5 -60.5 97.5l-17 75q-18 85 -25 115l91 30q17 -79 37 -155q10 -34 29.5 -50t51.5 -16h5
l7 -64l-7 -65h-5q-63 0 -106.5 32.5zM-5 129h6q104 0 158 17.5t63 54.5l83 -17q-14 -97 -84.5 -140.5t-218.5 -43.5h-7v129zM256 -246l-80 80l53 53l27 27l27 -27l53 -53zM79 -246l-80 80l53 53l27 27l27 -27l53 -53z" />
    <glyph glyph-name="uni06CE.init.alt" horiz-adv-x="399" 
d="M224 592.5q-19 -38.5 -31 -71.5l-45 -16q-11 33 -32 74.5t-41 70.5l40 38q13 -17 28.5 -48.5t24.5 -57.5q9 28 24.5 62t28.5 53l41 -37q-19 -29 -38 -67.5zM27 129h45q102 0 144 18.5t42 57.5q-1 25 -21.5 86.5t-32.5 87.5l94 51q20 -45 40 -112t20 -118q-1 -98 -68 -149
t-199 -51h-64v129zM256 -246l-80 80l53 53l27 27l27 -27q26 -27 53 -53zM79 -246l-80 80l53 53l27 27l27 -27q26 -27 53 -53zM-3 0l-6 65l6 64h41v-129h-41z" />
    <glyph glyph-name="uni06CC.fina.001" horiz-adv-x="695" 
d="M183.5 -248.5q-71.5 36.5 -109.5 106.5t-32 167q3 56 22.5 118t44.5 115l87 -41q-26 -58 -40 -106t-14 -95q0 -86 53 -129t153 -43q56 0 106.5 13t85.5 33t46 38q-15 18 -74 52.5t-124 59.5l28 122q82 -16 145.5 -24t124.5 -9h18l7 -64l-7 -65h-18q-68 1 -139.5 11.5
t-157.5 28.5l28 79q8 -3 78 -33t128 -76t58 -88q-1 -48 -46 -96.5t-121 -79.5t-166 -31q-93 0 -164.5 36.5z" />
    <glyph glyph-name="uni06CC.medi.001" horiz-adv-x="395" 
d="M288.5 32.5q-43.5 32.5 -60.5 97.5l-17 75q-18 85 -25 115l91 30q17 -79 37 -155q10 -34 29.5 -50t51.5 -16h5l7 -64l-7 -65h-5q-63 0 -106.5 32.5zM-5 129h6q104 0 158 17.5t63 54.5l83 -17q-14 -97 -84.5 -140.5t-218.5 -43.5h-7v129zM201 -246l-80 80l53 53l27 27
l27 -27l53 -53zM24 -246l-80 80l53 53l27 27l27 -27l53 -53z" />
    <glyph glyph-name="uni06CC.medi.alt" horiz-adv-x="390" 
d="M-5 129h8q78 0 121 7t61.5 21.5t24.5 39.5q3 14 3 30q0 25 -5 58.5t-6 41.5l93 18q8 -43 11 -89.5t3 -73.5q4 -23 24 -38t56 -15h6l7 -64l-7 -65h-6q-48 0 -86.5 26.5t-58.5 68.5l24 -5q-25 -49 -84.5 -69.5t-180.5 -20.5h-8v129zM256 -247l-80 80l53 53l27 27l27 -27
l53 -53zM79 -247l-80 80l53 53l27 27l27 -27l53 -53z" />
    <glyph glyph-name="uni06CC.medi.alt.001" horiz-adv-x="395" 
d="M288.5 32.5q-43.5 32.5 -60.5 97.5l-17 75q-18 85 -25 115l91 30q17 -79 37 -155q10 -34 29.5 -50t51.5 -16h5l7 -64l-7 -65h-5q-63 0 -106.5 32.5zM-5 129h6q104 0 158 17.5t63 54.5l83 -17q-14 -97 -84.5 -140.5t-218.5 -43.5h-7v129zM256 -246l-80 80l53 53l27 27
l27 -27l53 -53zM79 -246l-80 80l53 53l27 27l27 -27l53 -53z" />
    <glyph glyph-name="uni06CC.init.alt" horiz-adv-x="399" 
d="M27 129h45q102 0 144 18.5t42 57.5q-1 25 -21.5 86.5t-32.5 87.5l94 51q20 -45 40 -112t20 -118q-1 -98 -68 -149t-199 -51h-64v129zM256 -246l-80 80l53 53l27 27l27 -27q26 -27 53 -53zM79 -246l-80 80l53 53l27 27l27 -27q26 -27 53 -53zM-3 0l-6 65l6 64h41v-129h-41
z" />
    <glyph glyph-name="uni06D2.fina.alt" horiz-adv-x="448" 
d="M54 -138q0 72 42.5 133.5t117 97.5t166.5 36h73l7 -64l-7 -65h-73q-68 0 -119 -18.5t-79.5 -42t-32.5 -37.5q9 -7 55 -16.5t105 -9.5h125l-45 -128l-99 -1q-88 0 -138.5 15t-91.5 47q-6 27 -6 53z" />
    <glyph glyph-name="uni06D3.fina.alt" horiz-adv-x="448" 
d="M54 -138q0 72 42.5 133.5t117 97.5t166.5 36h73l7 -64l-7 -65h-73q-68 0 -119 -18.5t-79.5 -42t-32.5 -37.5q9 -7 55 -16.5t105 -9.5h125l-45 -128l-99 -1q-88 0 -138.5 15t-91.5 47q-6 27 -6 53zM161.5 230q-30.5 28 -30.5 68q0 33 21 62t52 36q14 3 26 3q26 0 69 -13
l-15 -61q-31 11 -52 11q-25 0 -39.5 -14.5t-10.5 -31.5q3 -12 16.5 -22.5t35.5 -10.5q8 0 13 1l-11 -61q-44 5 -74.5 33zM100 215l217 67v-62l-217 -67v62z" />
    <glyph glyph-name="uni06D3.fina.alt2" horiz-adv-x="398" 
d="M51 -138q0 72 43 133.5t119 97.5t168 36h22l7 -64l-7 -65h-22q-67 0 -119 -18.5t-81.5 -42.5t-32.5 -37q10 -7 58.5 -16.5t129.5 -9.5q110 0 242 2l-46 -129q-85 -2 -196 -2q-126 0 -188 15.5t-91 46.5q-6 27 -6 53zM173.5 237q-30.5 28 -30.5 68q0 33 21 62t52 36
q14 3 26 3q26 0 69 -13l-15 -61q-31 11 -52 11q-25 0 -39.5 -14.5t-10.5 -31.5q3 -12 16.5 -22.5t35.5 -10.5q8 0 13 1l-11 -61q-44 5 -74.5 33zM112 222l217 67v-62l-217 -67v62z" />
    <glyph glyph-name="uni0640.001" horiz-adv-x="35" 
d="M-3 0l-6 65l6 64h41v-129h-41z" />
    <glyph glyph-name="uni06B50627" horiz-adv-x="574" 
d="M522 518q8 -95 8 -189v-40q-2 -101 -61 -170.5t-155.5 -106t-213.5 -42.5l-32 122q160 13 257 56.5t97 139.5q0 101 -8 194t-24 219l110 25q14 -113 22 -208zM231 401q32 -112 32 -197q0 -53 -14 -95l-95 -17q13 29 13 73q0 135 -121 410l93 63q60 -125 92 -237z
M507 841.5q-19 -38.5 -31 -71.5l-45 -16q-11 33 -32 74.5t-41 70.5l40 38q13 -17 28.5 -48.5t24.5 -57.5q9 28 24.5 62t28.5 53l41 -37q-19 -29 -38 -67.5z" />
    <glyph glyph-name="uni06B50627.fina" horiz-adv-x="644" 
d="M452 248q-1 29 7 51t21 34.5t25 12.5q11 0 18 -9.5t7 -28.5q1 -67 10 -105.5t32 -56t66 -17.5h11v-129h-12q-178 0 -185 248zM522 518q8 -95 8 -189v-40q-2 -101 -61 -170.5t-155.5 -106t-213.5 -42.5l-32 122q160 13 257 56.5t97 139.5q0 101 -8 194t-24 219l110 25
q14 -113 22 -208zM231 401q32 -112 32 -197q0 -53 -14 -95l-95 -17q13 29 13 73q0 135 -121 410l93 63q60 -125 92 -237zM507 841.5q-19 -38.5 -31 -71.5l-45 -16q-11 33 -32 74.5t-41 70.5l40 38q13 -17 28.5 -48.5t24.5 -57.5q9 28 24.5 62t28.5 53l41 -37
q-19 -29 -38 -67.5z" />
    </font>
</defs>
</svg>
